<?xml version="1.0" encoding="utf-8"?>
<!-- Generator: Adobe Illustrator 22.1.0, SVG Export Plug-In . SVG Version: 6.00 Build 0)  -->
<svg version="1.1" id="Layer_1" xmlns="http://www.w3.org/2000/svg" xmlns:xlink="http://www.w3.org/1999/xlink" x="0px" y="0px"
	 viewBox="0 0 500 300" style="enable-background:new 0 0 500 300;" xml:space="preserve">
<style type="text/css">
	.st0{clip-path:url(#SVGID_2_);}
	.st1{fill:#1B69BC;}
</style>
<title>Amadeus Full Color</title>
<g id="g10">
	<g id="g12">
		<g id="g14">
			<g>
				<g>
					<defs>
						<rect id="SVGID_1_" y="116.3" width="496.8" height="75"/>
					</defs>
					<clipPath id="SVGID_2_">
						<use xlink:href="#SVGID_1_"  style="overflow:visible;"/>
					</clipPath>
					<g class="st0">
						<g id="g16">
							<path id="path22" class="st1" d="M312.4,187.8c8.1,2.3,16.6,3.5,24.8,3.5c7.2,0.2,14.7-0.4,21.7-1.8V177
								c-5.9,1.2-11.9,1.8-17.8,1.8c-5,0-9.8-0.4-14.7-1.4v-17.6h28.1v-12.5h-28.1v-17c4.5-0.8,9.1-1.2,13.8-1.2
								c5.9,0,11.7,0.6,17.6,1.8v-12.7c-6.4-1.4-12.8-2-19.3-1.8c-8.8-0.2-17.6,1-26.2,3.1v68.1V187.8z M111.1,159.4
								c-0.3,1-0.9,2.9-1,4.1c-0.3-1.2-0.7-3.1-1-4.1L96.6,123c-2.1-6.1-5.3-6.9-11.6-6.9c-2.1,0-6.4,0.4-6.4,0.4l-6.4,73.6h14
								l3.1-49.3l13.3,37.4c1,2.9,3.1,4.1,7.1,4.1c4,0,6-1.2,7.1-4.1l13.3-37.4l3.1,49.3h14.1l-5.9-73.4c0,0-4.3-0.4-6.4-0.4
								c-6,0-9.3,0.8-11.6,6.9L111.1,159.4z M39.8,174.7c-5,2.3-10.4,3.7-15.7,4.1c-5.9,0-10.4-2.3-10.4-9.6c0-6.5,3.1-10,11-10.4
								l15-0.6L39.8,174.7z M31.4,116.3c-9.1-0.2-18.1,1.8-26.4,5.7l3.1,12.1c6.2-2.3,12.8-3.5,19.3-3.7c8.1,0,12.4,2.5,12.4,11.7
								v5.3H27.4c-21.2,0-27.4,11-27.4,22.9c0,16.1,11,21.1,21,21.1c6.7,0,13.3-2,19.3-5.5c0.7,0,3.1,2.9,13.6,2.9v-51.3
								C54,122.6,45.5,116.3,31.4,116.3L31.4,116.3z M201.7,174.5c-5,2.3-10.4,3.7-15.7,4.1c-5.9,0-10.4-2.3-10.4-9.6
								c0-6.5,3.1-10,11-10.4l14.8-0.6C201.7,158,201.7,174.5,201.7,174.5z M193.2,116.3c-9.1-0.2-18.1,1.8-26.4,5.7l3.1,12.1
								c6.2-2.3,12.8-3.5,19.3-3.7c8.1,0,12.4,2.5,12.4,11.7v5.3h-12.4c-21,0-27.3,11-27.3,23.1c0,16.1,11,21.1,21,21.1
								c6.7,0,13.3-2,19.3-5.5c0.7,0,3.1,2.9,13.6,2.9v-51.5C215.8,122.6,207.5,116.3,193.2,116.3L193.2,116.3z M418.5,171.9
								c-5.5,2.9-11.4,4.7-17.4,5.1c-9.7,0-11.4-5.1-11.4-16.4v-43.7h-2.1c-4.1,0-8.1,0.4-12.2,1v44.6c0,19.4,4.3,28.8,21.7,28.8
								c7.6,0,15-2,21.7-5.9c4.3,2.3,9.1,3.5,14,3.1v-70.5c-3.8-0.6-7.6-1-11.4-1h-2.8L418.5,171.9L418.5,171.9z M449.4,188.8
								c6.9,1.8,14,2.7,21,2.5c11.7,0,26.4-4.5,26.4-22.3c0-11.7-7.6-16.6-20-21.7c-6.7-2.7-12.4-5.3-12.4-10.6
								c0-2.5,1.7-7.6,10.2-7.6c5.5,0.2,11,1.8,16.2,4.1l3.6-11.9c-6.6-3.5-13.8-5.3-21-5.1c-11.7,0-23.3,7-23.3,21.3
								s11.7,19.2,20.9,22.7c6.2,2.3,11.6,4.9,11.6,9.6s-2.2,8.6-12.8,8.6c-6-0.2-11.9-0.8-17.8-2.2L449.4,188.8z M250.7,130.2
								c3.8-0.8,7.4-1.2,11.2-1.2c10.4,0,18.3,6.5,18.3,24.3s-4,25.3-19.7,25.3c-3.3,0-6.7-0.4-10-0.8v-47.6H250.7z M262.7,116.3
								c-8.8,0-17.8,1.4-26.2,4.3V189c7.9,1.6,15.9,2.2,23.8,2.2c25.4,0,35.2-11.4,35.2-37.8C295.3,130.4,282.9,116.5,262.7,116.3
								L262.7,116.3"/>
						</g>
					</g>
				</g>
			</g>
		</g>
	</g>
</g>
<text transform="matrix(1 0 0 1 788 356.55)" style="font-family:'MyriadPro-Regular'; font-size:12px;">Lorem ipsum</text>
</svg>
