<?xml version="1.0" encoding="utf-8"?>
<!-- Generator: Adobe Illustrator 17.0.0, SVG Export Plug-In . SVG Version: 6.00 Build 0)  -->
<!DOCTYPE svg PUBLIC "-//W3C//DTD SVG 1.1//EN" "http://www.w3.org/Graphics/SVG/1.1/DTD/svg11.dtd">
<svg version="1.1" id="Layer_1" xmlns="http://www.w3.org/2000/svg" xmlns:xlink="http://www.w3.org/1999/xlink" x="0px" y="0px"
	 width="174px" height="175px" viewBox="219.5 311.5 174 175" enable-background="new 219.5 311.5 174 175" xml:space="preserve">
  <defs><style>.cls-1{fill:#cc2a2f;}</style></defs>
<title>Artboard 1</title>
<path class="cls-1" d="M306,317.256c-43.489,0-78.744,35.255-78.744,78.744s35.255,78.744,78.744,78.744c43.489,0,78.744-35.255,78.744-78.744
	S349.489,317.256,306,317.256L306,317.256z M359.295,410.518c0.05,4.93-3.737,9.051-8.653,9.418c-6.8,0.816-13.6,1.7-20.4,1.87
	c-12.223,0.408-24.48,0.697-36.72,0.391c-10.642-0.272-25.109-0.986-31.875-2.244c-6.766-1.258-8.959-4.301-9.01-10.03
	c-0.091-10.2-0.091-20.4,0-30.6c0-5.967,4.08-9.911,10.506-10.438c3.587-0.289,7.174-0.442,10.778-0.527
	c3.281-0.085,4.59,1.224,4.607,4.539c0,6.001,0,11.985,0,17.986c0,0.748,0,1.513,0,2.363h54.859c0-0.663,0-1.343,0-2.006
	c0-6.188,0-12.376,0-18.564c0-3.06,1.326-4.437,4.403-4.318c4.352,0.187,8.704,0.357,13.005,0.884
	c4.788,0.665,8.388,4.704,8.5,9.537C359.386,389.33,359.386,399.91,359.295,410.518z"/>
</svg>
