<?xml version="1.0" encoding="UTF-8"?>
<svg width="105px" height="36px" viewBox="0 0 105 36" version="1.1" xmlns="http://www.w3.org/2000/svg" xmlns:xlink="http://www.w3.org/1999/xlink">
    <!-- Generator: Sketch 44.1 (41455) - http://www.bohemiancoding.com/sketch -->
    <title>BD</title>
    <desc>Created with Sketch.</desc>
    <defs></defs>
    <g id="Page-1" stroke="none" stroke-width="1" fill="none" fill-rule="evenodd">
        <g id="BD" fill-rule="nonzero" fill="#FFFFFF">
            <g id="bd-white-customer" transform="translate(21.000000, 6.000000)">
                <path d="M23.7898507,9.5568 C23.9511522,10.3611977 24.0343288,11.1794395 24.038209,12 C23.9077403,18.577324 18.5650058,23.8407973 12.0191045,23.8407973 C5.47320312,23.8407973 0.130468683,18.577324 0,12 C0.00228379378,11.1780859 0.0935675037,10.3588627 0.272238806,9.5568 L12.0358209,14.5152 L23.7898507,9.5568 Z M17.4662687,15.2544 L17.4662687,15.2544 C16.9205267,17.6743087 14.8941287,19.4710194 12.4370149,19.7136 C13.3191298,19.4918036 13.8982675,18.6438397 13.7870869,17.7368469 C13.6759062,16.8298541 12.9093031,16.148507 12,16.148507 C11.0906969,16.148507 10.3240938,16.8298541 10.2129131,17.7368469 C10.1017325,18.6438397 10.6808702,19.4918036 11.5629851,19.7136 C9.12780152,19.4727282 7.11336594,17.7046581 6.5480597,15.312 L6.51940299,15.312 L4.18865672,14.2752 C4.52776119,18.5472 7.91402985,21.9024 12.0214925,21.9024 C16.1289552,21.9024 19.5820896,18.48 19.8543284,14.16 L17.4662687,15.2544 Z" id="Shape"></path>
                <path d="M11.9259701,0 C10.1588308,0.0107028933 8.41569769,0.412202375 6.82029851,1.176 L11.0041791,7.4688 L11.9259701,0 Z" id="Shape"></path>
                <path d="M17.198806,1.1664 C15.6099938,0.409192656 13.8753877,0.0110565392 12.1170149,-2.66453526e-15 L13.0292537,7.5072 L17.198806,1.1664 Z" id="Shape"></path>
                <path d="M21.3826866,4.4784 C20.2812527,3.11399253 18.8976055,2.00678141 17.3277612,1.2336 L15.0113433,8.2416 L21.3826866,4.4784 Z" id="Shape"></path>
                <path d="M23.7373134,9.3168 C23.3513312,7.62771871 22.6031746,6.04365607 21.5450746,4.6752 L16.6352239,9.792 L23.7373134,9.3168 Z" id="Shape"></path>
                <path d="M2.55044776,4.6176 C1.44394577,6.01754745 0.66528706,7.64991484 0.272238806,9.3936 L7.34089552,9.8352 L2.55044776,4.6176 Z" id="Shape"></path>
                <path d="M6.67701493,1.248 C5.12372594,2.01747959 3.75371163,3.114387 2.66029851,4.464 L8.99820896,8.2704 L6.67701493,1.248 Z" id="Shape"></path>
                <path d="M41.0364179,11.6064 C42.6466706,10.9035089 43.663021,9.27988908 43.5964179,7.5168 C43.5964179,7.5168 43.5964179,2.9088 38.9779104,2.7792 L29.1916418,2.7792 L29.1916418,5.7168 L31.1020896,5.7168 L31.1020896,21.8064 L37.841194,21.8064 C37.841194,21.8064 44.0979104,21.8064 44.0979104,16.4448 C44.1074627,16.44 44.3844776,12.8784 41.0364179,11.6064 Z M34.5265672,5.7168 L36.9576119,5.7168 C40.1432836,5.7168 39.8710448,8.1408 39.8710448,8.1408 C39.8710448,10.5888 37.0053731,10.5648 37.0053731,10.5648 L34.5265672,10.5648 L34.5265672,5.7168 Z M40.4298507,15.8688 C40.4298507,18.408 37.798209,18.6144 37.798209,18.6144 L34.5265672,18.6144 L34.5265672,13.1184 L37.8698507,13.1184 C40.5635821,13.1184 40.4441791,15.864 40.4441791,15.864 L40.4298507,15.8688 Z" id="Shape"></path>
                <path d="M53.0865672,2.7792 L46.2185075,2.7792 L46.2185075,5.7168 L48.1289552,5.7168 L48.1289552,21.8064 L52.9385075,21.8064 C52.9385075,21.8064 63.5844776,22.5216 63.5844776,12.2928 C63.5797015,12.2928 64.2053731,2.7792 53.0865672,2.7792 Z M59.8591045,12.1632 C59.8591045,19.7328 51.6823881,18.696 51.6823881,18.696 L51.6823881,5.616 C60.3701493,4.9584 59.8591045,12.1584 59.8591045,12.1584 L59.8591045,12.1632 Z" id="Shape"></path>
            </g>
        </g>
    </g>
</svg>