<svg id="svg2" xmlns="http://www.w3.org/2000/svg" viewBox="0 0 243 82.79">
  <defs>
    <style>
      .cls-1 {
        fill: #fff;
      }
    </style>
  </defs>
  <title>Comcast white 2</title>
  <g id="layer1">
    <g id="g3947">
      <path id="path3775" class="cls-1" d="M138.29,47.34a16.61,16.61,0,1,0,12.26,27.78l-2.3-2.25a13.06,13.06,0,0,1-9.9,4.51,13.43,13.43,0,0,1-.8-26.84h.73a12.76,12.76,0,0,1,9.42,3.84,1.61,1.61,0,1,0,2.45-2.1h0A16.56,16.56,0,0,0,138.29,47.34Z"/>
      <path id="path2998" class="cls-1" d="M25.58,47.34a16.61,16.61,0,0,0,.07,33.22h0a16.63,16.63,0,0,0,12.2-5.44l-2.3-2.25a13.06,13.06,0,0,1-9.9,4.51,13.43,13.43,0,0,1-.07-26.85A12.78,12.78,0,0,1,35,54.4a1.63,1.63,0,1,0,2.45-2.14A16.57,16.57,0,0,0,25.58,47.34Z"/>
      <path id="path3777" class="cls-1" d="M59.73,47.31a16.62,16.62,0,1,0,.13,33.24c10.3,0,16.48-8.74,16.48-16.59A16.71,16.71,0,0,0,59.73,47.31Zm0,3.22A13.52,13.52,0,0,1,73.11,64c0,6.17-4.77,13.37-13.25,13.37a13.4,13.4,0,0,1-.13-26.8Z"/>
      <path id="path3779" class="cls-1" d="M110.13,47.26a1.56,1.56,0,0,0-1.43,1L99,72,89.34,48.26a1.56,1.56,0,0,0-3,.31L80.81,78.75a1.56,1.56,0,0,0,3.06.64h0v-.08l4.6-24.9,9.1,22.33a1.56,1.56,0,0,0,2,.88,1.6,1.6,0,0,0,.87-.88l9.11-22.36,4.79,26h3.18l-5.86-31.79A1.56,1.56,0,0,0,110.13,47.26Z"/>
      <path id="path3794" class="cls-1" d="M169.24,47.26a1.59,1.59,0,0,0-1.42,1L155.5,78.46a1.57,1.57,0,0,0,2.9,1.19h0L169.27,53l11.17,27.42h3.39L170.72,48.26A1.56,1.56,0,0,0,169.24,47.26Z"/>
      <path id="path3796" class="cls-1" d="M162,64.91v3.22h14V64.91Z"/>
      <path id="path3811" class="cls-1" d="M198.44,47.36a10.94,10.94,0,0,0-6.44,1.9,7.66,7.66,0,0,0-3.11,6.28,7.38,7.38,0,0,0,2.37,5.64A27.05,27.05,0,0,0,197,64.7h0a40.4,40.4,0,0,1,5.92,3.23,4.27,4.27,0,0,1,2,3.82,5,5,0,0,1-1.81,4,6.9,6.9,0,0,1-4.51,1.5c-4.14,0-7.25-2.69-8.34-3.75l-2.38,2.18a15.48,15.48,0,0,0,10.72,4.83,10,10,0,0,0,6.6-2.25,8.44,8.44,0,0,0,2.94-6.48,7.93,7.93,0,0,0-3.24-6.36,37.92,37.92,0,0,0-6.45-3.57h0a25.85,25.85,0,0,1-5.06-3,3.61,3.61,0,0,1-1.28-3.26,4.18,4.18,0,0,1,1.8-3.68,7.94,7.94,0,0,1,4.51-1.3,12,12,0,0,1,5.73,1.7,1.61,1.61,0,1,0,2-2.52l-.09-.07h0l-.13-.08A14.72,14.72,0,0,0,198.44,47.36Z"/>
      <path id="path3813" class="cls-1" d="M213.79,47.52a1.61,1.61,0,1,0,0,3.22h18.62a1.61,1.61,0,1,0,0-3.22Z"/>
      <path id="path3815" class="cls-1" d="M221.59,49.55V80.34h3V49.55Z"/>
      <g id="g3886">
        <g id="g3898">
          <path id="path3862" class="cls-1" d="M99.41,11.26a6.26,6.26,0,0,0-.3,8.84,6.08,6.08,0,0,0,1.37,1.1L117.75,33l-8.4-19.13c-1.75-4.51-6.55-5.5-9.94-2.64"/>
          <path id="path3864" class="cls-1" d="M114.26,1.94a6.15,6.15,0,0,0-5.59,6.65,6.06,6.06,0,0,0,.45,1.83l8.64,20.35,3-21.41c.75-5.32-3.27-7.78-6.5-7.42"/>
          <path id="path3866" class="cls-1" d="M122.17,8.54h1.64s.87,0,1,.41c-.65.53-2.4.59-2.16,3.39l2.75,18.42,8.6-20.4a6.21,6.21,0,0,0-3.47-8.06,6.53,6.53,0,0,0-1.73-.42h-.47a6.1,6.1,0,0,0-6.17,6c0,.23,0,.45,0,.67"/>
          <path id="path3868" class="cls-1" d="M133.63,14,125.5,32.93l17.28-11.87a6.17,6.17,0,0,0-3.35-11.39c-2.15,0-4.44,1.13-5.77,4.37"/>
          <path id="path3870" class="cls-1" d="M140.83,23.75,124.63,35h20c4.09,0,6.76-4.21,5.55-8.07a6.24,6.24,0,0,0-5.79-4.33,6.36,6.36,0,0,0-3.51,1.12"/>
          <path id="path3872" class="cls-1" d="M99,35h19.65L102.43,23.77c-3.75-2.4-8-1-9.47,3a6.3,6.3,0,0,0,4,8,5.93,5.93,0,0,0,2,.33"/>
        </g>
      </g>
    </g>
  </g>
</svg>
