<?xml version="1.0" encoding="UTF-8"?>
<svg width="580px" height="256px" viewBox="0 0 580 256" version="1.1" xmlns="http://www.w3.org/2000/svg" xmlns:xlink="http://www.w3.org/1999/xlink">
    <!-- Generator: Sketch 48.2 (47327) - http://www.bohemiancoding.com/sketch -->
    <title>ElasticArch</title>
    <desc>Created with Sketch.</desc>
    <defs>
        <linearGradient x1="100.041171%" y1="49.9958932%" x2="-0.00635721493%" y2="49.9958932%" id="linearGradient-1">
            <stop stop-color="#00ACE0" offset="0%"></stop>
            <stop stop-color="#B36CDC" offset="100%"></stop>
        </linearGradient>
        <linearGradient x1="99.983363%" y1="49.9758403%" x2="0.0113879004%" y2="49.9758403%" id="linearGradient-2">
            <stop stop-color="#00ACE0" offset="0%"></stop>
            <stop stop-color="#B36CDC" offset="100%"></stop>
        </linearGradient>
        <linearGradient x1="100.018333%" y1="50.0361111%" x2="0.00823529412%" y2="50.0361111%" id="linearGradient-3">
            <stop stop-color="#00ACE0" offset="0%"></stop>
            <stop stop-color="#B36CDC" offset="100%"></stop>
        </linearGradient>
        <linearGradient x1="100.007669%" y1="49.9958932%" x2="-0.0399596367%" y2="49.9958932%" id="linearGradient-4">
            <stop stop-color="#00ACE0" offset="0%"></stop>
            <stop stop-color="#B36CDC" offset="100%"></stop>
        </linearGradient>
        <linearGradient x1="99.9537367%" y1="49.9758403%" x2="-0.0182384342%" y2="49.9758403%" id="linearGradient-5">
            <stop stop-color="#00ACE0" offset="0%"></stop>
            <stop stop-color="#B36CDC" offset="100%"></stop>
        </linearGradient>
        <linearGradient x1="99.9857843%" y1="50.0361111%" x2="-0.0243137255%" y2="50.0361111%" id="linearGradient-6">
            <stop stop-color="#00ACE0" offset="0%"></stop>
            <stop stop-color="#B36CDC" offset="100%"></stop>
        </linearGradient>
        <linearGradient x1="100.063774%" y1="49.9311088%" x2="0.0161453078%" y2="49.9311088%" id="linearGradient-7">
            <stop stop-color="#00ACE0" offset="0%"></stop>
            <stop stop-color="#B36CDC" offset="100%"></stop>
        </linearGradient>
        <linearGradient x1="100.003203%" y1="49.9666433%" x2="0.031227758%" y2="49.9666433%" id="linearGradient-8">
            <stop stop-color="#00ACE0" offset="0%"></stop>
            <stop stop-color="#B36CDC" offset="100%"></stop>
        </linearGradient>
        <linearGradient x1="100.040294%" y1="50.1292929%" x2="0.0301960784%" y2="50.1292929%" id="linearGradient-9">
            <stop stop-color="#00ACE0" offset="0%"></stop>
            <stop stop-color="#B36CDC" offset="100%"></stop>
        </linearGradient>
        <linearGradient x1="100.069425%" y1="49.9311088%" x2="0.0218970737%" y2="49.9311088%" id="linearGradient-10">
            <stop stop-color="#FC9C0C" offset="0%"></stop>
            <stop stop-color="#EB4971" offset="100%"></stop>
        </linearGradient>
        <linearGradient x1="100.045784%" y1="50.1292929%" x2="0.0356862745%" y2="50.1292929%" id="linearGradient-11">
            <stop stop-color="#FC9C0C" offset="0%"></stop>
            <stop stop-color="#EB4971" offset="100%"></stop>
        </linearGradient>
        <linearGradient x1="100.008274%" y1="49.9666433%" x2="0.0362989324%" y2="49.9666433%" id="linearGradient-12">
            <stop stop-color="#FC9C0C" offset="0%"></stop>
            <stop stop-color="#EB4971" offset="100%"></stop>
        </linearGradient>
        <linearGradient x1="100.064279%" y1="49.9311088%" x2="0.0166498486%" y2="49.9311088%" id="linearGradient-13">
            <stop stop-color="#00ACE0" offset="0%"></stop>
            <stop stop-color="#B36CDC" offset="100%"></stop>
        </linearGradient>
        <linearGradient x1="100.003648%" y1="49.9666433%" x2="0.0316725979%" y2="49.9666433%" id="linearGradient-14">
            <stop stop-color="#00ACE0" offset="0%"></stop>
            <stop stop-color="#B36CDC" offset="100%"></stop>
        </linearGradient>
        <linearGradient x1="100.040784%" y1="50.1292929%" x2="0.0306862745%" y2="50.1292929%" id="linearGradient-15">
            <stop stop-color="#00ACE0" offset="0%"></stop>
            <stop stop-color="#B36CDC" offset="100%"></stop>
        </linearGradient>
    </defs>
    <g id="Artboard" stroke="none" stroke-width="1" fill="none" fill-rule="evenodd" transform="translate(-70.000000, -121.000000)">
        <g id="ElasticArch" transform="translate(72.000000, 123.000000)">
            <g id="Border" stroke="#FFFFFF" stroke-linecap="round" stroke-linejoin="round" stroke-width="4">
                <path d="M169,246 L12,246" id="Shape" stroke-dasharray="11.5958,11.5958"></path>
                <polyline id="Shape" points="6 246 0 246 0 240"></polyline>
                <polyline id="Shape" stroke-dasharray="12.318,12.318" points="0 228 0 208.564007 0 12"></polyline>
                <polyline id="Shape" points="0 6 0 0 6 0"></polyline>
                <path d="M18,0 L564,0" id="Shape" stroke-dasharray="12.0067,12.0067"></path>
                <polyline id="Shape" points="570 0 576 0 576 6"></polyline>
                <polyline id="Shape" stroke-dasharray="12.318,12.318" points="576 18 576 208.440835 576 234"></polyline>
                <polyline id="Shape" points="576 240 576 246 570 246"></polyline>
                <path d="M559,246 L402,246" id="Shape" stroke-dasharray="11.5958,11.5958"></path>
            </g>
            <path d="M191.95,253.24 C187.83,253.24 184.77,250.06 184.77,246.04 L184.77,246 C184.77,242.02 187.77,238.76 192.07,238.76 C194.71,238.76 196.29,239.64 197.59,240.92 L195.63,243.18 C194.55,242.2 193.45,241.6 192.05,241.6 C189.69,241.6 187.99,243.56 187.99,245.96 L187.99,246 C187.99,248.4 189.65,250.4 192.05,250.4 C193.65,250.4 194.63,249.76 195.73,248.76 L197.69,250.74 C196.25,252.28 194.65,253.24 191.95,253.24 Z M200.15,253 L200.15,239 L203.23,239 L203.23,250.2 L210.21,250.2 L210.21,253 L200.15,253 Z M217.97,253.22 C214.21,253.22 211.91,251.12 211.91,247 L211.91,239 L214.99,239 L214.99,246.92 C214.99,249.2 216.13,250.38 218.01,250.38 C219.89,250.38 221.03,249.24 221.03,247.02 L221.03,239 L224.11,239 L224.11,246.9 C224.11,251.14 221.73,253.22 217.97,253.22 Z M232.23,253.2 C230.11,253.2 227.97,252.46 226.29,250.96 L228.11,248.78 C229.37,249.82 230.69,250.48 232.29,250.48 C233.55,250.48 234.31,249.98 234.31,249.16 L234.31,249.12 C234.31,248.34 233.83,247.94 231.49,247.34 C228.67,246.62 226.85,245.84 226.85,243.06 L226.85,243.02 C226.85,240.48 228.89,238.8 231.75,238.8 C233.79,238.8 235.53,239.44 236.95,240.58 L235.35,242.9 C234.11,242.04 232.89,241.52 231.71,241.52 C230.53,241.52 229.91,242.06 229.91,242.74 L229.91,242.78 C229.91,243.7 230.51,244 232.93,244.62 C235.77,245.36 237.37,246.38 237.37,248.82 L237.37,248.86 C237.37,251.64 235.25,253.2 232.23,253.2 Z M243.01,253 L243.01,241.84 L238.75,241.84 L238.75,239 L250.35,239 L250.35,241.84 L246.09,241.84 L246.09,253 L243.01,253 Z M252.71,253 L252.71,239 L263.27,239 L263.27,241.74 L255.77,241.74 L255.77,244.58 L262.37,244.58 L262.37,247.32 L255.77,247.32 L255.77,250.26 L263.37,250.26 L263.37,253 L252.71,253 Z M266.11,253 L266.11,239 L272.51,239 C274.29,239 275.67,239.5 276.59,240.42 C277.37,241.2 277.79,242.3 277.79,243.62 L277.79,243.66 C277.79,245.92 276.57,247.34 274.79,248 L278.21,253 L274.61,253 L271.61,248.52 L269.19,248.52 L269.19,253 L266.11,253 Z M269.19,245.8 L272.31,245.8 C273.81,245.8 274.67,245 274.67,243.82 L274.67,243.78 C274.67,242.46 273.75,241.78 272.25,241.78 L269.19,241.78 L269.19,245.8 Z M286.57,253 L286.57,239 L289.89,239 L293.57,244.92 L297.25,239 L300.57,239 L300.57,253 L297.51,253 L297.51,243.86 L293.57,249.84 L293.49,249.84 L289.59,243.92 L289.59,253 L286.57,253 Z M302.73,253 L308.73,238.9 L311.57,238.9 L317.57,253 L314.35,253 L313.07,249.86 L307.15,249.86 L305.87,253 L302.73,253 Z M308.25,247.14 L311.97,247.14 L310.11,242.6 L308.25,247.14 Z M319.73,253 L319.73,239 L322.57,239 L329.13,247.62 L329.13,239 L332.17,239 L332.17,253 L329.55,253 L322.77,244.1 L322.77,253 L319.73,253 Z M334.33,253 L340.33,238.9 L343.17,238.9 L349.17,253 L345.95,253 L344.67,249.86 L338.75,249.86 L337.47,253 L334.33,253 Z M339.85,247.14 L343.57,247.14 L341.71,242.6 L339.85,247.14 Z M357.17,253.24 C352.81,253.24 349.81,250.18 349.81,246.04 L349.81,246 C349.81,242.02 352.91,238.76 357.15,238.76 C359.67,238.76 361.19,239.44 362.65,240.68 L360.71,243.02 C359.63,242.12 358.67,241.6 357.05,241.6 C354.81,241.6 353.03,243.58 353.03,245.96 L353.03,246 C353.03,248.56 354.79,250.44 357.27,250.44 C358.39,250.44 359.39,250.16 360.17,249.6 L360.17,247.6 L357.07,247.6 L357.07,244.94 L363.15,244.94 L363.15,251.02 C361.71,252.24 359.73,253.24 357.17,253.24 Z M366.11,253 L366.11,239 L376.67,239 L376.67,241.74 L369.17,241.74 L369.17,244.58 L375.77,244.58 L375.77,247.32 L369.17,247.32 L369.17,250.26 L376.77,250.26 L376.77,253 L366.11,253 Z M379.51,253 L379.51,239 L385.91,239 C387.69,239 389.07,239.5 389.99,240.42 C390.77,241.2 391.19,242.3 391.19,243.62 L391.19,243.66 C391.19,245.92 389.97,247.34 388.19,248 L391.61,253 L388.01,253 L385.01,248.52 L382.59,248.52 L382.59,253 L379.51,253 Z M382.59,245.8 L385.71,245.8 C387.21,245.8 388.07,245 388.07,243.82 L388.07,243.78 C388.07,242.46 387.15,241.78 385.65,241.78 L382.59,241.78 L382.59,245.8 Z" id="CLUSTER-MANAGER" fill="#FFFFFF"></path>
            <g id="Group-5" transform="translate(44.000000, 50.000000)">
                <path d="M56.9,142.9 C26.3,142.9 2.2,132.7 0.8,119.1 L0.7,118.5 L0.7,25.2 L0.7,24.8 C1.1,10.7 25.2,0.1 56.9,0.1 C88.9,0.1 113.1,10.9 113.1,25.1 C113.1,25.5 113.1,25.8 113,26.1 L113,119 L113,119.1 C111.6,132.6 87.5,142.9 56.9,142.9 Z" id="Shape" fill="#FFFFFF" fill-rule="nonzero"></path>
                <g id="Group">
                    <path d="M7.3,38.9 L7.3,117.8 C7.3,126.5 27.7,136.3 56.9,136.3 C85.2,136.3 105.2,127.2 106.4,118.7 L106.4,39 C96.5,46.7 78.4,51.6 56.9,51.6 C35.3,51.5 17.1,46.6 7.3,38.9 Z" id="Shape" fill="url(#linearGradient-1)" fill-rule="nonzero"></path>
                    <path d="M56.9,142.9 C26.3,142.9 2.2,132.7 0.8,119.1 L0.7,118.5 L0.7,25.2 L0.7,24.8 C1.1,10.7 25.2,0.1 56.9,0.1 C88.9,0.1 113.1,10.9 113.1,25.1 C113.1,25.5 113.1,25.8 113,26.1 L113,119 L113,119.1 C111.6,132.6 87.5,142.9 56.9,142.9 Z M56.9,5.3 C29.3,5.3 5.9,14.4 5.9,25.1 C5.9,35.9 29.3,44.9 56.9,44.9 C83.5,44.9 106.3,36.5 107.8,26.1 L107.9,26.1 L107.8,24.6 C107.3,15.3 87.6,5.3 56.9,5.3 Z" id="Shape" fill="url(#linearGradient-2)" fill-rule="nonzero" opacity="0.8"></path>
                    <path d="M41.7309,92.1161 L40.7589,93.1781 L39.0849,91.6841 C38.0229,92.5121 36.6729,93.0161 35.1249,93.0161 C31.2909,93.0161 28.7169,90.0101 28.7169,86.5361 L28.7169,86.5001 C28.7169,83.0261 31.3269,79.9841 35.1609,79.9841 C38.9949,79.9841 41.5689,82.9901 41.5689,86.4641 L41.5689,86.5001 C41.5689,88.0661 41.0109,89.5601 40.0749,90.7121 L41.7309,92.1161 Z M35.1609,91.7021 C36.2769,91.7021 37.2849,91.3601 38.0769,90.7661 L35.7189,88.7501 L36.6729,87.6881 L39.0309,89.8301 C39.7149,88.9301 40.0929,87.7961 40.0929,86.5361 L40.0929,86.5001 C40.0929,83.6381 38.0049,81.2981 35.1249,81.2981 C32.2449,81.2981 30.1929,83.6021 30.1929,86.4641 L30.1929,86.5001 C30.1929,89.3621 32.2809,91.7021 35.1609,91.7021 Z M47.7609,92.9981 C45.5109,92.9981 44.1969,91.4861 44.1969,89.2721 L44.1969,83.4941 L45.5829,83.4941 L45.5829,88.9301 C45.5829,90.6581 46.5189,91.7381 48.1569,91.7381 C49.7409,91.7381 50.9469,90.5681 50.9469,88.8221 L50.9469,83.4941 L52.3149,83.4941 L52.3149,92.8001 L50.9469,92.8001 L50.9469,91.1801 C50.3169,92.1881 49.3629,92.9981 47.7609,92.9981 Z M59.4969,93.0161 C56.9409,93.0161 54.8529,91.0541 54.8529,88.1741 L54.8529,88.1381 C54.8529,85.4561 56.7429,83.2961 59.3169,83.2961 C62.0709,83.2961 63.6549,85.4921 63.6549,88.2101 C63.6549,88.3901 63.6549,88.4981 63.6369,88.6601 L56.2569,88.6601 C56.4549,90.6761 57.8769,91.8101 59.5329,91.8101 C60.8109,91.8101 61.7109,91.2881 62.4669,90.4961 L63.3309,91.2701 C62.3949,92.3141 61.2609,93.0161 59.4969,93.0161 Z M56.2569,87.6341 L62.2509,87.6341 C62.1069,85.9421 61.1349,84.4661 59.2809,84.4661 C57.6609,84.4661 56.4369,85.8161 56.2569,87.6341 Z M66.0849,92.8001 L66.0849,83.4941 L67.4709,83.4941 L67.4709,85.9241 C68.1549,84.3761 69.5049,83.2601 71.2689,83.3321 L71.2689,84.8261 L71.1609,84.8261 C69.1269,84.8261 67.4709,86.2841 67.4709,89.0921 L67.4709,92.8001 L66.0849,92.8001 Z M77.3529,91.2521 L80.3409,83.4941 L81.8169,83.4941 L77.9109,93.1061 C77.1189,95.0321 76.2189,95.7341 74.8149,95.7341 C74.0409,95.7341 73.4649,95.5721 72.8349,95.2661 L73.3029,94.1681 C73.7529,94.4021 74.1669,94.5101 74.7609,94.5101 C75.5889,94.5101 76.1109,94.0781 76.6689,92.7641 L72.4389,83.4941 L73.9689,83.4941 L77.3529,91.2521 Z" id="Query" fill="#FFFFFF"></path>
                    <path d="M56.9,5.3 C29.3,5.3 5.9,14.4 5.9,25.1 C5.9,35.9 29.3,44.9 56.9,44.9 C83.5,44.9 106.3,36.5 107.8,26.1 L107.9,26.1 L107.8,24.6 C107.3,15.3 87.6,5.3 56.9,5.3 Z" id="Shape" fill="url(#linearGradient-3)" fill-rule="nonzero"></path>
                </g>
                <path d="M153.4,142.9 C122.8,142.9 98.7,132.7 97.3,119.1 L97.2,118.5 L97.2,25.2 L97.2,24.8 C97.6,10.7 121.7,0.1 153.4,0.1 C185.4,0.1 209.6,10.9 209.6,25.1 C209.6,25.5 209.6,25.8 209.5,26.1 L209.5,119 L209.5,119.1 C208.1,132.6 183.9,142.9 153.4,142.9 Z" id="Shape" fill="#FFFFFF" fill-rule="nonzero"></path>
                <g id="Group-4" transform="translate(97.000000, 0.000000)">
                    <g id="Group" fill-rule="nonzero">
                        <path d="M6.8,38.9 L6.8,117.8 C6.8,126.5 27.2,136.3 56.4,136.3 C84.7,136.3 104.7,127.2 105.9,118.7 L105.9,39 C96,46.7 77.9,51.6 56.4,51.6 C34.7,51.5 16.6,46.6 6.8,38.9 Z" id="Shape" fill="url(#linearGradient-4)"></path>
                        <path d="M56.4,142.9 C25.8,142.9 1.7,132.7 0.3,119.1 L0.2,118.5 L0.2,25.2 L0.2,24.8 C0.6,10.7 24.7,0.1 56.4,0.1 C88.4,0.1 112.6,10.9 112.6,25.1 C112.6,25.5 112.6,25.8 112.5,26.1 L112.5,119 L112.5,119.1 C111.1,132.6 86.9,142.9 56.4,142.9 Z M56.4,5.3 C28.8,5.3 5.4,14.4 5.4,25.1 C5.4,35.9 28.8,44.9 56.4,44.9 C83,44.9 105.8,36.5 107.3,26.1 L107.4,26.1 L107.3,24.6 C106.7,15.3 87.1,5.3 56.4,5.3 Z" id="Shape" fill="url(#linearGradient-5)" opacity="0.8"></path>
                        <path d="M56.4,5.3 C28.8,5.3 5.4,14.4 5.4,25.1 C5.4,35.9 28.8,44.9 56.4,44.9 C83,44.9 105.8,36.5 107.3,26.1 L107.4,26.1 L107.3,24.6 C106.7,15.3 87.1,5.3 56.4,5.3 Z" id="Shape" fill="url(#linearGradient-6)"></path>
                    </g>
                    <g id="Group" transform="translate(27.018300, 72.197600)" fill="#FFFFFF">
                        <path d="M6.632,14.216 C2.672,14.216 0.224,11.336 0.224,7.736 L0.224,7.7 C0.224,4.244 2.762,1.184 6.542,1.184 C8.666,1.184 9.98,1.796 11.24,2.858 L10.322,3.938 C9.35,3.092 8.27,2.498 6.488,2.498 C3.698,2.498 1.7,4.856 1.7,7.664 L1.7,7.7 C1.7,10.706 3.626,12.938 6.686,12.938 C8.126,12.938 9.458,12.38 10.322,11.678 L10.322,8.546 L6.488,8.546 L6.488,7.268 L11.69,7.268 L11.69,12.29 C10.52,13.334 8.756,14.216 6.632,14.216 Z M14.786,14 L14.786,0.86 L16.172,0.86 L16.172,14 L14.786,14 Z M23.642,14.216 C20.852,14.216 18.818,12.02 18.818,9.392 L18.818,9.356 C18.818,6.728 20.87,4.496 23.678,4.496 C26.468,4.496 28.52,6.692 28.52,9.32 L28.52,9.356 C28.52,11.984 26.45,14.216 23.642,14.216 Z M23.678,12.974 C25.694,12.974 27.098,11.354 27.098,9.392 L27.098,9.356 C27.098,7.358 25.604,5.72 23.642,5.72 C21.626,5.72 20.24,7.358 20.24,9.32 L20.24,9.356 C20.24,11.354 21.716,12.974 23.678,12.974 Z M35.972,14.198 C34.244,14.198 33.128,13.262 32.408,12.218 L32.408,14 L31.022,14 L31.022,0.86 L32.408,0.86 L32.408,6.566 C33.164,5.45 34.262,4.496 35.972,4.496 C38.204,4.496 40.418,6.26 40.418,9.32 L40.418,9.356 C40.418,12.398 38.222,14.198 35.972,14.198 Z M35.72,12.956 C37.52,12.956 38.996,11.624 38.996,9.374 L38.996,9.338 C38.996,7.142 37.484,5.738 35.72,5.738 C33.992,5.738 32.354,7.196 32.354,9.32 L32.354,9.356 C32.354,11.516 33.992,12.956 35.72,12.956 Z M45.746,14.198 C44.018,14.198 42.272,13.208 42.272,11.3 L42.272,11.264 C42.272,9.302 43.892,8.258 46.25,8.258 C47.438,8.258 48.284,8.42 49.112,8.654 L49.112,8.33 C49.112,6.656 48.086,5.792 46.34,5.792 C45.242,5.792 44.378,6.08 43.514,6.476 L43.1,5.342 C44.126,4.874 45.134,4.568 46.484,4.568 C47.798,4.568 48.806,4.91 49.49,5.594 C50.12,6.224 50.444,7.124 50.444,8.312 L50.444,14 L49.112,14 L49.112,12.596 C48.464,13.442 47.384,14.198 45.746,14.198 Z M46.016,13.1 C47.726,13.1 49.13,12.056 49.13,10.58 L49.13,9.68 C48.446,9.482 47.528,9.284 46.394,9.284 C44.648,9.284 43.676,10.04 43.676,11.21 L43.676,11.246 C43.676,12.416 44.756,13.1 46.016,13.1 Z M53.522,14 L53.522,0.86 L54.908,0.86 L54.908,14 L53.522,14 Z" id="Global"></path>
                        <path d="M5.24534,33.3 L5.24534,20.7 L6.66734,20.7 L6.66734,33.3 L5.24534,33.3 Z M10.12334,33.3 L10.12334,23.994 L11.50934,23.994 L11.50934,25.614 C12.12134,24.606 13.09334,23.796 14.69534,23.796 C16.94534,23.796 18.25934,25.308 18.25934,27.522 L18.25934,33.3 L16.87334,33.3 L16.87334,27.864 C16.87334,26.136 15.93734,25.056 14.29934,25.056 C12.69734,25.056 11.50934,26.226 11.50934,27.972 L11.50934,33.3 L10.12334,33.3 Z M25.11734,33.498 C22.88534,33.498 20.67134,31.734 20.67134,28.674 L20.67134,28.638 C20.67134,25.596 22.88534,23.796 25.11734,23.796 C26.84534,23.796 27.96134,24.732 28.68134,25.776 L28.68134,20.16 L30.06734,20.16 L30.06734,33.3 L28.68134,33.3 L28.68134,31.428 C27.92534,32.544 26.82734,33.498 25.11734,33.498 Z M25.36934,32.256 C27.09734,32.256 28.73534,30.798 28.73534,28.656 L28.73534,28.62 C28.73534,26.478 27.09734,25.038 25.36934,25.038 C23.56934,25.038 22.09334,26.37 22.09334,28.62 L22.09334,28.656 C22.09334,30.852 23.60534,32.256 25.36934,32.256 Z M37.23134,33.516 C34.67534,33.516 32.58734,31.554 32.58734,28.674 L32.58734,28.638 C32.58734,25.956 34.47734,23.796 37.05134,23.796 C39.80534,23.796 41.38934,25.992 41.38934,28.71 C41.38934,28.89 41.38934,28.998 41.37134,29.16 L33.99134,29.16 C34.18934,31.176 35.61134,32.31 37.26734,32.31 C38.54534,32.31 39.44534,31.788 40.20134,30.996 L41.06534,31.77 C40.12934,32.814 38.99534,33.516 37.23134,33.516 Z M33.99134,28.134 L39.98534,28.134 C39.84134,26.442 38.86934,24.966 37.01534,24.966 C35.39534,24.966 34.17134,26.316 33.99134,28.134 Z M44.16134,23.994 L46.89734,27.63 L49.66934,23.994 L51.21734,23.994 L47.68934,28.548 L51.36134,33.3 L49.75934,33.3 L46.87934,29.466 L43.98134,33.3 L42.43334,33.3 L46.06934,28.566 L42.57734,23.994 L44.16134,23.994 Z" id="Index"></path>
                    </g>
                </g>
                <path d="M248,143.9 C217.4,143.9 193.3,133.7 191.9,120.1 L191.8,119.5 L191.8,26.3 L191.8,25.9 C192.2,11.8 216.3,1.2 248,1.2 C280,1.2 304.2,12 304.2,26.2 C304.2,26.6 304.2,26.9 304.1,27.2 L304.1,120.1 L304.1,120.2 C302.7,133.7 278.6,143.9 248,143.9 Z" id="Shape" fill="#FFFFFF" fill-rule="nonzero"></path>
                <g id="Group" transform="translate(191.000000, 1.000000)">
                    <g fill-rule="nonzero" id="Shape">
                        <path d="M7.4,39 L7.4,117.9 C7.4,126.6 27.8,136.4 57,136.4 C85.3,136.4 105.3,127.3 106.5,118.8 L106.5,39 C96.6,46.7 78.5,51.6 57,51.6 C35.4,51.6 17.3,46.6 7.4,39 Z" fill="url(#linearGradient-7)"></path>
                        <path d="M57,142.9 C26.4,142.9 2.3,132.7 0.9,119.1 L0.8,118.5 L0.8,25.3 L0.8,24.9 C1.2,10.8 25.3,0.2 57,0.2 C89,0.2 113.2,11 113.2,25.2 C113.2,25.6 113.2,25.9 113.1,26.2 L113.1,119.1 L113.1,119.2 C111.7,132.7 87.6,142.9 57,142.9 Z M57,5.3 C29.4,5.3 6,14.4 6,25.1 C6,35.9 29.4,44.9 57,44.9 C83.6,44.9 106.4,36.5 107.9,26.1 L108,26.1 L107.9,24.6 C107.4,15.4 87.7,5.3 57,5.3 Z" fill="url(#linearGradient-8)" opacity="0.8"></path>
                        <path d="M57,5.3 C29.4,5.3 6,14.4 6,25.1 C6,35.9 29.4,44.9 57,44.9 C83.6,44.9 106.4,36.5 107.9,26.1 L108,26.1 L107.9,24.6 C107.4,15.4 87.7,5.3 57,5.3 Z" fill="url(#linearGradient-9)"></path>
                    </g>
                    <path d="M35.6165,94.5716 L35.6165,81.9716 L39.9905,81.9716 C43.9505,81.9716 46.6865,84.6896 46.6865,88.2356 L46.6865,88.2716 C46.6865,91.8176 43.9505,94.5716 39.9905,94.5716 L35.6165,94.5716 Z M39.9905,83.2856 L37.0385,83.2856 L37.0385,93.2576 L39.9905,93.2576 C43.1765,93.2576 45.2105,91.0976 45.2105,88.3076 L45.2105,88.2716 C45.2105,85.4816 43.1765,83.2856 39.9905,83.2856 Z M52.2305,94.7696 C50.5025,94.7696 48.7565,93.7796 48.7565,91.8716 L48.7565,91.8356 C48.7565,89.8736 50.3765,88.8296 52.7345,88.8296 C53.9225,88.8296 54.7685,88.9916 55.5965,89.2256 L55.5965,88.9016 C55.5965,87.2276 54.5705,86.3636 52.8245,86.3636 C51.7265,86.3636 50.8625,86.6516 49.9985,87.0476 L49.5845,85.9136 C50.6105,85.4456 51.6185,85.1396 52.9685,85.1396 C54.2825,85.1396 55.2905,85.4816 55.9745,86.1656 C56.6045,86.7956 56.9285,87.6956 56.9285,88.8836 L56.9285,94.5716 L55.5965,94.5716 L55.5965,93.1676 C54.9485,94.0136 53.8685,94.7696 52.2305,94.7696 Z M52.5005,93.6716 C54.2105,93.6716 55.6145,92.6276 55.6145,91.1516 L55.6145,90.2516 C54.9305,90.0536 54.0125,89.8556 52.8785,89.8556 C51.1325,89.8556 50.1605,90.6116 50.1605,91.7816 L50.1605,91.8176 C50.1605,92.9876 51.2405,93.6716 52.5005,93.6716 Z M62.9045,94.7336 C61.4105,94.7336 60.2765,93.9956 60.2765,92.1056 L60.2765,86.4896 L58.9805,86.4896 L58.9805,85.2656 L60.2765,85.2656 L60.2765,82.4576 L61.6625,82.4576 L61.6625,85.2656 L64.6145,85.2656 L64.6145,86.4896 L61.6625,86.4896 L61.6625,91.9256 C61.6625,93.0596 62.2925,93.4736 63.2285,93.4736 C63.6965,93.4736 64.0925,93.3836 64.5785,93.1496 L64.5785,94.3376 C64.0925,94.5896 63.5705,94.7336 62.9045,94.7336 Z M69.8345,94.7696 C68.1065,94.7696 66.3605,93.7796 66.3605,91.8716 L66.3605,91.8356 C66.3605,89.8736 67.9805,88.8296 70.3385,88.8296 C71.5265,88.8296 72.3725,88.9916 73.2005,89.2256 L73.2005,88.9016 C73.2005,87.2276 72.1745,86.3636 70.4285,86.3636 C69.3305,86.3636 68.4665,86.6516 67.6025,87.0476 L67.1885,85.9136 C68.2145,85.4456 69.2225,85.1396 70.5725,85.1396 C71.8865,85.1396 72.8945,85.4816 73.5785,86.1656 C74.2085,86.7956 74.5325,87.6956 74.5325,88.8836 L74.5325,94.5716 L73.2005,94.5716 L73.2005,93.1676 C72.5525,94.0136 71.4725,94.7696 69.8345,94.7696 Z M70.1045,93.6716 C71.8145,93.6716 73.2185,92.6276 73.2185,91.1516 L73.2185,90.2516 C72.5345,90.0536 71.6165,89.8556 70.4825,89.8556 C68.7365,89.8556 67.7645,90.6116 67.7645,91.7816 L67.7645,91.8176 C67.7645,92.9876 68.8445,93.6716 70.1045,93.6716 Z" id="Data" fill="#FFFFFF"></path>
                </g>
                <path d="M341.1,143.9 C310.5,143.9 286.4,133.7 285,120.1 L284.9,119.5 L284.9,26.3 L284.9,25.9 C285.3,11.8 309.4,1.2 341.1,1.2 C373.1,1.2 397.3,12 397.3,26.2 C397.3,26.6 397.3,26.9 397.2,27.2 L397.2,120.1 L397.2,120.2 C395.8,133.7 371.7,143.9 341.1,143.9 Z" id="Shape" fill="#FFFFFF" fill-rule="nonzero"></path>
                <path d="M291.5,40 L291.5,118.9 C291.5,127.6 311.9,137.4 341.1,137.4 C369.4,137.4 389.4,128.3 390.6,119.8 L390.6,40 C380.7,47.7 362.6,52.6 341.1,52.6 C319.5,52.6 301.4,47.6 291.5,40 Z" id="Shape" fill="url(#linearGradient-10)" fill-rule="nonzero"></path>
                <g id="Group-3" transform="translate(284.000000, 1.000000)">
                    <path d="M57.1,5.3 C29.5,5.3 6.1,14.4 6.1,25.1 C6.1,35.9 29.5,44.9 57.1,44.9 C83.7,44.9 106.5,36.5 108,26.1 L108.1,26.1 L108,24.6 C107.5,15.4 87.8,5.3 57.1,5.3 Z" id="Shape" fill="url(#linearGradient-11)" fill-rule="nonzero"></path>
                    <path d="M57.1,142.9 C26.5,142.9 2.4,132.7 1,119.1 L0.9,118.5 L0.9,25.3 L0.9,24.9 C1.3,10.8 25.4,0.2 57.1,0.2 C89.1,0.2 113.3,11 113.3,25.2 C113.3,25.6 113.3,25.9 113.2,26.2 L113.2,119.1 L113.2,119.2 C111.8,132.7 87.7,142.9 57.1,142.9 Z M57.1,5.3 C29.5,5.3 6.1,14.4 6.1,25.1 C6.1,35.9 29.5,44.9 57.1,44.9 C83.7,44.9 106.5,36.5 108,26.1 L108.1,26.1 L108,24.6 C107.5,15.4 87.8,5.3 57.1,5.3 Z" id="Shape" fill="url(#linearGradient-12)" fill-rule="nonzero" opacity="0.8"></path>
                    <path d="M40.4731,83.1976 L40.4731,70.5976 L49.8511,70.5976 L49.8511,72.6136 L42.6871,72.6136 L42.6871,76.0516 L49.0411,76.0516 L49.0411,78.0676 L42.6871,78.0676 L42.6871,83.1976 L40.4731,83.1976 Z M55.3051,83.3956 C53.1631,83.3956 51.9211,81.9556 51.9211,79.7416 L51.9211,73.6936 L54.0991,73.6936 L54.0991,79.0936 C54.0991,80.5696 54.8371,81.3976 56.1331,81.3976 C57.3931,81.3976 58.2751,80.5336 58.2751,79.0576 L58.2751,73.6936 L60.4711,73.6936 L60.4711,83.1976 L58.2751,83.1976 L58.2751,81.7216 C57.6631,82.6216 56.7811,83.3956 55.3051,83.3956 Z M63.2971,83.1976 L63.2971,70.0576 L65.4931,70.0576 L65.4931,83.1976 L63.2971,83.1976 Z M68.4451,83.1976 L68.4451,70.0576 L70.6411,70.0576 L70.6411,83.1976 L68.4451,83.1976 Z" id="Full" fill="#FFFFFF"></path>
                    <g id="Group-2" transform="translate(36.000000, 89.000000)" fill="#FFFFFF">
                        <polygon id="T" points="4.79154 13.4976 4.79154 2.9496 0.77754 2.9496 0.77754 0.8976 11.01954 0.8976 11.01954 2.9496 7.00554 2.9496 7.00554 13.4976"></polygon>
                        <path d="M16.55762,13.7136 C13.80362,13.7136 11.67962,11.7156 11.67962,8.7816 L11.67962,8.7456 C11.67962,6.0276 13.60562,3.7956 16.32362,3.7956 C19.34762,3.7956 20.87762,6.1716 20.87762,8.9076 C20.87762,9.1056 20.85962,9.3036 20.84162,9.5196 L13.85762,9.5196 C14.09162,11.0676 15.18962,11.9316 16.59362,11.9316 C17.65562,11.9316 18.41162,11.5356 19.16762,10.7976 L20.44562,11.9316 C19.54562,13.0116 18.30362,13.7136 16.55762,13.7136 Z M13.83962,8.0796 L18.71762,8.0796 C18.57362,6.6756 17.74562,5.5776 16.30562,5.5776 C14.97362,5.5776 14.03762,6.6036 13.83962,8.0796 Z" id="e"></path>
                        <path d="M24.40916,3.9936 L26.58716,7.1796 L28.80116,3.9936 L31.12316,3.9936 L27.77516,8.6376 L31.26716,13.4976 L28.89116,13.4976 L26.55116,10.1136 L24.22916,13.4976 L21.90716,13.4976 L25.38116,8.6556 L22.03316,3.9936 L24.40916,3.9936 Z M36.36116,13.6596 C34.75916,13.6596 33.62516,12.9576 33.62516,10.8696 L33.62516,5.8656 L32.41916,5.8656 L32.41916,3.9936 L33.62516,3.9936 L33.62516,1.3836 L35.80316,1.3836 L35.80316,3.9936 L38.35916,3.9936 L38.35916,5.8656 L35.80316,5.8656 L35.80316,10.5276 C35.80316,11.3736 36.23516,11.7156 36.97316,11.7156 C37.45916,11.7156 37.89116,11.6076 38.32316,11.3916 L38.32316,13.1736 C37.78316,13.4796 37.18916,13.6596 36.36116,13.6596 Z" id="xt"></path>
                    </g>
                </g>
                <path d="M433.1,143.9 C402.5,143.9 378.4,133.7 377,120.1 L376.9,119.5 L376.9,26.3 L376.9,25.9 C377.3,11.8 401.4,1.2 433.1,1.2 C465.1,1.2 489.3,12 489.3,26.2 C489.3,26.6 489.3,26.9 489.2,27.2 L489.2,120.1 L489.2,120.2 C487.8,133.7 463.7,143.9 433.1,143.9 Z" id="Shape" fill="#FFFFFF" fill-rule="nonzero"></path>
                <g id="Group" transform="translate(376.000000, 1.000000)">
                    <g fill-rule="nonzero" id="Shape">
                        <path d="M7.5,39 L7.5,117.9 C7.5,126.6 27.9,136.4 57.1,136.4 C85.4,136.4 105.4,127.3 106.6,118.8 L106.6,39 C96.7,46.7 78.6,51.6 57.1,51.6 C35.5,51.6 17.4,46.6 7.5,39 Z" fill="url(#linearGradient-13)"></path>
                        <path d="M57.1,142.9 C26.5,142.9 2.4,132.7 1,119.1 L0.9,118.5 L0.9,25.3 L0.9,24.9 C1.3,10.8 25.4,0.2 57.1,0.2 C89.1,0.2 113.3,11 113.3,25.2 C113.3,25.6 113.3,25.9 113.2,26.2 L113.2,119.1 L113.2,119.2 C111.8,132.7 87.7,142.9 57.1,142.9 Z M57.1,5.3 C29.5,5.3 6.1,14.4 6.1,25.1 C6.1,35.9 29.5,44.9 57.1,44.9 C83.7,44.9 106.5,36.5 108,26.1 L108.1,26.1 L108,24.6 C107.5,15.4 87.8,5.3 57.1,5.3 Z" fill="url(#linearGradient-14)" opacity="0.8"></path>
                        <path d="M57.1,5.3 C29.5,5.3 6.1,14.4 6.1,25.1 C6.1,35.9 29.5,44.9 57.1,44.9 C83.7,44.9 106.5,36.5 108,26.1 L108.1,26.1 L108,24.6 C107.5,15.4 87.8,5.3 57.1,5.3 Z" fill="url(#linearGradient-15)"></path>
                    </g>
                    <path d="M17.3986,92.0374 L23.1406,79.3474 L24.4726,79.3474 L30.2146,92.0374 L28.6846,92.0374 L27.2086,88.7074 L20.3506,88.7074 L18.8566,92.0374 L17.3986,92.0374 Z M20.9086,87.4294 L26.6506,87.4294 L23.7886,81.0034 L20.9086,87.4294 Z M32.4646,92.0374 L32.4646,82.7314 L33.8506,82.7314 L33.8506,84.3514 C34.4626,83.3434 35.4346,82.5334 37.0366,82.5334 C39.2866,82.5334 40.6006,84.0454 40.6006,86.2594 L40.6006,92.0374 L39.2146,92.0374 L39.2146,86.6014 C39.2146,84.8734 38.2786,83.7934 36.6406,83.7934 C35.0386,83.7934 33.8506,84.9634 33.8506,86.7094 L33.8506,92.0374 L32.4646,92.0374 Z M46.3246,92.2354 C44.5966,92.2354 42.8506,91.2454 42.8506,89.3374 L42.8506,89.3014 C42.8506,87.3394 44.4706,86.2954 46.8286,86.2954 C48.0166,86.2954 48.8626,86.4574 49.6906,86.6914 L49.6906,86.3674 C49.6906,84.6934 48.6646,83.8294 46.9186,83.8294 C45.8206,83.8294 44.9566,84.1174 44.0926,84.5134 L43.6786,83.3794 C44.7046,82.9114 45.7126,82.6054 47.0626,82.6054 C48.3766,82.6054 49.3846,82.9474 50.0686,83.6314 C50.6986,84.2614 51.0226,85.1614 51.0226,86.3494 L51.0226,92.0374 L49.6906,92.0374 L49.6906,90.6334 C49.0426,91.4794 47.9626,92.2354 46.3246,92.2354 Z M46.5946,91.1374 C48.3046,91.1374 49.7086,90.0934 49.7086,88.6174 L49.7086,87.7174 C49.0246,87.5194 48.1066,87.3214 46.9726,87.3214 C45.2266,87.3214 44.2546,88.0774 44.2546,89.2474 L44.2546,89.2834 C44.2546,90.4534 45.3346,91.1374 46.5946,91.1374 Z M54.1006,92.0374 L54.1006,78.8974 L55.4866,78.8974 L55.4866,92.0374 L54.1006,92.0374 Z M62.6866,90.4894 L65.6746,82.7314 L67.1506,82.7314 L63.2446,92.3434 C62.4526,94.2694 61.5526,94.9714 60.1486,94.9714 C59.3746,94.9714 58.7986,94.8094 58.1686,94.5034 L58.6366,93.4054 C59.0866,93.6394 59.5006,93.7474 60.0946,93.7474 C60.9226,93.7474 61.4446,93.3154 62.0026,92.0014 L57.7726,82.7314 L59.3026,82.7314 L62.6866,90.4894 Z M72.4606,92.1994 C70.9666,92.1994 69.8326,91.4614 69.8326,89.5714 L69.8326,83.9554 L68.5366,83.9554 L68.5366,82.7314 L69.8326,82.7314 L69.8326,79.9234 L71.2186,79.9234 L71.2186,82.7314 L74.1706,82.7314 L74.1706,83.9554 L71.2186,83.9554 L71.2186,89.3914 C71.2186,90.5254 71.8486,90.9394 72.7846,90.9394 C73.2526,90.9394 73.6486,90.8494 74.1346,90.6154 L74.1346,91.8034 C73.6486,92.0554 73.1266,92.1994 72.4606,92.1994 Z M76.6546,80.6974 L76.6546,79.1674 L78.2386,79.1674 L78.2386,80.6974 L76.6546,80.6974 Z M76.7446,92.0374 L76.7446,82.7314 L78.1306,82.7314 L78.1306,92.0374 L76.7446,92.0374 Z M85.5466,92.2534 C82.8286,92.2534 80.7766,90.0394 80.7766,87.4294 L80.7766,87.3934 C80.7766,84.7654 82.8286,82.5334 85.5466,82.5334 C87.3106,82.5334 88.4086,83.2714 89.2726,84.1894 L88.3546,85.1614 C87.6166,84.3874 86.7886,83.7574 85.5286,83.7574 C83.6386,83.7574 82.1986,85.3594 82.1986,87.3574 L82.1986,87.3934 C82.1986,89.4094 83.6746,91.0114 85.6186,91.0114 C86.8066,91.0114 87.7246,90.4174 88.4626,89.6254 L89.3446,90.4534 C88.4086,91.4974 87.2926,92.2534 85.5466,92.2534 Z M94.7086,92.2174 C93.3766,92.2174 91.9006,91.6954 90.8566,90.8494 L91.5586,89.8594 C92.5666,90.6154 93.6826,91.0474 94.7806,91.0474 C95.8966,91.0474 96.7066,90.4714 96.7066,89.5714 L96.7066,89.5354 C96.7066,88.5994 95.6086,88.2394 94.3846,87.8974 C92.9266,87.4834 91.3066,86.9794 91.3066,85.2694 L91.3066,85.2334 C91.3066,83.6314 92.6386,82.5694 94.4746,82.5694 C95.6086,82.5694 96.8686,82.9654 97.8226,83.5954 L97.1926,84.6394 C96.3286,84.0814 95.3386,83.7394 94.4386,83.7394 C93.3406,83.7394 92.6386,84.3154 92.6386,85.0894 L92.6386,85.1254 C92.6386,86.0074 93.7906,86.3494 95.0326,86.7274 C96.4726,87.1594 98.0206,87.7174 98.0206,89.3914 L98.0206,89.4274 C98.0206,91.1914 96.5626,92.2174 94.7086,92.2174 Z" id="Analytics" fill="#FFFFFF"></path>
                </g>
            </g>
        </g>
    </g>
</svg>