<svg id="Layer_1" data-name="Layer 1" xmlns="http://www.w3.org/2000/svg" xmlns:xlink="http://www.w3.org/1999/xlink" viewBox="0 0 241 110"><defs><style>.cls-1{fill:none;}.cls-2{clip-path:url(#clip-path);}.cls-3{isolation:isolate;}.cls-4{fill:#fff;}</style><clipPath id="clip-path"><rect class="cls-1" x="11.72" y="5.35" width="217.55" height="99.3"/></clipPath></defs><title>Financial Services</title><g class="cls-2"><g id="Financial_Services_3" data-name="Financial Services 3"><g id="Financial_Services" data-name="Financial Services" class="cls-3"><g class="cls-3"><path class="cls-4" d="M54.48,13.92H70.37v2.31H57v7.9H69v2.28H57V36H54.48Z"/><path class="cls-4" d="M74.85,13.45h2.79v2.69H74.85ZM75,19.71h2.43V36H75Z"/><path class="cls-4" d="M83.1,19.71h2.43v2.84a6.19,6.19,0,0,1,5.6-3.19c4,0,6.25,2.65,6.25,6.54V36H95V26.5c0-3-1.64-4.93-4.52-4.93a4.81,4.81,0,0,0-4.9,5.12V36H83.1Z"/><path class="cls-4" d="M101.33,31.3v-.06c0-3.44,2.84-5.28,7-5.28a17.41,17.41,0,0,1,5,.7v-.57c0-2.94-1.8-4.46-4.87-4.46a11.45,11.45,0,0,0-5,1.2l-.73-2a13.5,13.5,0,0,1,5.94-1.35,7.17,7.17,0,0,1,5.28,1.8,6.41,6.41,0,0,1,1.68,4.77V36h-2.34V33.58a7.19,7.19,0,0,1-5.91,2.81C104.4,36.39,101.33,34.65,101.33,31.3Zm12-1.26V28.46a16.91,16.91,0,0,0-4.8-.7c-3.07,0-4.78,1.33-4.78,3.38v.07c0,2,1.9,3.25,4.11,3.25C110.91,34.46,113.37,32.63,113.37,30Z"/><path class="cls-4" d="M120.86,19.71h2.43v2.84a6.18,6.18,0,0,1,5.59-3.19c4,0,6.26,2.65,6.26,6.54V36h-2.43V26.5c0-3-1.65-4.93-4.52-4.93a4.8,4.8,0,0,0-4.9,5.12V36h-2.43Z"/><path class="cls-4" d="M139.31,28v-.06a8.5,8.5,0,0,1,14.91-5.62L152.61,24a6.6,6.6,0,0,0-5-2.46,6,6,0,0,0-5.85,6.32v.06a6.1,6.1,0,0,0,6,6.35,6.75,6.75,0,0,0,5-2.43l1.55,1.45a8.45,8.45,0,0,1-15-5.31Z"/><path class="cls-4" d="M158.42,13.45h2.78v2.69h-2.78Zm.16,6.26H161V36h-2.43Z"/><path class="cls-4" d="M165.44,31.3v-.06c0-3.44,2.84-5.28,7-5.28a17.34,17.34,0,0,1,5,.7v-.57c0-2.94-1.8-4.46-4.86-4.46a11.41,11.41,0,0,0-5,1.2l-.73-2a13.5,13.5,0,0,1,5.94-1.35,7.17,7.17,0,0,1,5.28,1.8,6.45,6.45,0,0,1,1.67,4.77V36h-2.34V33.58a7.16,7.16,0,0,1-5.91,2.81C168.5,36.39,165.44,34.65,165.44,31.3Zm12-1.26V28.46a17,17,0,0,0-4.81-.7c-3.06,0-4.77,1.33-4.77,3.38v.07c0,2,1.9,3.25,4.11,3.25C175,34.46,177.48,32.63,177.48,30Z"/><path class="cls-4" d="M185.18,13h2.44V36h-2.44Z"/></g><g class="cls-3"><path class="cls-4" d="M57.34,70.73l1.54-1.83A10.53,10.53,0,0,0,66.47,72c3,0,4.93-1.58,4.93-3.76v-.06c0-2.06-1.11-3.23-5.75-4.21-5.09-1.1-7.43-2.75-7.43-6.38v-.06c0-3.48,3.06-6,7.27-6a11.54,11.54,0,0,1,7.77,2.72l-1.45,1.93a9.71,9.71,0,0,0-6.39-2.4c-2.87,0-4.7,1.58-4.7,3.57v.06c0,2.09,1.13,3.25,6,4.3s7.2,2.87,7.2,6.25V68c0,3.79-3.15,6.25-7.55,6.25A12.93,12.93,0,0,1,57.34,70.73Z"/><path class="cls-4" d="M77.59,65.84v-.07c0-4.7,3.32-8.5,7.83-8.5,4.84,0,7.62,3.86,7.62,8.63a6.7,6.7,0,0,1,0,.79h-13a5.71,5.71,0,0,0,5.75,5.53A6.74,6.74,0,0,0,91,69.91l1.52,1.36a8.43,8.43,0,0,1-6.73,3.07A8.12,8.12,0,0,1,77.59,65.84Zm13-1c-.25-3-1.95-5.56-5.21-5.56-2.84,0-5,2.37-5.31,5.56Z"/><path class="cls-4" d="M97.3,57.62h2.44v4.27c1.2-2.72,3.57-4.68,6.66-4.55V60h-.19c-3.57,0-6.47,2.56-6.47,7.49V74H97.3Z"/><path class="cls-4" d="M108.49,57.62h2.68l5.5,13.56,5.53-13.56h2.62l-7.11,16.46h-2.14Z"/><path class="cls-4" d="M128.71,51.36h2.78v2.69h-2.78Zm.16,6.26h2.43V74h-2.43Z"/><path class="cls-4" d="M135.94,65.87V65.8a8.51,8.51,0,0,1,14.92-5.62l-1.61,1.71a6.61,6.61,0,0,0-5-2.47,6,6,0,0,0-5.85,6.32v.06a6.11,6.11,0,0,0,6,6.36,6.76,6.76,0,0,0,5-2.44L151,71.18a8.45,8.45,0,0,1-15-5.31Z"/><path class="cls-4" d="M153.51,65.84v-.07c0-4.7,3.32-8.5,7.84-8.5,4.83,0,7.61,3.86,7.61,8.63a6.7,6.7,0,0,1,0,.79H156a5.71,5.71,0,0,0,5.76,5.53,6.77,6.77,0,0,0,5.15-2.31l1.51,1.36a8.43,8.43,0,0,1-6.73,3.07A8.13,8.13,0,0,1,153.51,65.84Zm13-1c-.26-3-2-5.56-5.22-5.56-2.84,0-5,2.37-5.31,5.56Z"/><path class="cls-4" d="M171.87,71.87l1.23-1.74a9.54,9.54,0,0,0,5.65,2.09c2,0,3.39-1,3.39-2.59v-.06c0-1.65-1.93-2.28-4.08-2.88-2.56-.73-5.4-1.61-5.4-4.61V62c0-2.81,2.33-4.67,5.56-4.67a11.1,11.1,0,0,1,5.87,1.8L183,61a9.26,9.26,0,0,0-4.84-1.58c-1.92,0-3.16,1-3.16,2.37v.06c0,1.55,2,2.15,4.21,2.82,2.53.75,5.24,1.73,5.24,4.67v.07c0,3.09-2.56,4.89-5.81,4.89A11.19,11.19,0,0,1,171.87,71.87Z"/></g></g></g></g></svg>