<svg id="Layer_1" data-name="Layer 1" xmlns="http://www.w3.org/2000/svg" xmlns:xlink="http://www.w3.org/1999/xlink" viewBox="0 0 241 110"><defs><style>.cls-1{fill:none;}.cls-2{clip-path:url(#clip-path);}.cls-3{isolation:isolate;}.cls-4{fill:#fff;}</style><clipPath id="clip-path"><rect class="cls-1" x="11.72" y="5.35" width="217.55" height="99.3"/></clipPath></defs><title>Healthcare</title><g class="cls-2"><g id="Healthcare_3" data-name="Healthcare 3"><g id="Healthcare" class="cls-3"><g class="cls-3"><path class="cls-4" d="M39.74,32.88h2.49v9.83H55V32.88h2.49V55H55v-10H42.23V55H39.74Z"/><path class="cls-4" d="M62.33,46.88v-.06c0-4.71,3.31-8.5,7.83-8.5,4.84,0,7.62,3.85,7.62,8.62a6.61,6.61,0,0,1,0,.79h-13a5.7,5.7,0,0,0,5.75,5.53A6.73,6.73,0,0,0,75.69,51l1.52,1.35a8.4,8.4,0,0,1-6.73,3.07A8.12,8.12,0,0,1,62.33,46.88Zm13-1c-.25-3-2-5.56-5.21-5.56-2.84,0-5,2.37-5.31,5.56Z"/><path class="cls-4" d="M80.81,50.26V50.2c0-3.45,2.84-5.28,7-5.28a17.44,17.44,0,0,1,5,.69v-.56c0-2.94-1.8-4.46-4.87-4.46a11.45,11.45,0,0,0-5,1.2l-.73-2a13.51,13.51,0,0,1,5.94-1.36,7.17,7.17,0,0,1,5.28,1.8A6.45,6.45,0,0,1,95.16,45V55H92.82V52.54a7.19,7.19,0,0,1-5.91,2.81C83.87,55.35,80.81,53.61,80.81,50.26Zm12-1.26V47.42a16.91,16.91,0,0,0-4.8-.7c-3.07,0-4.78,1.33-4.78,3.38v.07c0,2,1.9,3.25,4.11,3.25C90.38,53.42,92.85,51.59,92.85,49Z"/><path class="cls-4" d="M100.56,31.93H103V55h-2.43Z"/><path class="cls-4" d="M109.5,50.67V40.81h-2.28V38.66h2.28V33.73h2.43v4.93h5.18v2.15h-5.18v9.55c0,2,1.11,2.71,2.75,2.71a5.12,5.12,0,0,0,2.37-.57v2.09a6.14,6.14,0,0,1-2.94.69C111.49,55.28,109.5,54,109.5,50.67Z"/><path class="cls-4" d="M121.41,31.93h2.43v9.58a6.19,6.19,0,0,1,5.59-3.19c3.95,0,6.26,2.65,6.26,6.54V55h-2.43V45.46c0-3-1.65-4.93-4.52-4.93a4.81,4.81,0,0,0-4.9,5.12V55h-2.43Z"/><path class="cls-4" d="M139.86,46.91v-.06a8.51,8.51,0,0,1,14.91-5.63l-1.61,1.71a6.59,6.59,0,0,0-5-2.47,6,6,0,0,0-5.84,6.32v.07a6.1,6.1,0,0,0,6,6.35,6.73,6.73,0,0,0,5-2.43l1.55,1.45a8.45,8.45,0,0,1-15-5.31Z"/><path class="cls-4" d="M157.68,50.26V50.2c0-3.45,2.84-5.28,7-5.28a17.44,17.44,0,0,1,5,.69v-.56c0-2.94-1.8-4.46-4.87-4.46a11.45,11.45,0,0,0-5,1.2l-.73-2a13.51,13.51,0,0,1,5.94-1.36,7.17,7.17,0,0,1,5.28,1.8A6.44,6.44,0,0,1,172,45V55h-2.33V52.54a7.19,7.19,0,0,1-5.91,2.81C160.74,55.35,157.68,53.61,157.68,50.26Zm12-1.26V47.42a16.91,16.91,0,0,0-4.8-.7c-3.07,0-4.78,1.33-4.78,3.38v.07c0,2,1.9,3.25,4.11,3.25C167.25,53.42,169.72,51.59,169.72,49Z"/><path class="cls-4" d="M177.2,38.66h2.44v4.27c1.2-2.72,3.57-4.68,6.66-4.55V41h-.18c-3.58,0-6.48,2.56-6.48,7.49V55H177.2Z"/><path class="cls-4" d="M188.29,46.88v-.06c0-4.71,3.32-8.5,7.84-8.5,4.84,0,7.62,3.85,7.62,8.62a5,5,0,0,1,0,.79h-13a5.7,5.7,0,0,0,5.75,5.53,6.77,6.77,0,0,0,5.15-2.3l1.52,1.35a8.43,8.43,0,0,1-6.73,3.07A8.13,8.13,0,0,1,188.29,46.88Zm13-1c-.25-3-2-5.56-5.21-5.56-2.85,0-5,2.37-5.31,5.56Z"/></g></g></g></g></svg>