<?xml version="1.0" encoding="UTF-8" standalone="no"?>
<!-- Generator: Adobe Illustrator 17.0.0, SVG Export Plug-In . SVG Version: 6.00 Build 0)  -->
<!DOCTYPE svg  PUBLIC '-//W3C//DTD SVG 1.1//EN'  'http://www.w3.org/Graphics/SVG/1.1/DTD/svg11.dtd'>
<svg id="Layer_1" xmlns="http://www.w3.org/2000/svg" xml:space="preserve" height="107.14px" viewBox="29.758 342.241 552.695 107.135" width="552.7px" version="1.1" y="0px" x="0px" xmlns:xlink="http://www.w3.org/1999/xlink" enable-background="new 29.758 342.241 552.695 107.135">
<g fill="#fff">
		<path d="m547.71 430.88c-5.472-3.009-6.292-10.943-6.292-30.915v-30.367h-10.4l2.462-5.745h8.207v-14.5l19.424-7.113v21.066h9.028l-2.462 6.292h-6.566v52.527c0.547 4.104 1.915 6.84 3.83 8.481h-17.236v0.28z"/>
		<path d="m59.093 379.18c1.915 5.472 6.566 10.943 3.283 17.236-1.641 6.292-7.66 11.49-13.953 12.585-6.566 0.547-12.858-0.547-17.783-4.651-3.557-18.33 3.83-35.292 18.603-45.688l9.85 20.52z"/>
		<path d="m84.81 435.26c-3.283 11.217-36.113 3.83-46.509-14.5 13.405 1.641 28.726-10.396 29-24.075l17.509 38.58z"/>
		<path d="m98.215 433.89c1.368-0.547 4.651-2.189 5.198-5.472l-35.292-76.603c-2.462-0.274-4.104-0.547-7.113 1.641l37.21 80.43z"/>
		<path d="m114.08 417.2c15.047-22.707 2.462-60.188-30.094-65.386l30.094 65.39z"/>
		<path d="m395.6 366.32c3.557-3.009 9.849-3.009 13.953-1.094 1.642 0.821 3.283 1.915 4.377 3.557l-7.934 12.311c-1.094-0.821-1.641-1.094-3.009-1.915-3.83-1.641-7.934-0.821-10.396 1.368v35.565c0 6.019 1.094 11.764 4.104 14.773h-17.783c-3.83-2.736-4.651-7.387-4.924-11.49v-47.329c0.274-3.83-0.821-5.472-2.462-7.66h18.33c1.368 1.094 1.642 3.009 2.462 4.377l3.28-2.47z"/>
		<path d="m418.03 378.08c-0.274-4.377 0.821-9.849-2.189-13.679h17.236c1.094 0.821 1.915 2.189 2.189 3.557 0.821 1.094 0.821 3.009 1.368 4.377l0.274 50.339c0.821 3.009 1.915 6.019 4.104 8.481h-18.33c-6.019-5.745-4.104-15.321-4.377-25.169l-0.27-27.91z"/>
		<path d="m445.12 378.63c1.915-5.198 7.66-7.66 11.764-10.396 6.292-2.462 13.405-8.207 20.519-3.557 6.019 3.83 11.217 8.207 15.047 14.5 0.821 2.462 1.368 4.924 1.915 7.387 0 3.283 0.821 5.745 0.547 9.302 0.274 3.557 0.274 6.84 0 10.396-0.274 6.019-3.009 11.49-7.934 15.594-7.113 6.292-16.141 13.405-25.717 8.755-8.755-4.104-18.877-12.038-18.33-23.254-0.274-7.934-0.821-14.5 0.274-22.16 1.1-2.19 0.82-4.65 1.92-6.56m17.78 35.56c0.821 3.009 2.462 7.113 6.292 7.387 2.189 0 3.83-1.915 5.198-3.283 4.104-7.934 3.557-16.415 3.557-25.169-1.368-6.566 0.274-15.594-6.84-19.698-2.462-0.821-4.377 0.821-6.019 2.462-2.736 4.104-3.009 9.028-3.283 14.226-1.1 8.48-0.01 15.59 1.09 24.07"/>
		<path d="m508.04 430.88c-5.472-3.009-6.292-10.943-6.292-30.915v-30.367h-10.396l2.462-5.745h8.207v-14.5l19.424-7.113v21.066h9.028l-2.462 6.292h-6.566v52.527c0.547 4.104 1.915 6.84 3.83 8.481h-17.236v0.28z"/>
		<path d="m330.21 372.06c0-3.83-0.821-5.472-2.462-7.66h18.33c1.368 1.094 1.641 3.009 2.462 4.377l3.009-2.462c3.557-3.009 9.849-3.009 13.953-1.094 1.642 0.821 3.283 1.915 4.377 3.557l-7.934 12.311c-1.094-0.821-1.641-1.094-3.009-1.915-3.83-1.641-7.934-0.821-10.396 1.368v35.565c0 6.019 1.094 11.764 4.104 14.773h-17.783c-3.83-2.736-4.651-7.113-4.924-11.49l0.27-47.34z"/>
		<path d="m190.69 390.94l-6.84 13.679c-4.651 8.207-10.943 18.056-20.792 20.519-3.83 1.368-7.113 0-10.943 0l-11.764 19.424c0.821 0.821 2.189 1.641 3.283 2.189 20.792 7.934 29.273-0.547 49.792-47.056l19.424 41.311h25.99l-12.038-27.905 6.84-14.5 19.151 41.858 24.896 0.274-43.226-95.48-19.971 9.849 15.594 35.565-6.84 14.226-28.726-62.103-21.066 10.67 17.25 37.48z"/>
		<path d="m270.3 407.63c0.547-6.84 4.377-13.405 10.67-16.962 6.292-3.83 13.679-5.472 20.245-9.028 1.094-0.821 2.462-2.189 2.736-3.557 0-1.915-0.821-3.283-2.462-3.83-9.849-2.189-18.33 4.104-25.443 10.396 0.821-4.651 1.641-9.575 3.83-13.679 1.094-1.094 1.641-2.736 3.009-3.557 7.113-3.557 15.868-4.377 23.802-3.83 6.566 0.547 12.585 4.924 14.773 10.943 1.094 2.736 1.094 6.019 1.368 8.755v38.575c0 3.283 1.641 6.566 3.557 9.302h-18.33c-2.189-1.915-3.283-4.377-3.83-7.66-5.198 4.651-15.868 11.217-22.434 6.84-6.86-3.29-12.88-13.14-11.51-22.71m32.83-13.41c-0.274-2.736-2.189-3.009-3.283-3.009-4.377 0.547-8.207 4.377-10.396 8.207-1.915 3.283-2.462 6.292-2.462 9.302 0 3.283-0.274 5.472 1.094 7.934 0.821 1.641 2.189 2.189 3.83 2.736 2.736 0.547 5.472-0.274 7.66-1.641 5.198-3.009 4.377-8.755 4.377-13.953l-0.82-9.58z"/>
		<path d="m575.89 430.06c-3.009 0-5.472-2.462-5.472-5.198 0-3.009 2.462-5.198 5.472-5.198 3.009 0 5.198 2.462 5.198 5.198 0.27 2.74-2.19 5.2-5.2 5.2m0 1.1c3.557 0 6.566-3.009 6.566-6.566s-2.736-6.566-6.566-6.566c-3.557 0-6.566 3.009-6.566 6.566 0.28 3.56 3.01 6.57 6.57 6.57m-0.28-6.02c0.547 0 0.821 0 1.094 0.274 0.274 0.274 0.274 1.094 0.547 1.641 0 0.547 0.274 0.821 0.274 1.368h1.642c-0.274-0.821-0.274-1.368-0.547-2.189 0-0.821-0.274-1.368-1.368-1.368 1.094-0.274 1.642-0.821 1.642-1.641 0-1.641-1.368-2.189-2.736-2.189h-2.462v7.66h1.094v-3.283h0.821v-0.27zm-1.09-1.37v-1.915h1.368c0.821 0 1.094 0.274 1.094 0.821s-0.274 1.094-1.368 1.094h-1.09z"/>
</g>
</svg>
