<svg id="Layer_1" data-name="Layer 1" xmlns="http://www.w3.org/2000/svg" xmlns:xlink="http://www.w3.org/1999/xlink" viewBox="0 0 241 110"><defs><style>.cls-1{fill:none;}.cls-2{clip-path:url(#clip-path);}.cls-3{isolation:isolate;}.cls-4{fill:#fff;}</style><clipPath id="clip-path"><rect class="cls-1" x="3.3" y="1.51" width="234.4" height="106.99"/></clipPath></defs><title>Media and Entertainment</title><g class="cls-2"><g id="Media_and_Entertainment_3" data-name="Media and Entertainment 3"><g id="Media_and_Entertainment" data-name="Media and Entertainment" class="cls-3"><g class="cls-3"><path class="cls-4" d="M44.31,9.87H46.8l7.94,11.89L62.67,9.87h2.49V31.66H62.71V14L54.77,25.68h-.13L46.71,14V31.66h-2.4Z"/><path class="cls-4" d="M69.93,23.66V23.6c0-4.64,3.26-8.37,7.72-8.37,4.76,0,7.5,3.79,7.5,8.49a6.52,6.52,0,0,1,0,.78H72.36A5.62,5.62,0,0,0,78,30a6.64,6.64,0,0,0,5.07-2.28L84.59,29A8.3,8.3,0,0,1,78,32,8,8,0,0,1,69.93,23.66Zm12.79-.94c-.25-2.92-1.93-5.47-5.14-5.47-2.8,0-4.91,2.33-5.22,5.47Z"/><path class="cls-4" d="M88.41,23.66V23.6c0-5.26,3.83-8.37,7.69-8.37a7.23,7.23,0,0,1,6.16,3.42V8.94h2.4V31.66h-2.4V28.42A7.22,7.22,0,0,1,96.1,32C92.24,32,88.41,29,88.41,23.66Zm14,0v-.06a6,6,0,0,0-5.82-6.2c-3.11,0-5.67,2.31-5.67,6.2v.06c0,3.79,2.62,6.22,5.67,6.22A6,6,0,0,0,102.36,23.63Z"/><path class="cls-4" d="M110.08,9.41h2.73v2.64h-2.73Zm.15,6.16h2.4V31.66h-2.4Z"/><path class="cls-4" d="M117,27v-.06c0-3.4,2.8-5.2,6.87-5.2a17.23,17.23,0,0,1,5,.68v-.56c0-2.89-1.77-4.38-4.79-4.38a11.16,11.16,0,0,0-4.89,1.18l-.71-2a13.24,13.24,0,0,1,5.85-1.34,7.09,7.09,0,0,1,5.2,1.77,6.4,6.4,0,0,1,1.65,4.7v9.84h-2.31V29.23A7.06,7.06,0,0,1,123,32C120,32,117,30.29,117,27Zm11.85-1.25V24.19a16.83,16.83,0,0,0-4.73-.69c-3,0-4.7,1.31-4.7,3.33v.07c0,2,1.87,3.2,4,3.2C126.42,30.1,128.84,28.3,128.84,25.74Z"/><path class="cls-4" d="M144.34,27v-.06c0-3.4,2.8-5.2,6.88-5.2a17.28,17.28,0,0,1,4.95.68v-.56c0-2.89-1.77-4.38-4.79-4.38a11.13,11.13,0,0,0-4.89,1.18l-.72-2a13.32,13.32,0,0,1,5.86-1.34,7.05,7.05,0,0,1,5.19,1.77,6.36,6.36,0,0,1,1.65,4.7v9.84h-2.3V29.23A7.06,7.06,0,0,1,150.35,32C147.36,32,144.34,30.29,144.34,27Zm11.86-1.25V24.19a16.83,16.83,0,0,0-4.73-.69c-3,0-4.7,1.31-4.7,3.33v.07c0,2,1.87,3.2,4,3.2C153.77,30.1,156.2,28.3,156.2,25.74Z"/><path class="cls-4" d="M163.58,15.57H166v2.8a6.1,6.1,0,0,1,5.51-3.14c3.89,0,6.16,2.61,6.16,6.44v10h-2.39v-9.4c0-3-1.62-4.86-4.45-4.86a4.74,4.74,0,0,0-4.83,5v9.22h-2.39Z"/><path class="cls-4" d="M181.82,23.66V23.6c0-5.26,3.82-8.37,7.68-8.37a7.26,7.26,0,0,1,6.17,3.42V8.94h2.39V31.66h-2.39V28.42A7.25,7.25,0,0,1,189.5,32C185.64,32,181.82,29,181.82,23.66Zm13.94,0v-.06a6,6,0,0,0-5.82-6.2c-3.11,0-5.66,2.31-5.66,6.2v.06c0,3.79,2.61,6.22,5.66,6.22A6,6,0,0,0,195.76,23.63Z"/></g><g class="cls-3"><path class="cls-4" d="M13.67,47.8H29.42V50H16.13v7.44H28v2.24H16.13v7.63H29.57v2.24H13.67Z"/><path class="cls-4" d="M34.12,53.5h2.4v2.8A6.07,6.07,0,0,1,42,53.16c3.89,0,6.17,2.61,6.17,6.44v10h-2.4v-9.4c0-3-1.62-4.85-4.45-4.85a4.73,4.73,0,0,0-4.82,5v9.21h-2.4Z"/><path class="cls-4" d="M54.13,65.33V55.62H51.89V53.5h2.24V48.64h2.4V53.5h5.1v2.12h-5.1V65a2.38,2.38,0,0,0,2.71,2.68,5.11,5.11,0,0,0,2.33-.56v2.05a6,6,0,0,1-2.89.69C56.09,69.87,54.13,68.59,54.13,65.33Z"/><path class="cls-4" d="M64.4,61.59v-.06c0-4.64,3.27-8.37,7.72-8.37,4.76,0,7.5,3.79,7.5,8.49a6.52,6.52,0,0,1,0,.78H66.83a5.62,5.62,0,0,0,5.66,5.45,6.67,6.67,0,0,0,5.08-2.27l1.49,1.33a8.3,8.3,0,0,1-6.63,3A8,8,0,0,1,64.4,61.59Zm12.79-.93c-.25-2.93-1.93-5.48-5.13-5.48-2.8,0-4.92,2.33-5.23,5.48Z"/><path class="cls-4" d="M83.82,53.5h2.4v4.2a6.88,6.88,0,0,1,6.57-4.48V55.8H92.6c-3.52,0-6.38,2.52-6.38,7.38v6.41h-2.4Z"/><path class="cls-4" d="M97.27,65.33V55.62H95V53.5h2.24V48.64h2.4V53.5h5.1v2.12h-5.1V65a2.38,2.38,0,0,0,2.7,2.68,5.12,5.12,0,0,0,2.34-.56v2.05a6,6,0,0,1-2.9.69C99.23,69.87,97.27,68.59,97.27,65.33Z"/><path class="cls-4" d="M107.79,64.92v-.06c0-3.39,2.8-5.2,6.88-5.2a16.84,16.84,0,0,1,4.94.69v-.56c0-2.9-1.77-4.39-4.79-4.39a11.22,11.22,0,0,0-4.88,1.18l-.72-2a13.27,13.27,0,0,1,5.85-1.34,7,7,0,0,1,5.2,1.78,6.32,6.32,0,0,1,1.65,4.69v9.84h-2.31V67.16a7,7,0,0,1-5.81,2.77C110.81,69.93,107.79,68.22,107.79,64.92Zm11.86-1.24V62.12a16.93,16.93,0,0,0-4.73-.68c-3,0-4.7,1.3-4.7,3.33v.06c0,2,1.86,3.2,4,3.2C117.22,68,119.65,66.23,119.65,63.68Z"/><path class="cls-4" d="M127.09,47.34h2.73V50h-2.73Zm.15,6.16h2.4V69.59h-2.4Z"/><path class="cls-4" d="M135.21,53.5h2.39v2.8a6.1,6.1,0,0,1,5.51-3.14c3.89,0,6.16,2.61,6.16,6.44v10h-2.39v-9.4c0-3-1.62-4.85-4.45-4.85a4.74,4.74,0,0,0-4.83,5v9.21h-2.39Z"/><path class="cls-4" d="M154.38,53.5h2.4v2.71A5.86,5.86,0,0,1,162,53.16a5.47,5.47,0,0,1,5.17,3.2,6.41,6.41,0,0,1,5.66-3.2c3.71,0,6,2.49,6,6.47v10h-2.4v-9.4c0-3.11-1.55-4.85-4.17-4.85-2.42,0-4.45,1.8-4.45,5v9.27H165.4V60.13c0-3-1.59-4.79-4.14-4.79s-4.48,2.11-4.48,5.07v9.18h-2.4Z"/><path class="cls-4" d="M182.89,61.59v-.06c0-4.64,3.27-8.37,7.72-8.37,4.76,0,7.5,3.79,7.5,8.49a6.52,6.52,0,0,1,0,.78H185.32A5.62,5.62,0,0,0,191,67.88a6.64,6.64,0,0,0,5.07-2.27l1.5,1.33a8.3,8.3,0,0,1-6.63,3A8,8,0,0,1,182.89,61.59Zm12.79-.93c-.25-2.93-1.93-5.48-5.13-5.48-2.81,0-4.92,2.33-5.23,5.48Z"/><path class="cls-4" d="M202.31,53.5h2.4v2.8a6.1,6.1,0,0,1,5.51-3.14c3.89,0,6.16,2.61,6.16,6.44v10H214v-9.4c0-3-1.62-4.85-4.45-4.85a4.73,4.73,0,0,0-4.82,5v9.21h-2.4Z"/><path class="cls-4" d="M222.32,65.33V55.62h-2.24V53.5h2.24V48.64h2.4V53.5h5.1v2.12h-5.1V65a2.38,2.38,0,0,0,2.71,2.68,5.08,5.08,0,0,0,2.33-.56v2.05a6,6,0,0,1-2.89.69C224.28,69.87,222.32,68.59,222.32,65.33Z"/></g></g></g></g></svg>