<?xml version="1.0" encoding="UTF-8"?>
<svg width="580px" height="299px" viewBox="0 0 580 299" version="1.1" xmlns="http://www.w3.org/2000/svg" xmlns:xlink="http://www.w3.org/1999/xlink">
    <!-- Generator: Sketch 48.2 (47327) - http://www.bohemiancoding.com/sketch -->
    <title>MobileIoT</title>
    <desc>Created with Sketch.</desc>
    <defs>
        <linearGradient x1="49.9627451%" y1="0.0926582278%" x2="49.9627451%" y2="100.053165%" id="linearGradient-1">
            <stop stop-color="#EB4971" offset="0%"></stop>
            <stop stop-color="#9D70B0" offset="100%"></stop>
        </linearGradient>
        <linearGradient x1="0.0107963379%" y1="50.1028571%" x2="100.006478%" y2="50.1028571%" id="linearGradient-2">
            <stop stop-color="#EB4971" offset="0%"></stop>
            <stop stop-color="#9D70B0" offset="100%"></stop>
        </linearGradient>
        <linearGradient x1="100.197262%" y1="49.9062179%" x2="100.197262%" y2="149.720586%" id="linearGradient-3">
            <stop stop-color="#EB4971" offset="0%"></stop>
            <stop stop-color="#B36CDB" offset="100%"></stop>
        </linearGradient>
        <linearGradient x1="50.3618412%" y1="0.333208824%" x2="50.3618412%" y2="100.472554%" id="linearGradient-4">
            <stop stop-color="#EB4971" offset="0%"></stop>
            <stop stop-color="#B36CDB" offset="100%"></stop>
        </linearGradient>
        <linearGradient x1="100.147482%" y1="49.7237226%" x2="-0.00611510791%" y2="49.7237226%" id="linearGradient-5">
            <stop stop-color="#00ACE0" offset="0%"></stop>
            <stop stop-color="#B36CDC" offset="100%"></stop>
        </linearGradient>
        <linearGradient x1="100.018038%" y1="50.1109726%" x2="0.158860759%" y2="50.1109726%" id="linearGradient-6">
            <stop stop-color="#00ACE0" offset="0%"></stop>
            <stop stop-color="#B36CDC" offset="100%"></stop>
        </linearGradient>
        <linearGradient x1="100.195804%" y1="49.8035714%" x2="0.0325174825%" y2="49.8035714%" id="linearGradient-7">
            <stop stop-color="#00ACE0" offset="0%"></stop>
            <stop stop-color="#B36CDC" offset="100%"></stop>
        </linearGradient>
        <linearGradient x1="100.140888%" y1="49.9978622%" x2="0.0691588785%" y2="49.9978622%" id="linearGradient-8">
            <stop stop-color="#FC9C0C" offset="0%"></stop>
            <stop stop-color="#EB4971" offset="100%"></stop>
        </linearGradient>
        <linearGradient x1="99.9972727%" y1="49.7534884%" x2="-0.156363636%" y2="49.7534884%" id="linearGradient-9">
            <stop stop-color="#FC9C0C" offset="0%"></stop>
            <stop stop-color="#EB4971" offset="100%"></stop>
        </linearGradient>
        <linearGradient x1="99.6481481%" y1="50.1309061%" x2="-0.233127572%" y2="50.1309061%" id="linearGradient-10">
            <stop stop-color="#FC9C0C" offset="0%"></stop>
            <stop stop-color="#EB4971" offset="100%"></stop>
        </linearGradient>
        <linearGradient x1="0%" y1="0%" x2="119.328507%" y2="117.647421%" id="linearGradient-11">
            <stop stop-color="#EB4971" offset="0%"></stop>
            <stop stop-color="#B36CDB" offset="100%"></stop>
        </linearGradient>
    </defs>
    <g id="Artboard" stroke="none" stroke-width="1" fill="none" fill-rule="evenodd" transform="translate(-70.000000, -99.000000)">
        <g id="MobileIoT" transform="translate(70.000000, 101.000000)">
            <rect id="Rectangle-path" fill="url(#linearGradient-1)" fill-rule="nonzero" x="42.4" y="164.6" width="61.2" height="39.5"></rect>
            <g id="Group-13" transform="translate(30.879406, 162.747748)" fill-rule="nonzero">
                <path d="M81.7,53.6 L2.3,53.6 C0.7,53.6 0.8,53.3 1.1,52.9 L11.5,42.7 C11.7,42.4 12.2,42.2 12.6,42.2 L71.4,42.2 C71.8,42.2 72.4,42.4 72.5,42.7 L82.9,52.9 C83.2,53.3 83.3,53.6 81.7,53.6 Z" id="Fill-24" fill="#FFFFFF"></path>
                <path d="M81.7,54.4 L2.3,54.4 C1.3,54.4 0.6,54.3 0.3,53.7 C2.96984659e-15,53.2 0.3,52.7 0.4,52.5 C0.4,52.5 0.5,52.4 0.5,52.4 L10.8,42.3 C11.2,41.8 11.9,41.6 12.5,41.6 L71.4,41.6 C72,41.6 72.7,41.8 73.1,42.3 L83.4,52.4 C83.4,52.4 83.5,52.5 83.5,52.5 C83.6,52.7 83.9,53.2 83.6,53.7 C83.4,54.3 82.7,54.4 81.7,54.4 Z M2.2,52.9 C2.2,52.9 2.3,52.9 2.2,52.9 L81.7,52.9 C81.7,52.9 81.7,52.9 81.8,52.9 L72,43.3 C72,43.3 71.9,43.2 71.9,43.2 C71.9,43.2 71.6,43.1 71.4,43.1 L12.6,43.1 C12.4,43.1 12.1,43.2 12.1,43.3 C12.1,43.3 12.1,43.3 12,43.4 L2.2,52.9 Z" id="Shape" fill="#000000"></path>
                <path d="M57.3,52.8 L26.1,52.8 C25.8,52.8 25.5,52.5 25.5,52.2 C25.5,51.9 25.8,51.6 26.1,51.6 L57.3,51.6 C57.6,51.6 57.9,51.9 57.9,52.2 C57.9,52.6 57.6,52.8 57.3,52.8 Z" id="Shape" fill="#000000"></path>
                <path d="M72,42 L12.3,42 C11.7,42 11.3,41.8 11,41.5 C10.5,41 10.5,40.1 10.5,39.3 L10.5,39 L10.5,3.8 C10.5,2.1 11.9,0.8 13.5,0.8 L70.5,0.8 C72.2,0.8 73.5,2.1 73.5,3.8 L73.5,39 C73.5,39.3 73.5,39.5 73.5,39.7 C73.6,40.4 73.6,41 73.2,41.5 C72.9,41.9 72.5,42 72,42 Z M13.5,2.1 C12.6,2.1 11.8,2.9 11.8,3.8 L11.8,39.3 C11.8,39.8 11.8,40.5 12,40.6 C12.1,40.7 12.2,40.7 12.4,40.7 L72,40.7 C72.2,40.7 72.3,40.7 72.3,40.7 C72.3,40.6 72.3,40.2 72.3,39.9 C72.3,39.6 72.3,39.4 72.3,39.1 L72.3,3.9 C72.3,3 71.5,2.2 70.6,2.2 L13.5,2.2 L13.5,2.1 Z" id="Shape" fill="#000000"></path>
                <path d="M16.4,44.6 L12.9,44.6 C12.7,44.6 12.5,44.4 12.5,44.2 C12.5,44 12.7,43.8 12.9,43.8 L16.4,43.8 C16.6,43.8 16.8,44 16.8,44.2 C16.9,44.4 16.7,44.6 16.4,44.6 Z" id="Shape" fill="#000000" opacity="0.8"></path>
                <path d="M22.6,44.6 L19.1,44.6 C18.9,44.6 18.7,44.4 18.7,44.2 C18.7,44 18.9,43.8 19.1,43.8 L22.6,43.8 C22.8,43.8 23,44 23,44.2 C23,44.4 22.8,44.6 22.6,44.6 Z" id="Shape" fill="#000000" opacity="0.8"></path>
                <path d="M28.7,44.6 L25.2,44.6 C25,44.6 24.8,44.4 24.8,44.2 C24.8,44 25,43.8 25.2,43.8 L28.7,43.8 C28.9,43.8 29.1,44 29.1,44.2 C29.1,44.4 28.9,44.6 28.7,44.6 Z" id="Shape" fill="#000000" opacity="0.8"></path>
                <path d="M34.8,44.6 L31.3,44.6 C31.1,44.6 30.9,44.4 30.9,44.2 C30.9,44 31.1,43.8 31.3,43.8 L34.8,43.8 C35,43.8 35.2,44 35.2,44.2 C35.3,44.4 35.1,44.6 34.8,44.6 Z" id="Shape" fill="#000000" opacity="0.8"></path>
                <path d="M41,44.6 L37.5,44.6 C37.3,44.6 37.1,44.4 37.1,44.2 C37.1,44 37.3,43.8 37.5,43.8 L41,43.8 C41.2,43.8 41.4,44 41.4,44.2 C41.4,44.4 41.2,44.6 41,44.6 Z" id="Shape" fill="#000000" opacity="0.8"></path>
                <path d="M47.1,44.6 L43.6,44.6 C43.4,44.6 43.2,44.4 43.2,44.2 C43.2,44 43.4,43.8 43.6,43.8 L47.1,43.8 C47.3,43.8 47.5,44 47.5,44.2 C47.5,44.4 47.4,44.6 47.1,44.6 Z" id="Shape" fill="#000000" opacity="0.8"></path>
                <path d="M53.2,44.6 L49.7,44.6 C49.5,44.6 49.3,44.4 49.3,44.2 C49.3,44 49.5,43.8 49.7,43.8 L53.2,43.8 C53.4,43.8 53.6,44 53.6,44.2 C53.7,44.4 53.5,44.6 53.2,44.6 Z" id="Shape" fill="#000000" opacity="0.8"></path>
                <path d="M59.4,44.6 L55.9,44.6 C55.7,44.6 55.5,44.4 55.5,44.2 C55.5,44 55.7,43.8 55.9,43.8 L59.4,43.8 C59.6,43.8 59.8,44 59.8,44.2 C59.8,44.4 59.6,44.6 59.4,44.6 Z" id="Shape" fill="#000000" opacity="0.8"></path>
                <path d="M65.5,44.6 L62,44.6 C61.8,44.6 61.6,44.4 61.6,44.2 C61.6,44 61.8,43.8 62,43.8 L65.5,43.8 C65.7,43.8 65.9,44 65.9,44.2 C66,44.4 65.8,44.6 65.5,44.6 Z" id="Shape" fill="#000000" opacity="0.8"></path>
                <path d="M71.4,44.6 L67.9,44.6 C67.7,44.6 67.5,44.4 67.5,44.2 C67.5,44 67.7,43.8 67.9,43.8 L71.4,43.8 C71.6,43.8 71.8,44 71.8,44.2 C71.8,44.4 71.6,44.6 71.4,44.6 Z" id="Shape" fill="#000000" opacity="0.8"></path>
                <path d="M14.5,46.7 L11,46.7 C10.8,46.7 10.6,46.5 10.6,46.3 C10.6,46.1 10.8,45.9 11,45.9 L14.6,45.9 C14.8,45.9 15,46.1 15,46.3 C15,46.5 14.8,46.7 14.5,46.7 Z" id="Shape" fill="#000000" opacity="0.8"></path>
                <path d="M12.4,48.8 L8.5,48.8 C8.3,48.8 8.1,48.6 8.1,48.4 C8.1,48.2 8.3,48 8.5,48 L12.4,48 C12.6,48 12.8,48.2 12.8,48.4 C12.8,48.6 12.7,48.8 12.4,48.8 Z" id="Shape" fill="#000000" opacity="0.8"></path>
                <path d="M18.3,48.8 L14.4,48.8 C14.2,48.8 14,48.6 14,48.4 C14,48.2 14.2,48 14.4,48 L18.3,48 C18.5,48 18.7,48.2 18.7,48.4 C18.7,48.6 18.5,48.8 18.3,48.8 Z" id="Shape" fill="#000000" opacity="0.8"></path>
                <path d="M24.1,48.8 L20.2,48.8 C20,48.8 19.8,48.6 19.8,48.4 C19.8,48.2 20,48 20.2,48 L24.1,48 C24.3,48 24.5,48.2 24.5,48.4 C24.5,48.6 24.3,48.8 24.1,48.8 Z" id="Shape" fill="#000000" opacity="0.8"></path>
                <path d="M29.9,48.8 L26,48.8 C25.8,48.8 25.6,48.6 25.6,48.4 C25.6,48.2 25.8,48 26,48 L29.9,48 C30.1,48 30.3,48.2 30.3,48.4 C30.3,48.6 30.1,48.8 29.9,48.8 Z" id="Shape" fill="#000000" opacity="0.8"></path>
                <path d="M35.7,48.8 L31.8,48.8 C31.6,48.8 31.4,48.6 31.4,48.4 C31.4,48.2 31.6,48 31.8,48 L35.7,48 C35.9,48 36.1,48.2 36.1,48.4 C36.1,48.6 36,48.8 35.7,48.8 Z" id="Shape" fill="#000000" opacity="0.8"></path>
                <path d="M41.6,48.8 L37.7,48.8 C37.5,48.8 37.3,48.6 37.3,48.4 C37.3,48.2 37.5,48 37.7,48 L41.6,48 C41.8,48 42,48.2 42,48.4 C42,48.6 41.8,48.8 41.6,48.8 Z" id="Shape" fill="#000000" opacity="0.8"></path>
                <path d="M47.4,48.8 L43.5,48.8 C43.3,48.8 43.1,48.6 43.1,48.4 C43.1,48.2 43.3,48 43.5,48 L47.4,48 C47.6,48 47.8,48.2 47.8,48.4 C47.8,48.6 47.6,48.8 47.4,48.8 Z" id="Shape" fill="#000000" opacity="0.8"></path>
                <path d="M53.2,48.8 L49.3,48.8 C49.1,48.8 48.9,48.6 48.9,48.4 C48.9,48.2 49.1,48 49.3,48 L53.2,48 C53.4,48 53.6,48.2 53.6,48.4 C53.6,48.6 53.4,48.8 53.2,48.8 Z" id="Shape" fill="#000000" opacity="0.8"></path>
                <path d="M59,48.8 L55.1,48.8 C54.9,48.8 54.7,48.6 54.7,48.4 C54.7,48.2 54.9,48 55.1,48 L59,48 C59.2,48 59.4,48.2 59.4,48.4 C59.4,48.6 59.3,48.8 59,48.8 Z" id="Shape" fill="#000000" opacity="0.8"></path>
                <path d="M64.8,48.8 L61,48.8 C60.8,48.8 60.6,48.6 60.6,48.4 C60.6,48.2 60.8,48 61,48 L64.9,48 C65.1,48 65.3,48.2 65.3,48.4 C65.3,48.6 65.1,48.8 64.8,48.8 Z" id="Shape" fill="#000000" opacity="0.8"></path>
                <path d="M75.8,48.8 L67.3,48.8 C67.1,48.8 66.9,48.6 66.9,48.4 C66.9,48.2 67.1,48 67.3,48 L75.8,48 C76,48 76.2,48.2 76.2,48.4 C76.2,48.6 76.1,48.8 75.8,48.8 Z" id="Shape" fill="#000000" opacity="0.8"></path>
                <path d="M20.1,46.7 L16.5,46.7 C16.3,46.7 16.1,46.5 16.1,46.3 C16.1,46.1 16.3,45.9 16.5,45.9 L20.1,45.9 C20.3,45.9 20.5,46.1 20.5,46.3 C20.5,46.5 20.4,46.7 20.1,46.7 Z" id="Shape" fill="#000000" opacity="0.8"></path>
                <path d="M25.8,46.7 L22.2,46.7 C22,46.7 21.8,46.5 21.8,46.3 C21.8,46.1 22,45.9 22.2,45.9 L25.8,45.9 C26,45.9 26.2,46.1 26.2,46.3 C26.2,46.5 26,46.7 25.8,46.7 Z" id="Shape" fill="#000000" opacity="0.8"></path>
                <path d="M31.4,46.7 L27.8,46.7 C27.6,46.7 27.4,46.5 27.4,46.3 C27.4,46.1 27.6,45.9 27.8,45.9 L31.4,45.9 C31.6,45.9 31.8,46.1 31.8,46.3 C31.8,46.5 31.6,46.7 31.4,46.7 Z" id="Shape" fill="#000000" opacity="0.8"></path>
                <path d="M37,46.7 L33.4,46.7 C33.2,46.7 33,46.5 33,46.3 C33,46.1 33.2,45.9 33.4,45.9 L37,45.9 C37.2,45.9 37.4,46.1 37.4,46.3 C37.4,46.5 37.3,46.7 37,46.7 Z" id="Shape" fill="#000000" opacity="0.8"></path>
                <path d="M42.7,46.7 L39.1,46.7 C38.9,46.7 38.7,46.5 38.7,46.3 C38.7,46.1 38.9,45.9 39.1,45.9 L42.7,45.9 C42.9,45.9 43.1,46.1 43.1,46.3 C43.1,46.5 42.9,46.7 42.7,46.7 Z" id="Shape" fill="#000000" opacity="0.8"></path>
                <path d="M48.3,46.7 L44.7,46.7 C44.5,46.7 44.3,46.5 44.3,46.3 C44.3,46.1 44.5,45.9 44.7,45.9 L48.3,45.9 C48.5,45.9 48.7,46.1 48.7,46.3 C48.7,46.5 48.5,46.7 48.3,46.7 Z" id="Shape" fill="#000000" opacity="0.8"></path>
                <path d="M53.9,46.7 L50.3,46.7 C50.1,46.7 49.9,46.5 49.9,46.3 C49.9,46.1 50.1,45.9 50.3,45.9 L53.9,45.9 C54.1,45.9 54.3,46.1 54.3,46.3 C54.3,46.5 54.2,46.7 53.9,46.7 Z" id="Shape" fill="#000000" opacity="0.8"></path>
                <path d="M65.2,46.7 L61.6,46.7 C61.4,46.7 61.2,46.5 61.2,46.3 C61.2,46.1 61.4,45.9 61.6,45.9 L65.2,45.9 C65.4,45.9 65.6,46.1 65.6,46.3 C65.6,46.5 65.4,46.7 65.2,46.7 Z" id="Shape" fill="#000000" opacity="0.8"></path>
                <path d="M59.5,46.7 L56,46.7 C55.8,46.7 55.6,46.5 55.6,46.3 C55.6,46.1 55.8,45.9 56,45.9 L59.6,45.9 C59.8,45.9 60,46.1 60,46.3 C60,46.5 59.8,46.7 59.5,46.7 Z" id="Shape" fill="#000000" opacity="0.8"></path>
                <path d="M73.7,46.7 L67.6,46.7 C67.4,46.7 67.2,46.5 67.2,46.3 C67.2,46.1 67.4,45.9 67.6,45.9 L73.8,45.9 C74,45.9 74.2,46.1 74.2,46.3 C74.2,46.5 74,46.7 73.7,46.7 Z" id="Shape" fill="#000000" opacity="0.8"></path>
                <path d="M12.9,50.9 L6.1,50.9 C5.9,50.9 5.7,50.7 5.7,50.5 C5.7,50.3 5.9,50.1 6.1,50.1 L12.9,50.1 C13.1,50.1 13.3,50.3 13.3,50.5 C13.3,50.7 13.1,50.9 12.9,50.9 Z" id="Shape" fill="#000000" opacity="0.8"></path>
                <path d="M22.1,50.9 L15.3,50.9 C15.1,50.9 14.9,50.7 14.9,50.5 C14.9,50.3 15.1,50.1 15.3,50.1 L22.1,50.1 C22.3,50.1 22.5,50.3 22.5,50.5 C22.5,50.7 22.3,50.9 22.1,50.9 Z" id="Shape" fill="#000000" opacity="0.8"></path>
                <path d="M68.1,50.9 L61.3,50.9 C61.1,50.9 60.9,50.7 60.9,50.5 C60.9,50.3 61.1,50.1 61.3,50.1 L68.1,50.1 C68.3,50.1 68.5,50.3 68.5,50.5 C68.5,50.7 68.3,50.9 68.1,50.9 Z" id="Shape" fill="#000000" opacity="0.8"></path>
                <path d="M77.3,50.9 L70.5,50.9 C70.3,50.9 70.1,50.7 70.1,50.5 C70.1,50.3 70.3,50.1 70.5,50.1 L77.3,50.1 C77.5,50.1 77.7,50.3 77.7,50.5 C77.7,50.7 77.5,50.9 77.3,50.9 Z" id="Shape" fill="#000000" opacity="0.8"></path>
                <path d="M82.4,54.7 L1.7,54.7 C1,54.7 0.5,54.2 0.5,53.5 C0.5,52.8 1,52.3 1.7,52.3 L82.4,52.3 C83.1,52.3 83.6,52.8 83.6,53.5 C83.5,54.2 83,54.7 82.4,54.7 Z" id="Shape" fill="#000000"></path>
            </g>
            <g id="Group-3" transform="translate(66.000000, 175.000000)" fill="#FEFEFE" fill-rule="nonzero">
                <path d="M7.36666667,7.63636364 C3.58888889,7.63636364 0.566666667,6.36363636 0.566666667,4.54545455 C0.566666667,2.90909091 3.58888889,1.45454545 7.36666667,1.45454545 C11.1444444,1.45454545 14.1666667,2.72727273 14.1666667,4.54545455 C14.1666667,6.36363636 11.1444444,7.63636364 7.36666667,7.63636364 Z M7.36666667,2.36363636 C3.77777778,2.36363636 1.32222222,3.63636364 1.32222222,4.72727273 C1.32222222,5.81818182 3.77777778,7.09090909 7.36666667,7.09090909 C10.9555556,7.09090909 13.4111111,5.81818182 13.4111111,4.72727273 C13.4111111,3.45454545 10.9555556,2.36363636 7.36666667,2.36363636 Z" id="Shape"></path>
                <path d="M7.36666667,18.3636364 C3.58888889,18.3636364 0.566666667,17.0909091 0.566666667,15.2727273 L1.32222222,15.2727273 C1.32222222,16.3636364 3.77777778,17.6363636 7.36666667,17.6363636 C10.9555556,17.6363636 13.4111111,16.3636364 13.4111111,15.2727273 L14.1666667,15.2727273 C14.1666667,17.0909091 11.1444444,18.3636364 7.36666667,18.3636364 Z" id="Shape"></path>
                <rect id="Rectangle-path" x="0.566666667" y="4.36363636" width="1" height="11.0909091"></rect>
                <rect id="Rectangle-path" x="13.4111111" y="4.36363636" width="1" height="11.0909091"></rect>
                <path d="M4.53333333,12.7272727 C4.53333333,12.7272727 4.53333333,12.5454545 4.53333333,12.3636364 C4.53333333,12 4.34444444,12 3.96666667,12 L3.77777778,12 L3.77777778,11.4545455 L3.96666667,11.4545455 C4.34444444,11.4545455 4.53333333,11.2727273 4.53333333,11.0909091 C4.53333333,11.0909091 4.53333333,10.9090909 4.53333333,10.7272727 C4.53333333,10.3636364 4.72222222,10 5.66666667,9.81818182 L5.85555556,10.1818182 C5.28888889,10.3636364 5.28888889,10.3636364 5.28888889,10.7272727 C5.28888889,10.7272727 5.28888889,10.9090909 5.28888889,11.0909091 C5.28888889,11.4545455 5.1,11.6363636 4.91111111,11.6363636 C5.28888889,11.8181818 5.28888889,11.8181818 5.28888889,12.1818182 C5.28888889,12.1818182 5.28888889,12.3636364 5.28888889,12.5454545 C5.28888889,12.7272727 5.28888889,12.9090909 5.85555556,13.0909091 L5.66666667,13.4545455 C4.72222222,13.4545455 4.53333333,13.2727273 4.53333333,12.7272727" id="Fill-87"></path>
                <polygon id="Fill-88" points="5.85555556 13.0909091 6.61111111 13.0909091 6.61111111 12.3636364 5.85555556 12.3636364"></polygon>
                <polygon id="Fill-89" points="7.17777778 13.0909091 7.93333333 13.0909091 7.93333333 12.3636364 7.17777778 12.3636364"></polygon>
                <polygon id="Fill-90" points="7.93333333 13.0909091 8.68888889 13.0909091 8.68888889 12.3636364 7.93333333 12.3636364"></polygon>
                <path d="M8.87777778,13.2727273 C9.44444444,13.0909091 9.44444444,13.0909091 9.44444444,12.7272727 C9.44444444,12.7272727 9.44444444,12.5454545 9.44444444,12.3636364 C9.44444444,12 9.63333333,11.8181818 9.82222222,11.8181818 C9.44444444,11.6363636 9.44444444,11.6363636 9.44444444,11.2727273 C9.44444444,11.2727273 9.44444444,11.0909091 9.44444444,10.9090909 C9.44444444,10.7272727 9.44444444,10.5454545 8.87777778,10.3636364 L9.06666667,10 C9.82222222,10.1818182 10.2,10.3636364 10.2,10.9090909 C10.2,10.9090909 10.2,11.0909091 10.2,11.2727273 C10.2,11.6363636 10.3888889,11.6363636 10.7666667,11.6363636 L10.9555556,11.6363636 L10.9555556,12.1818182 L10.7666667,12.1818182 C10.3888889,12.1818182 10.2,12.3636364 10.2,12.5454545 C10.2,12.5454545 10.2,12.7272727 10.2,12.9090909 C10.2,13.2727273 10.0111111,13.6363636 9.06666667,13.8181818 L8.87777778,13.2727273 Z" id="Fill-91"></path>
            </g>
            <polygon id="Shape" fill="#FFFFFF" fill-rule="nonzero" points="27.8 194.1 27.8 196.2 47.8 196.2 47.8 193.9 28.3 193.9"></polygon>
            <g id="Group" transform="translate(0.000000, 271.000000)">
                <path d="M576.5,25.2 L3.5,25.2 C1.9,25.2 0.5,23.9 0.5,22.2 L0.5,3.7 C0.5,2.1 1.8,0.7 3.5,0.7 L576.4,0.7 C578,0.7 579.4,2 579.4,3.7 L579.4,22.2 C579.4,23.9 578.1,25.2 576.5,25.2 Z" id="Shape" fill="url(#linearGradient-2)" fill-rule="nonzero"></path>
                <rect id="Rectangle-path" x="262.6" y="8.4" width="97.9" height="18.7"></rect>
                <path d="M264.778,16.6869 C263.494,16.6869 262.282,16.2429 261.274,15.3429 L262.162,14.2869 C262.966,14.9829 263.782,15.3789 264.814,15.3789 C265.726,15.3789 266.302,14.9469 266.302,14.3229 L266.302,14.2989 C266.302,13.6989 265.966,13.3749 264.406,13.0149 C262.618,12.5829 261.61,12.0549 261.61,10.5069 L261.61,10.4829 C261.61,9.0429 262.81,8.0469 264.478,8.0469 C265.702,8.0469 266.674,8.4189 267.526,9.1029 L266.734,10.2189 C265.978,9.6549 265.222,9.3549 264.454,9.3549 C263.59,9.3549 263.086,9.7989 263.086,10.3509 L263.086,10.3749 C263.086,11.0229 263.47,11.3109 265.09,11.6949 C266.866,12.1269 267.778,12.7629 267.778,14.1549 L267.778,14.1789 C267.778,15.7509 266.542,16.6869 264.778,16.6869 Z M269.518,16.5669 L269.518,8.1669 L275.746,8.1669 L275.746,9.4869 L270.994,9.4869 L270.994,11.6709 L275.206,11.6709 L275.206,13.0029 L270.994,13.0029 L270.994,15.2469 L275.806,15.2469 L275.806,16.5669 L269.518,16.5669 Z M281.458,16.7109 C278.998,16.7109 277.186,14.8029 277.186,12.3909 L277.186,12.3669 C277.186,9.9789 278.974,8.0229 281.506,8.0229 C283.066,8.0229 284.002,8.5629 284.806,9.3309 L283.858,10.4229 C283.174,9.7989 282.466,9.3909 281.494,9.3909 C279.91,9.3909 278.734,10.6989 278.734,12.3429 L278.734,12.3669 C278.734,14.0109 279.898,15.3429 281.506,15.3429 C282.538,15.3429 283.198,14.9349 283.918,14.2629 L284.866,15.2229 C283.99,16.1349 283.03,16.7109 281.458,16.7109 Z M289.87,16.6989 C287.686,16.6989 286.294,15.4389 286.294,13.0029 L286.294,8.1669 L287.77,8.1669 L287.77,12.9429 C287.77,14.5029 288.574,15.3309 289.894,15.3309 C291.202,15.3309 292.006,14.5509 292.006,13.0029 L292.006,8.1669 L293.482,8.1669 L293.482,12.9309 C293.482,15.4389 292.066,16.6989 289.87,16.6989 Z M295.51,16.5669 L295.51,8.1669 L299.254,8.1669 C300.31,8.1669 301.138,8.4789 301.678,9.0069 C302.122,9.4629 302.374,10.0869 302.374,10.8189 L302.374,10.8429 C302.374,12.2229 301.546,13.0509 300.382,13.3869 L302.65,16.5669 L300.898,16.5669 L298.834,13.6389 L296.986,13.6389 L296.986,16.5669 L295.51,16.5669 Z M296.986,12.3309 L299.146,12.3309 C300.202,12.3309 300.874,11.7789 300.874,10.9269 L300.874,10.9029 C300.874,10.0029 300.226,9.5109 299.134,9.5109 L296.986,9.5109 L296.986,12.3309 Z M304.27,16.5669 L304.27,8.1669 L305.746,8.1669 L305.746,16.5669 L304.27,16.5669 Z M310.042,16.5669 L310.042,9.5349 L307.366,9.5349 L307.366,8.1669 L314.194,8.1669 L314.194,9.5349 L311.518,9.5349 L311.518,16.5669 L310.042,16.5669 Z M318.202,16.5669 L318.202,13.2549 L314.866,8.1669 L316.618,8.1669 L318.958,11.8749 L321.334,8.1669 L323.026,8.1669 L319.69,13.2189 L319.69,16.5669 L318.202,16.5669 Z" id="SECURITY" fill="#FFFFFF"></path>
                <g transform="translate(8.000000, 8.000000)" id="Shape">
                    <path d="M4.7,5 L248.8,5" stroke="#FFFFFF" stroke-width="0.9936"></path>
                    <polygon fill="#FFFFFF" fill-rule="nonzero" points="5.3 0.4 5.3 9.5 0.7 5"></polygon>
                </g>
                <g transform="translate(323.000000, 8.000000)" id="Shape">
                    <path d="M242.2,5 L0.9,5" stroke="#FFFFFF" stroke-width="0.9936"></path>
                    <polygon fill="#FFFFFF" fill-rule="nonzero" points="241.5 9.5 241.5 0.4 246.1 5"></polygon>
                </g>
            </g>
            <path d="M240.554524,247.87846 C238.743448,247.87846 237.258692,247.274768 235.888148,246.051068 L236.687632,245.10474 C237.8787,246.181596 239.02082,246.720024 240.603472,246.720024 C242.137176,246.720024 243.148768,245.904224 243.148768,244.77842 L243.148768,244.745788 C243.148768,243.685248 242.577708,243.081556 240.179256,242.57576 C237.55238,242.0047 236.344996,241.156268 236.344996,239.279928 L236.344996,239.247296 C236.344996,237.452536 237.927648,236.13094 240.097676,236.13094 C241.761908,236.13094 242.952976,236.604104 244.111412,237.534116 L243.360876,238.529392 C242.300336,237.664644 241.239796,237.289376 240.065044,237.289376 C238.580288,237.289376 237.63396,238.105176 237.63396,239.133084 L237.63396,239.165716 C237.63396,240.242572 238.221336,240.846264 240.734,241.384692 C243.279296,241.939436 244.454048,242.869448 244.454048,244.61526 L244.454048,244.647892 C244.454048,246.605812 242.822448,247.87846 240.554524,247.87846 Z M250.229912,246.312124 L252.938368,239.279928 L254.27628,239.279928 L250.735708,247.992672 C250.017804,249.738484 249.202004,250.374808 247.929356,250.374808 C247.227768,250.374808 246.705656,250.227964 246.134596,249.950592 L246.558812,248.955316 C246.966712,249.167424 247.34198,249.26532 247.880408,249.26532 C248.630944,249.26532 249.104108,248.873736 249.609904,247.682668 L245.775644,239.279928 L247.162504,239.279928 L250.229912,246.312124 Z M256.266832,247.7153 L256.266832,239.279928 L257.523164,239.279928 L257.523164,240.748368 C258.077908,239.834672 258.958972,239.100452 260.411096,239.100452 C262.450596,239.100452 263.641664,240.470996 263.641664,242.477864 L263.641664,247.7153 L262.385332,247.7153 L262.385332,242.787868 C262.385332,241.221532 261.5369,240.242572 260.052144,240.242572 C258.60002,240.242572 257.523164,241.303112 257.523164,242.885764 L257.523164,247.7153 L256.266832,247.7153 Z M270.119116,247.911092 C267.6554,247.911092 265.795376,245.904224 265.795376,243.538404 L265.795376,243.505772 C265.795376,241.123636 267.6554,239.100452 270.119116,239.100452 C271.718084,239.100452 272.71336,239.769408 273.496528,240.601524 L272.664412,241.482588 C271.995456,240.781 271.24492,240.20994 270.1028,240.20994 C268.38962,240.20994 267.08434,241.662064 267.08434,243.47314 L267.08434,243.505772 C267.08434,245.333164 268.422252,246.785288 270.18438,246.785288 C271.261236,246.785288 272.093352,246.24686 272.762308,245.528956 L273.561792,246.279492 C272.71336,247.22582 271.701768,247.911092 270.119116,247.911092 Z M286.043532,247.911092 C282.454012,247.911092 280.235036,245.300532 280.235036,242.037332 L280.235036,242.0047 C280.235036,238.872028 282.535592,236.098308 285.961952,236.098308 C287.88724,236.098308 289.078308,236.653052 290.220428,237.615696 L289.388312,238.594656 C288.507248,237.827804 287.528288,237.289376 285.913004,237.289376 C283.384024,237.289376 281.572948,239.426772 281.572948,241.972068 L281.572948,242.0047 C281.572948,244.729472 283.31876,246.752656 286.09248,246.752656 C287.39776,246.752656 288.605144,246.24686 289.388312,245.610536 L289.388312,242.771552 L285.913004,242.771552 L285.913004,241.613116 L290.628328,241.613116 L290.628328,246.16528 C289.567788,247.111608 287.96882,247.911092 286.043532,247.911092 Z M295.996292,247.894776 C294.429956,247.894776 292.847304,246.997396 292.847304,245.2679 L292.847304,245.235268 C292.847304,243.456824 294.315744,242.510496 296.45314,242.510496 C297.529996,242.510496 298.296848,242.65734 299.047384,242.869448 L299.047384,242.57576 C299.047384,241.058372 298.117372,240.275204 296.53472,240.275204 C295.539444,240.275204 294.756276,240.53626 293.973108,240.895212 L293.59784,239.867304 C294.527852,239.443088 295.441548,239.165716 296.665248,239.165716 C297.856316,239.165716 298.770012,239.47572 299.39002,240.095728 C299.96108,240.666788 300.254768,241.482588 300.254768,242.559444 L300.254768,247.7153 L299.047384,247.7153 L299.047384,246.442652 C298.460008,247.209504 297.481048,247.894776 295.996292,247.894776 Z M296.241032,246.8995 C297.791052,246.8995 299.0637,245.953172 299.0637,244.61526 L299.0637,243.79946 C298.443692,243.619984 297.611576,243.440508 296.583668,243.440508 C295.001016,243.440508 294.119952,244.12578 294.119952,245.18632 L294.119952,245.218952 C294.119952,246.279492 295.098912,246.8995 296.241032,246.8995 Z M305.67168,247.862144 C304.317452,247.862144 303.289544,247.193188 303.289544,245.480008 L303.289544,240.389416 L302.114792,240.389416 L302.114792,239.279928 L303.289544,239.279928 L303.289544,236.734632 L304.545876,236.734632 L304.545876,239.279928 L307.2217,239.279928 L307.2217,240.389416 L304.545876,240.389416 L304.545876,245.316848 C304.545876,246.344756 305.116936,246.720024 305.965368,246.720024 C306.389584,246.720024 306.748536,246.638444 307.189068,246.426336 L307.189068,247.503192 C306.748536,247.731616 306.275372,247.862144 305.67168,247.862144 Z M312.883352,247.911092 C310.56648,247.911092 308.673824,246.132648 308.673824,243.522088 L308.673824,243.489456 C308.673824,241.058372 310.387004,239.100452 312.720192,239.100452 C315.21654,239.100452 316.652348,241.091004 316.652348,243.55472 C316.652348,243.71788 316.652348,243.815776 316.636032,243.96262 L309.946472,243.96262 C310.125948,245.790012 311.414912,246.81792 312.915984,246.81792 C314.07442,246.81792 314.89022,246.344756 315.575492,245.626852 L316.35866,246.32844 C315.510228,247.274768 314.48232,247.911092 312.883352,247.911092 Z M309.946472,243.032608 L315.3797,243.032608 C315.249172,241.498904 314.368108,240.160992 312.68756,240.160992 C311.21912,240.160992 310.109632,241.384692 309.946472,243.032608 Z M320.6824,247.780564 L317.729204,239.279928 L319.067116,239.279928 L321.286092,246.051068 L323.554016,239.247296 L324.59824,239.247296 L326.88248,246.051068 L329.101456,239.279928 L330.406736,239.279928 L327.437224,247.780564 L326.344052,247.780564 L324.076128,241.123636 L321.791888,247.780564 L320.6824,247.780564 Z M334.681528,247.894776 C333.115192,247.894776 331.53254,246.997396 331.53254,245.2679 L331.53254,245.235268 C331.53254,243.456824 333.00098,242.510496 335.138376,242.510496 C336.215232,242.510496 336.982084,242.65734 337.73262,242.869448 L337.73262,242.57576 C337.73262,241.058372 336.802608,240.275204 335.219956,240.275204 C334.22468,240.275204 333.441512,240.53626 332.658344,240.895212 L332.283076,239.867304 C333.213088,239.443088 334.126784,239.165716 335.350484,239.165716 C336.541552,239.165716 337.455248,239.47572 338.075256,240.095728 C338.646316,240.666788 338.940004,241.482588 338.940004,242.559444 L338.940004,247.7153 L337.73262,247.7153 L337.73262,246.442652 C337.145244,247.209504 336.166284,247.894776 334.681528,247.894776 Z M334.926268,246.8995 C336.476288,246.8995 337.748936,245.953172 337.748936,244.61526 L337.748936,243.79946 C337.128928,243.619984 336.296812,243.440508 335.268904,243.440508 C333.686252,243.440508 332.805188,244.12578 332.805188,245.18632 L332.805188,245.218952 C332.805188,246.279492 333.784148,246.8995 334.926268,246.8995 Z M344.895344,246.312124 L347.6038,239.279928 L348.941712,239.279928 L345.40114,247.992672 C344.683236,249.738484 343.867436,250.374808 342.594788,250.374808 C341.8932,250.374808 341.371088,250.227964 340.800028,249.950592 L341.224244,248.955316 C341.632144,249.167424 342.007412,249.26532 342.54584,249.26532 C343.296376,249.26532 343.76954,248.873736 344.275336,247.682668 L340.441076,239.279928 L341.827936,239.279928 L344.895344,246.312124 Z" id="Sync-Gateway" fill="#FFFFFF"></path>
            <path d="M23.767104,247.994092 C20.471272,247.994092 18.040188,245.399848 18.040188,242.120332 L18.040188,242.0877 C18.040188,238.857132 20.454956,236.181308 23.816052,236.181308 C25.888184,236.181308 27.1282,236.915528 28.27032,237.992384 L27.389256,238.938712 C26.426612,238.025016 25.349756,237.372376 23.799736,237.372376 C21.270756,237.372376 19.3781,239.428192 19.3781,242.055068 L19.3781,242.0877 C19.3781,244.730892 21.287072,246.803024 23.799736,246.803024 C25.366072,246.803024 26.39398,246.199332 27.487152,245.155108 L28.335584,245.987224 C27.144516,247.194608 25.839236,247.994092 23.767104,247.994092 Z M34.127764,247.994092 C31.598784,247.994092 29.755076,246.00354 29.755076,243.621404 L29.755076,243.588772 C29.755076,241.206636 31.6151,239.183452 34.160396,239.183452 C36.689376,239.183452 38.5494,241.174004 38.5494,243.55614 L38.5494,243.588772 C38.5494,245.970908 36.67306,247.994092 34.127764,247.994092 Z M34.160396,246.868288 C35.987788,246.868288 37.260436,245.399848 37.260436,243.621404 L37.260436,243.588772 C37.260436,241.777696 35.906208,240.29294 34.127764,240.29294 C32.300372,240.29294 31.04404,241.777696 31.04404,243.55614 L31.04404,243.588772 C31.04404,245.399848 32.381952,246.868288 34.160396,246.868288 Z M43.917364,247.977776 C41.877864,247.977776 40.686796,246.607232 40.686796,244.600364 L40.686796,239.362928 L41.943128,239.362928 L41.943128,244.29036 C41.943128,245.856696 42.79156,246.835656 44.276316,246.835656 C45.712124,246.835656 46.805296,245.775116 46.805296,244.192464 L46.805296,239.362928 L48.045312,239.362928 L48.045312,247.7983 L46.805296,247.7983 L46.805296,246.32986 C46.234236,247.243556 45.369488,247.977776 43.917364,247.977776 Z M54.669608,247.994092 C52.205892,247.994092 50.345868,245.987224 50.345868,243.621404 L50.345868,243.588772 C50.345868,241.206636 52.205892,239.183452 54.669608,239.183452 C56.268576,239.183452 57.263852,239.852408 58.04702,240.684524 L57.214904,241.565588 C56.545948,240.864 55.795412,240.29294 54.653292,240.29294 C52.940112,240.29294 51.634832,241.745064 51.634832,243.55614 L51.634832,243.588772 C51.634832,245.416164 52.972744,246.868288 54.734872,246.868288 C55.811728,246.868288 56.643844,246.32986 57.3128,245.611956 L58.112284,246.362492 C57.263852,247.30882 56.25226,247.994092 54.669608,247.994092 Z M60.184416,247.7983 L60.184416,235.88762 L61.440748,235.88762 L61.440748,240.831368 C61.995492,239.917672 62.876556,239.183452 64.32868,239.183452 C66.36818,239.183452 67.559248,240.553996 67.559248,242.560864 L67.559248,247.7983 L66.302916,247.7983 L66.302916,242.870868 C66.302916,241.304532 65.454484,240.325572 63.969728,240.325572 C62.517604,240.325572 61.440748,241.386112 61.440748,242.968764 L61.440748,247.7983 L60.184416,247.7983 Z M74.721972,247.977776 C73.155636,247.977776 72.144044,247.129344 71.491404,246.183016 L71.491404,247.7983 L70.235072,247.7983 L70.235072,235.88762 L71.491404,235.88762 L71.491404,241.059792 C72.176676,240.0482 73.171952,239.183452 74.721972,239.183452 C76.745156,239.183452 78.752024,240.78242 78.752024,243.55614 L78.752024,243.588772 C78.752024,246.346176 76.761472,247.977776 74.721972,247.977776 Z M74.493548,246.851972 C76.125148,246.851972 77.46306,245.644588 77.46306,243.605088 L77.46306,243.572456 C77.46306,241.581904 76.092516,240.309256 74.493548,240.309256 C72.927212,240.309256 71.442456,241.630852 71.442456,243.55614 L71.442456,243.588772 C71.442456,245.546692 72.927212,246.851972 74.493548,246.851972 Z M83.58156,247.977776 C82.015224,247.977776 80.432572,247.080396 80.432572,245.3509 L80.432572,245.318268 C80.432572,243.539824 81.901012,242.593496 84.038408,242.593496 C85.115264,242.593496 85.882116,242.74034 86.632652,242.952448 L86.632652,242.65876 C86.632652,241.141372 85.70264,240.358204 84.119988,240.358204 C83.124712,240.358204 82.341544,240.61926 81.558376,240.978212 L81.183108,239.950304 C82.11312,239.526088 83.026816,239.248716 84.250516,239.248716 C85.441584,239.248716 86.35528,239.55872 86.975288,240.178728 C87.546348,240.749788 87.840036,241.565588 87.840036,242.642444 L87.840036,247.7983 L86.632652,247.7983 L86.632652,246.525652 C86.045276,247.292504 85.066316,247.977776 83.58156,247.977776 Z M83.8263,246.9825 C85.37632,246.9825 86.648968,246.036172 86.648968,244.69826 L86.648968,243.88246 C86.02896,243.702984 85.196844,243.523508 84.168936,243.523508 C82.586284,243.523508 81.70522,244.20878 81.70522,245.26932 L81.70522,245.301952 C81.70522,246.362492 82.68418,246.9825 83.8263,246.9825 Z M93.305896,247.96146 C92.098512,247.96146 90.7606,247.488296 89.814272,246.721444 L90.450596,245.824064 C91.364292,246.509336 92.375884,246.90092 93.37116,246.90092 C94.382752,246.90092 95.116972,246.378808 95.116972,245.563008 L95.116972,245.530376 C95.116972,244.681944 94.121696,244.355624 93.012208,244.04562 C91.690612,243.670352 90.222172,243.213504 90.222172,241.663484 L90.222172,241.630852 C90.222172,240.178728 91.429556,239.216084 93.093788,239.216084 C94.121696,239.216084 95.263816,239.575036 96.128564,240.146096 L95.557504,241.092424 C94.774336,240.586628 93.876956,240.276624 93.061156,240.276624 C92.06588,240.276624 91.429556,240.798736 91.429556,241.500324 L91.429556,241.532956 C91.429556,242.33244 92.47378,242.642444 93.599584,242.98508 C94.904864,243.376664 96.30804,243.88246 96.30804,245.399848 L96.30804,245.43248 C96.30804,247.031448 94.986444,247.96146 93.305896,247.96146 Z M102.328644,247.994092 C100.011772,247.994092 98.119116,246.215648 98.119116,243.605088 L98.119116,243.572456 C98.119116,241.141372 99.832296,239.183452 102.165484,239.183452 C104.661832,239.183452 106.09764,241.174004 106.09764,243.63772 C106.09764,243.80088 106.09764,243.898776 106.081324,244.04562 L99.391764,244.04562 C99.57124,245.873012 100.860204,246.90092 102.361276,246.90092 C103.519712,246.90092 104.335512,246.427756 105.020784,245.709852 L105.803952,246.41144 C104.95552,247.357768 103.927612,247.994092 102.328644,247.994092 Z M99.391764,243.115608 L104.824992,243.115608 C104.694464,241.581904 103.8134,240.243992 102.132852,240.243992 C100.664412,240.243992 99.554924,241.467692 99.391764,243.115608 Z M113.407208,247.7983 L113.407208,236.3771 L114.696172,236.3771 L114.696172,246.607232 L121.124676,246.607232 L121.124676,247.7983 L113.407208,247.7983 Z M123.262072,237.51922 L123.262072,236.13236 L124.69788,236.13236 L124.69788,237.51922 L123.262072,237.51922 Z M123.343652,247.7983 L123.343652,239.362928 L124.599984,239.362928 L124.599984,247.7983 L123.343652,247.7983 Z M130.343216,247.945144 C128.988988,247.945144 127.96108,247.276188 127.96108,245.563008 L127.96108,240.472416 L126.786328,240.472416 L126.786328,239.362928 L127.96108,239.362928 L127.96108,236.817632 L129.217412,236.817632 L129.217412,239.362928 L131.893236,239.362928 L131.893236,240.472416 L129.217412,240.472416 L129.217412,245.399848 C129.217412,246.427756 129.788472,246.803024 130.636904,246.803024 C131.06112,246.803024 131.420072,246.721444 131.860604,246.509336 L131.860604,247.586192 C131.420072,247.814616 130.946908,247.945144 130.343216,247.945144 Z M137.554888,247.994092 C135.238016,247.994092 133.34536,246.215648 133.34536,243.605088 L133.34536,243.572456 C133.34536,241.141372 135.05854,239.183452 137.391728,239.183452 C139.888076,239.183452 141.323884,241.174004 141.323884,243.63772 C141.323884,243.80088 141.323884,243.898776 141.307568,244.04562 L134.618008,244.04562 C134.797484,245.873012 136.086448,246.90092 137.58752,246.90092 C138.745956,246.90092 139.561756,246.427756 140.247028,245.709852 L141.030196,246.41144 C140.181764,247.357768 139.153856,247.994092 137.554888,247.994092 Z M134.618008,243.115608 L140.051236,243.115608 C139.920708,241.581904 139.039644,240.243992 137.359096,240.243992 C135.890656,240.243992 134.781168,241.467692 134.618008,243.115608 Z" id="Couchbase-Lite" fill="#FFFFFF"></path>
            <path d="M432.502404,247.463792 C429.206572,247.463792 426.775488,244.869548 426.775488,241.590032 L426.775488,241.5574 C426.775488,238.326832 429.190256,235.651008 432.551352,235.651008 C434.623484,235.651008 435.8635,236.385228 437.00562,237.462084 L436.124556,238.408412 C435.161912,237.494716 434.085056,236.842076 432.535036,236.842076 C430.006056,236.842076 428.1134,238.897892 428.1134,241.524768 L428.1134,241.5574 C428.1134,244.200592 430.022372,246.272724 432.535036,246.272724 C434.101372,246.272724 435.12928,245.669032 436.222452,244.624808 L437.070884,245.456924 C435.879816,246.664308 434.574536,247.463792 432.502404,247.463792 Z M442.863064,247.463792 C440.334084,247.463792 438.490376,245.47324 438.490376,243.091104 L438.490376,243.058472 C438.490376,240.676336 440.3504,238.653152 442.895696,238.653152 C445.424676,238.653152 447.2847,240.643704 447.2847,243.02584 L447.2847,243.058472 C447.2847,245.440608 445.40836,247.463792 442.863064,247.463792 Z M442.895696,246.337988 C444.723088,246.337988 445.995736,244.869548 445.995736,243.091104 L445.995736,243.058472 C445.995736,241.247396 444.641508,239.76264 442.863064,239.76264 C441.035672,239.76264 439.77934,241.247396 439.77934,243.02584 L439.77934,243.058472 C439.77934,244.869548 441.117252,246.337988 442.895696,246.337988 Z M452.652664,247.447476 C450.613164,247.447476 449.422096,246.076932 449.422096,244.070064 L449.422096,238.832628 L450.678428,238.832628 L450.678428,243.76006 C450.678428,245.326396 451.52686,246.305356 453.011616,246.305356 C454.447424,246.305356 455.540596,245.244816 455.540596,243.662164 L455.540596,238.832628 L456.780612,238.832628 L456.780612,247.268 L455.540596,247.268 L455.540596,245.79956 C454.969536,246.713256 454.104788,247.447476 452.652664,247.447476 Z M463.404908,247.463792 C460.941192,247.463792 459.081168,245.456924 459.081168,243.091104 L459.081168,243.058472 C459.081168,240.676336 460.941192,238.653152 463.404908,238.653152 C465.003876,238.653152 465.999152,239.322108 466.78232,240.154224 L465.950204,241.035288 C465.281248,240.3337 464.530712,239.76264 463.388592,239.76264 C461.675412,239.76264 460.370132,241.214764 460.370132,243.02584 L460.370132,243.058472 C460.370132,244.885864 461.708044,246.337988 463.470172,246.337988 C464.547028,246.337988 465.379144,245.79956 466.0481,245.081656 L466.847584,245.832192 C465.999152,246.77852 464.98756,247.463792 463.404908,247.463792 Z M468.919716,247.268 L468.919716,235.35732 L470.176048,235.35732 L470.176048,240.301068 C470.730792,239.387372 471.611856,238.653152 473.06398,238.653152 C475.10348,238.653152 476.294548,240.023696 476.294548,242.030564 L476.294548,247.268 L475.038216,247.268 L475.038216,242.340568 C475.038216,240.774232 474.189784,239.795272 472.705028,239.795272 C471.252904,239.795272 470.176048,240.855812 470.176048,242.438464 L470.176048,247.268 L468.919716,247.268 Z M483.457272,247.447476 C481.890936,247.447476 480.879344,246.599044 480.226704,245.652716 L480.226704,247.268 L478.970372,247.268 L478.970372,235.35732 L480.226704,235.35732 L480.226704,240.529492 C480.911976,239.5179 481.907252,238.653152 483.457272,238.653152 C485.480456,238.653152 487.487324,240.25212 487.487324,243.02584 L487.487324,243.058472 C487.487324,245.815876 485.496772,247.447476 483.457272,247.447476 Z M483.228848,246.321672 C484.860448,246.321672 486.19836,245.114288 486.19836,243.074788 L486.19836,243.042156 C486.19836,241.051604 484.827816,239.778956 483.228848,239.778956 C481.662512,239.778956 480.177756,241.100552 480.177756,243.02584 L480.177756,243.058472 C480.177756,245.016392 481.662512,246.321672 483.228848,246.321672 Z M492.31686,247.447476 C490.750524,247.447476 489.167872,246.550096 489.167872,244.8206 L489.167872,244.787968 C489.167872,243.009524 490.636312,242.063196 492.773708,242.063196 C493.850564,242.063196 494.617416,242.21004 495.367952,242.422148 L495.367952,242.12846 C495.367952,240.611072 494.43794,239.827904 492.855288,239.827904 C491.860012,239.827904 491.076844,240.08896 490.293676,240.447912 L489.918408,239.420004 C490.84842,238.995788 491.762116,238.718416 492.985816,238.718416 C494.176884,238.718416 495.09058,239.02842 495.710588,239.648428 C496.281648,240.219488 496.575336,241.035288 496.575336,242.112144 L496.575336,247.268 L495.367952,247.268 L495.367952,245.995352 C494.780576,246.762204 493.801616,247.447476 492.31686,247.447476 Z M492.5616,246.4522 C494.11162,246.4522 495.384268,245.505872 495.384268,244.16796 L495.384268,243.35216 C494.76426,243.172684 493.932144,242.993208 492.904236,242.993208 C491.321584,242.993208 490.44052,243.67848 490.44052,244.73902 L490.44052,244.771652 C490.44052,245.832192 491.41948,246.4522 492.5616,246.4522 Z M502.041196,247.43116 C500.833812,247.43116 499.4959,246.957996 498.549572,246.191144 L499.185896,245.293764 C500.099592,245.979036 501.111184,246.37062 502.10646,246.37062 C503.118052,246.37062 503.852272,245.848508 503.852272,245.032708 L503.852272,245.000076 C503.852272,244.151644 502.856996,243.825324 501.747508,243.51532 C500.425912,243.140052 498.957472,242.683204 498.957472,241.133184 L498.957472,241.100552 C498.957472,239.648428 500.164856,238.685784 501.829088,238.685784 C502.856996,238.685784 503.999116,239.044736 504.863864,239.615796 L504.292804,240.562124 C503.509636,240.056328 502.612256,239.746324 501.796456,239.746324 C500.80118,239.746324 500.164856,240.268436 500.164856,240.970024 L500.164856,241.002656 C500.164856,241.80214 501.20908,242.112144 502.334884,242.45478 C503.640164,242.846364 505.04334,243.35216 505.04334,244.869548 L505.04334,244.90218 C505.04334,246.501148 503.721744,247.43116 502.041196,247.43116 Z M511.063944,247.463792 C508.747072,247.463792 506.854416,245.685348 506.854416,243.074788 L506.854416,243.042156 C506.854416,240.611072 508.567596,238.653152 510.900784,238.653152 C513.397132,238.653152 514.83294,240.643704 514.83294,243.10742 C514.83294,243.27058 514.83294,243.368476 514.816624,243.51532 L508.127064,243.51532 C508.30654,245.342712 509.595504,246.37062 511.096576,246.37062 C512.255012,246.37062 513.070812,245.897456 513.756084,245.179552 L514.539252,245.88114 C513.69082,246.827468 512.662912,247.463792 511.063944,247.463792 Z M508.127064,242.585308 L513.560292,242.585308 C513.429764,241.051604 512.5487,239.713692 510.868152,239.713692 C509.399712,239.713692 508.290224,240.937392 508.127064,242.585308 Z M526.058348,247.43116 C524.247272,247.43116 522.762516,246.827468 521.391972,245.603768 L522.191456,244.65744 C523.382524,245.734296 524.524644,246.272724 526.107296,246.272724 C527.641,246.272724 528.652592,245.456924 528.652592,244.33112 L528.652592,244.298488 C528.652592,243.237948 528.081532,242.634256 525.68308,242.12846 C523.056204,241.5574 521.84882,240.708968 521.84882,238.832628 L521.84882,238.799996 C521.84882,237.005236 523.431472,235.68364 525.6015,235.68364 C527.265732,235.68364 528.4568,236.156804 529.615236,237.086816 L528.8647,238.082092 C527.80416,237.217344 526.74362,236.842076 525.568868,236.842076 C524.084112,236.842076 523.137784,237.657876 523.137784,238.685784 L523.137784,238.718416 C523.137784,239.795272 523.72516,240.398964 526.237824,240.937392 C528.78312,241.492136 529.957872,242.422148 529.957872,244.16796 L529.957872,244.200592 C529.957872,246.158512 528.326272,247.43116 526.058348,247.43116 Z M536.060056,247.463792 C533.743184,247.463792 531.850528,245.685348 531.850528,243.074788 L531.850528,243.042156 C531.850528,240.611072 533.563708,238.653152 535.896896,238.653152 C538.393244,238.653152 539.829052,240.643704 539.829052,243.10742 C539.829052,243.27058 539.829052,243.368476 539.812736,243.51532 L533.123176,243.51532 C533.302652,245.342712 534.591616,246.37062 536.092688,246.37062 C537.251124,246.37062 538.066924,245.897456 538.752196,245.179552 L539.535364,245.88114 C538.686932,246.827468 537.659024,247.463792 536.060056,247.463792 Z M533.123176,242.585308 L538.556404,242.585308 C538.425876,241.051604 537.544812,239.713692 535.864264,239.713692 C534.395824,239.713692 533.286336,240.937392 533.123176,242.585308 Z M542.031712,247.268 L542.031712,238.832628 L543.288044,238.832628 L543.288044,241.035288 C543.908052,239.632112 545.131752,238.62052 546.73072,238.685784 L546.73072,240.040012 L546.632824,240.040012 C544.789116,240.040012 543.288044,241.361608 543.288044,243.906904 L543.288044,247.268 L542.031712,247.268 Z M551.46236,247.333264 L547.807576,238.832628 L549.194436,238.832628 L552.03342,245.832192 L554.88872,238.832628 L556.242948,238.832628 L552.571848,247.333264 L551.46236,247.333264 Z M561.41512,247.463792 C559.098248,247.463792 557.205592,245.685348 557.205592,243.074788 L557.205592,243.042156 C557.205592,240.611072 558.918772,238.653152 561.25196,238.653152 C563.748308,238.653152 565.184116,240.643704 565.184116,243.10742 C565.184116,243.27058 565.184116,243.368476 565.1678,243.51532 L558.47824,243.51532 C558.657716,245.342712 559.94668,246.37062 561.447752,246.37062 C562.606188,246.37062 563.421988,245.897456 564.10726,245.179552 L564.890428,245.88114 C564.041996,246.827468 563.014088,247.463792 561.41512,247.463792 Z M558.47824,242.585308 L563.911468,242.585308 C563.78094,241.051604 562.899876,239.713692 561.219328,239.713692 C559.750888,239.713692 558.6414,240.937392 558.47824,242.585308 Z M567.386776,247.268 L567.386776,238.832628 L568.643108,238.832628 L568.643108,241.035288 C569.263116,239.632112 570.486816,238.62052 572.085784,238.685784 L572.085784,240.040012 L571.987888,240.040012 C570.14418,240.040012 568.643108,241.361608 568.643108,243.906904 L568.643108,247.268 L567.386776,247.268 Z" id="Couchbase-Server" fill="#FFFFFF"></path>
            <g id="Group" transform="translate(350.000000, 186.000000)">
                <path d="M4.2,5.4 L93.1,5.4" id="Shape" stroke="#FFFFFF"></path>
                <polygon id="Shape" fill="#FFFFFF" fill-rule="nonzero" points="4.8 0.8 4.8 9.9 0.2 5.4"></polygon>
                <polygon id="Shape" fill="#FFFFFF" fill-rule="nonzero" points="92.4 0.8 92.4 9.9 97 5.4"></polygon>
            </g>
            <g id="Group" transform="translate(157.000000, 186.000000)">
                <path d="M4.6,5.4 L77,5.4" id="Shape" stroke="#FFFFFF"></path>
                <polygon id="Shape" fill="#FFFFFF" fill-rule="nonzero" points="5.2 0.8 5.2 9.9 0.6 5.4"></polygon>
                <polygon id="Shape" fill="#FFFFFF" fill-rule="nonzero" points="76.4 0.8 76.4 9.9 81 5.4"></polygon>
            </g>
            <g id="Two-pager-" transform="translate(259.000000, 157.000000)" fill="#FFFFFF" fill-rule="nonzero">
                <g id="Sync-Gateway">
                    <path d="M66.1,29.2 C64.9,22.9 61.8,17.1 57.3,12.6 C52.8,8.2 47,5.2 40.9,4.1 C34.8,3 28.4,3.8 22.9,6.3 C17.4,8.8 12.7,13 9.6,18.1 L8.4,20 L4.4,17.5 L5.7,15.6 C9.6,9.9 15.2,5.6 21.5,3.1 C27.8,0.7 34.8,0.2 41.3,1.8 C47.8,3.3 53.7,6.9 58,11.7 C62.5,16.8 65.3,22.9 66.1,29.2 Z" id="Fill-17"></path>
                    <polygon id="Fill-19" points="16.9 19.6 0.5 11.5 4.6 23.7"></polygon>
                    <path d="M3.4,38.7 C4.6,45 7.7,50.8 12.2,55.3 C16.7,59.7 22.5,62.7 28.6,63.8 C34.7,64.9 41.1,64.1 46.6,61.6 C52.1,59.1 56.8,54.9 59.9,49.8 L61.1,47.9 L65.1,50.4 L63.8,52.3 C59.9,58 54.3,62.3 48,64.8 C41.7,67.2 34.7,67.7 28.2,66.1 C21.7,64.6 15.8,61 11.5,56.2 C7,51.2 4.2,45 3.4,38.7" id="Fill-21"></path>
                    <polygon id="Fill-23" points="52.8 48 69.3 56.1 65.1 43.9"></polygon>
                </g>
            </g>
            <path d="M172.209164,184.2173 L172.209164,175.17582 L173.797881,175.17582 L173.797881,184.2173 L172.209164,184.2173 Z M176.019502,184.2173 L176.019502,177.397441 L177.595303,177.397441 L177.595303,178.443669 C178.03446,177.810766 178.667364,177.25536 179.726509,177.25536 C181.26356,177.25536 182.154792,178.288672 182.154792,179.864473 L182.154792,184.2173 L180.591907,184.2173 L180.591907,180.34238 C180.591907,179.283235 180.062335,178.676164 179.132354,178.676164 C178.228206,178.676164 177.595303,179.309068 177.595303,180.368213 L177.595303,184.2173 L176.019502,184.2173 Z M186.326789,184.333548 C185.177229,184.333548 184.363496,183.829808 184.363496,182.331506 L184.363496,178.740746 L183.498097,178.740746 L183.498097,177.397441 L184.363496,177.397441 L184.363496,175.524563 L185.926381,175.524563 L185.926381,177.397441 L187.760509,177.397441 L187.760509,178.740746 L185.926381,178.740746 L185.926381,182.086094 C185.926381,182.693165 186.236374,182.938576 186.765947,182.938576 C187.114689,182.938576 187.424683,182.861078 187.734677,182.706081 L187.734677,183.984805 C187.347185,184.204384 186.920943,184.333548 186.326789,184.333548 Z M192.281249,184.372297 C190.30504,184.372297 188.780905,182.938576 188.780905,180.833203 L188.780905,180.80737 C188.780905,178.856994 190.16296,177.25536 192.113336,177.25536 C194.283291,177.25536 195.381185,178.960325 195.381185,180.923618 C195.381185,181.065698 195.368269,181.207779 195.355353,181.362776 L190.343789,181.362776 C190.511703,182.473586 191.299603,183.093573 192.307082,183.093573 C193.06915,183.093573 193.611639,182.809412 194.154127,182.27984 L195.071192,183.093573 C194.425372,183.868557 193.53414,184.372297 192.281249,184.372297 Z M190.330873,180.329464 L193.831217,180.329464 C193.727886,179.321984 193.133732,178.534084 192.10042,178.534084 C191.144606,178.534084 190.472953,179.270319 190.330873,180.329464 Z M196.94407,184.2173 L196.94407,177.397441 L198.519871,177.397441 L198.519871,178.934492 C198.946112,177.914097 199.734012,177.216611 200.935237,177.268277 L200.935237,178.921576 L200.844823,178.921576 C199.475684,178.921576 198.519871,179.812808 198.519871,181.621104 L198.519871,184.2173 L196.94407,184.2173 Z M202.278543,184.2173 L202.278543,177.397441 L203.854344,177.397441 L203.854344,178.443669 C204.293501,177.810766 204.926405,177.25536 205.98555,177.25536 C207.522601,177.25536 208.413833,178.288672 208.413833,179.864473 L208.413833,184.2173 L206.850949,184.2173 L206.850949,180.34238 C206.850949,179.283235 206.321376,178.676164 205.391395,178.676164 C204.487247,178.676164 203.854344,179.309068 203.854344,180.368213 L203.854344,184.2173 L202.278543,184.2173 Z M213.425396,184.372297 C211.449187,184.372297 209.925052,182.938576 209.925052,180.833203 L209.925052,180.80737 C209.925052,178.856994 211.307107,177.25536 213.257483,177.25536 C215.427438,177.25536 216.525332,178.960325 216.525332,180.923618 C216.525332,181.065698 216.512416,181.207779 216.499499,181.362776 L211.487936,181.362776 C211.655849,182.473586 212.44375,183.093573 213.451229,183.093573 C214.213297,183.093573 214.755785,182.809412 215.298274,182.27984 L216.215339,183.093573 C215.569519,183.868557 214.678287,184.372297 213.425396,184.372297 Z M211.47502,180.329464 L214.975364,180.329464 C214.872033,179.321984 214.277879,178.534084 213.244567,178.534084 C212.288753,178.534084 211.6171,179.270319 211.47502,180.329464 Z M220.387336,184.333548 C219.237776,184.333548 218.424043,183.829808 218.424043,182.331506 L218.424043,178.740746 L217.558644,178.740746 L217.558644,177.397441 L218.424043,177.397441 L218.424043,175.524563 L219.986927,175.524563 L219.986927,177.397441 L221.821056,177.397441 L221.821056,178.740746 L219.986927,178.740746 L219.986927,182.086094 C219.986927,182.693165 220.296921,182.938576 220.826493,182.938576 C221.175236,182.938576 221.48523,182.861078 221.795223,182.706081 L221.795223,183.984805 C221.407731,184.204384 220.98149,184.333548 220.387336,184.333548 Z" id="Internet" fill="#FFFFFF"></path>
            <path d="M375.085835,184.2173 L375.085835,175.17582 L376.674552,175.17582 L376.674552,184.2173 L375.085835,184.2173 Z M378.896173,184.2173 L378.896173,177.397441 L380.471974,177.397441 L380.471974,178.443669 C380.911132,177.810766 381.544035,177.25536 382.60318,177.25536 C384.140232,177.25536 385.031463,178.288672 385.031463,179.864473 L385.031463,184.2173 L383.468579,184.2173 L383.468579,180.34238 C383.468579,179.283235 382.939006,178.676164 382.009026,178.676164 C381.104878,178.676164 380.471974,179.309068 380.471974,180.368213 L380.471974,184.2173 L378.896173,184.2173 Z M389.20346,184.333548 C388.053901,184.333548 387.240168,183.829808 387.240168,182.331506 L387.240168,178.740746 L386.374769,178.740746 L386.374769,177.397441 L387.240168,177.397441 L387.240168,175.524563 L388.803052,175.524563 L388.803052,177.397441 L390.637181,177.397441 L390.637181,178.740746 L388.803052,178.740746 L388.803052,182.086094 C388.803052,182.693165 389.113046,182.938576 389.642618,182.938576 C389.991361,182.938576 390.301354,182.861078 390.611348,182.706081 L390.611348,183.984805 C390.223856,184.204384 389.797615,184.333548 389.20346,184.333548 Z M392.212982,184.2173 L392.212982,177.397441 L393.788782,177.397441 L393.788782,178.934492 C394.215024,177.914097 395.002924,177.216611 396.204149,177.268277 L396.204149,178.921576 L396.113734,178.921576 C394.744596,178.921576 393.788782,179.812808 393.788782,181.621104 L393.788782,184.2173 L392.212982,184.2173 Z M399.200754,184.35938 C397.92203,184.35938 396.772471,183.623146 396.772471,182.254007 L396.772471,182.228174 C396.772471,180.755705 397.934947,180.032386 399.601162,180.032386 C400.36323,180.032386 400.905719,180.148634 401.435291,180.316547 L401.435291,180.148634 C401.435291,179.179904 400.841137,178.663248 399.743243,178.663248 C398.981175,178.663248 398.412854,178.831161 397.792866,179.089489 L397.366625,177.862431 C398.128693,177.526605 398.864928,177.307026 399.949905,177.307026 C400.970301,177.307026 401.732368,177.57827 402.210275,178.069094 C402.714015,178.559917 402.94651,179.283235 402.94651,180.174467 L402.94651,184.2173 L401.422375,184.2173 L401.422375,183.364818 C400.957384,183.920223 400.246982,184.35938 399.200754,184.35938 Z M399.639912,183.222737 C400.673224,183.222737 401.461124,182.628583 401.461124,181.763184 L401.461124,181.298194 C401.060716,181.143197 400.531143,181.026949 399.911156,181.026949 C398.903677,181.026949 398.309522,181.45319 398.309522,182.163592 L398.309522,182.189425 C398.309522,182.848162 398.89076,183.222737 399.639912,183.222737 Z M404.806472,184.2173 L404.806472,177.397441 L406.382272,177.397441 L406.382272,178.443669 C406.82143,177.810766 407.454334,177.25536 408.513478,177.25536 C410.05053,177.25536 410.941762,178.288672 410.941762,179.864473 L410.941762,184.2173 L409.378877,184.2173 L409.378877,180.34238 C409.378877,179.283235 408.849305,178.676164 407.919324,178.676164 C407.015176,178.676164 406.382272,179.309068 406.382272,180.368213 L406.382272,184.2173 L404.806472,184.2173 Z M415.953325,184.372297 C413.977116,184.372297 412.45298,182.938576 412.45298,180.833203 L412.45298,180.80737 C412.45298,178.856994 413.835035,177.25536 415.785412,177.25536 C417.955367,177.25536 419.053261,178.960325 419.053261,180.923618 C419.053261,181.065698 419.040344,181.207779 419.027428,181.362776 L414.015865,181.362776 C414.183778,182.473586 414.971678,183.093573 415.979158,183.093573 C416.741225,183.093573 417.283714,182.809412 417.826203,182.27984 L418.743267,183.093573 C418.097447,183.868557 417.206216,184.372297 415.953325,184.372297 Z M414.002948,180.329464 L417.503293,180.329464 C417.399962,179.321984 416.805807,178.534084 415.772495,178.534084 C414.816682,178.534084 414.145029,179.270319 414.002948,180.329464 Z M422.915264,184.333548 C421.765705,184.333548 420.951972,183.829808 420.951972,182.331506 L420.951972,178.740746 L420.086573,178.740746 L420.086573,177.397441 L420.951972,177.397441 L420.951972,175.524563 L422.514856,175.524563 L422.514856,177.397441 L424.348985,177.397441 L424.348985,178.740746 L422.514856,178.740746 L422.514856,182.086094 C422.514856,182.693165 422.82485,182.938576 423.354422,182.938576 C423.703165,182.938576 424.013158,182.861078 424.323152,182.706081 L424.323152,183.984805 C423.93566,184.204384 423.509419,184.333548 422.915264,184.333548 Z" id="Intranet" fill="#FFFFFF"></path>
            <g id="Group" transform="translate(37.678200, 209.000000) rotate(-90.000000) translate(-37.678200, -209.000000) translate(21.678200, 197.500000)" fill-rule="nonzero">
                <polygon id="Fill-35_3_" fill="url(#linearGradient-3)" points="5.6 1.4 5.6 21.7 28.6 21.7 28.6 1.4"></polygon>
                <path d="M0.4,20.3 L0.4,2.8 C0.4,1.8 1.2,0.9 2.3,0.9 L30,0.9 C31,0.9 31.9,1.7 31.9,2.8 L31.9,20.3 C31.9,21.3 31.1,22.2 30,22.2 L2.3,22.2 C1.3,22.2 0.4,21.4 0.4,20.3 Z M30.9,2.8 C30.9,2.3 30.5,1.9 30,1.9 L2.3,1.9 C1.8,1.9 1.4,2.3 1.4,2.8 L1.4,20.3 C1.4,20.8 1.8,21.2 2.3,21.2 L30,21.2 C30.5,21.2 30.9,20.8 30.9,20.3 L30.9,2.8 Z" id="Shape" fill="#010202"></path>
                <path d="M1.9,11.6 C1.9,11.5 1.9,11.5 1.9,11.6 C1.9,11.2 2.1,10.8 2.4,10.6 C2.7,10.4 3,10.2 3.4,10.3 C4.2,10.3 4.7,11 4.7,11.7 C4.7,12.1 4.5,12.4 4.2,12.6 C3.9,12.8 3.6,13 3.2,12.9 C2.4,12.9 1.9,12.3 1.9,11.6 Z M4,11.6 C4,11.2 3.7,10.8 3.3,10.8 C3.1,10.8 2.9,10.9 2.7,11 C2.5,11.1 2.5,11.3 2.4,11.5 C2.4,11.7 2.5,11.9 2.6,12.1 C2.7,12.3 2.9,12.3 3.1,12.4 C3.3,12.4 3.5,12.3 3.7,12.2 C3.9,12 4,11.8 4,11.6 C4,11.6 4,11.6 4,11.6 Z" id="Shape" fill="#010202"></path>
                <path d="M5.2,21.6 L5.2,1.5 C5.2,1.3 5.3,1.2 5.5,1.2 C5.7,1.2 5.8,1.3 5.8,1.5 L5.8,21.6 C5.8,21.8 5.7,21.9 5.5,21.9 C5.3,21.9 5.2,21.7 5.2,21.6 Z" id="Shape" fill="#010202"></path>
                <path d="M28.2,21.6 L28.2,1.5 C28.2,1.3 28.3,1.2 28.5,1.2 C28.7,1.2 28.8,1.3 28.8,1.5 L28.8,21.6 C28.8,21.8 28.7,21.9 28.5,21.9 C28.3,21.9 28.2,21.8 28.2,21.6 Z" id="Shape" fill="#010202"></path>
                <g id="Group-3" transform="translate(17.500000, 12.500000) rotate(90.000000) translate(-17.500000, -12.500000) translate(13.000000, 7.000000)" fill="#FEFEFE">
                    <path d="M3.9,4.2 C1.9,4.2 0.3,3.5 0.3,2.5 C0.3,1.6 1.9,0.8 3.9,0.8 C5.9,0.8 7.5,1.5 7.5,2.5 C7.5,3.5 5.9,4.2 3.9,4.2 Z M3.9,1.3 C2,1.3 0.7,2 0.7,2.6 C0.7,3.2 2,3.9 3.9,3.9 C5.8,3.9 7.1,3.2 7.1,2.6 C7.1,1.9 5.8,1.3 3.9,1.3 Z" id="Shape"></path>
                    <path d="M3.9,10.1 C1.9,10.1 0.3,9.4 0.3,8.4 L0.7,8.4 C0.7,9 2,9.7 3.9,9.7 C5.8,9.7 7.1,9 7.1,8.4 L7.5,8.4 C7.5,9.4 5.9,10.1 3.9,10.1 Z" id="Shape"></path>
                    <rect id="Rectangle-path" x="0.3" y="2.4" width="1" height="6.1"></rect>
                    <rect id="Rectangle-path" x="7.1" y="2.4" width="1" height="6.1"></rect>
                    <path d="M2.4,7 C2.4,7 2.4,6.9 2.4,6.8 C2.4,6.6 2.3,6.6 2.1,6.6 L2,6.6 L2,6.3 L2.1,6.3 C2.3,6.3 2.4,6.2 2.4,6.1 C2.4,6.1 2.4,6 2.4,5.9 C2.4,5.7 2.5,5.5 3,5.4 L3.1,5.6 C2.8,5.7 2.8,5.7 2.8,5.9 C2.8,5.9 2.8,6 2.8,6.1 C2.8,6.3 2.7,6.4 2.6,6.4 C2.8,6.5 2.8,6.5 2.8,6.7 C2.8,6.7 2.8,6.8 2.8,6.9 C2.8,7 2.8,7.1 3.1,7.2 L3,7.4 C2.5,7.4 2.4,7.3 2.4,7" id="Fill-87"></path>
                    <polygon id="Fill-88" points="3.1 7.2 3.5 7.2 3.5 6.8 3.1 6.8"></polygon>
                    <polygon id="Fill-89" points="3.8 7.2 4.2 7.2 4.2 6.8 3.8 6.8"></polygon>
                    <polygon id="Fill-90" points="4.2 7.2 4.6 7.2 4.6 6.8 4.2 6.8"></polygon>
                    <path d="M4.7,7.3 C5,7.2 5,7.2 5,7 C5,7 5,6.9 5,6.8 C5,6.6 5.1,6.5 5.2,6.5 C5,6.4 5,6.4 5,6.2 C5,6.2 5,6.1 5,6 C5,5.9 5,5.8 4.7,5.7 L4.8,5.5 C5.2,5.6 5.4,5.7 5.4,6 C5.4,6 5.4,6.1 5.4,6.2 C5.4,6.4 5.5,6.4 5.7,6.4 L5.8,6.4 L5.8,6.7 L5.7,6.7 C5.5,6.7 5.4,6.8 5.4,6.9 C5.4,6.9 5.4,7 5.4,7.1 C5.4,7.3 5.3,7.5 4.8,7.6 L4.7,7.3 Z" id="Fill-91"></path>
                </g>
            </g>
            <g id="Group-7" transform="translate(116.622800, 158.000000)" fill-rule="nonzero">
                <g id="Group-25" transform="translate(1.000000, 23.196000)" fill="url(#linearGradient-4)">
                    <path d="M1.1,0.8 C0.6,0.8 0.2,1.2 0.2,1.7 L0.2,13.5 C0.2,14 0.6,14.4 1.1,14.4 L12.9,14.4 C13.4,14.4 13.8,14 13.8,13.5 L13.8,1.7 C13.8,1.2 13.4,0.8 12.9,0.8 L1.1,0.8 Z" id="Fill-23_1_"></path>
                </g>
                <path d="M8,64.5 C5.4,64.5 3.3,62.4 3.3,59.8 L3.3,38 C3.3,37.5 3.7,37.1 4.2,37.1 L11.9,37.1 C12.4,37.1 12.8,37.5 12.8,38 L12.8,59.8 C12.8,62.4 10.7,64.5 8,64.5 Z M5.1,38.9 L5.1,59.8 C5.1,61.4 6.4,62.7 8,62.7 C9.6,62.7 11,61.4 11,59.8 L11,38.9 L5.1,38.9 Z" id="Shape" fill="#010202"></path>
                <path d="M9.6,58.7 C9.6,59.6 8.9,60.2 8.1,60.2 C7.2,60.2 6.6,59.5 6.6,58.7 C6.6,57.8 7.3,57.2 8.1,57.2 C8.9,57.1 9.6,57.8 9.6,58.7" id="Fill-28" fill="#010202"></path>
                <path d="M13.9,38.7 L2.2,38.7 C1.1,38.7 0.2,37.8 0.2,36.7 L0.2,25 C0.2,23.9 1.1,23 2.2,23 L13.9,23 C15,23 15.9,23.9 15.9,25 L15.9,36.7 C15.9,37.8 15,38.7 13.9,38.7 Z M2.2,24.3 C1.8,24.3 1.5,24.6 1.5,25 L1.5,36.7 C1.5,37.1 1.8,37.4 2.2,37.4 L13.9,37.4 C14.3,37.4 14.6,37.1 14.6,36.7 L14.6,25 C14.6,24.6 14.3,24.3 13.9,24.3 L2.2,24.3 Z" id="Shape" fill="#010202"></path>
                <polygon id="Fill-32" fill="#FEFEFE" points="4.2 23.5 11.9 23.5 11.9 2.4 4.2 2.4"></polygon>
                <path d="M11.9,24.4 L4.2,24.4 C3.7,24.4 3.3,24 3.3,23.5 L3.3,2.5 C3.3,2 3.7,1.6 4.2,1.6 L11.9,1.6 C12.4,1.6 12.8,2 12.8,2.5 L12.8,23.5 C12.8,24 12.4,24.4 11.9,24.4 Z M5.1,22.6 L11,22.6 L11,3.4 L5.1,3.4 L5.1,22.6 Z" id="Shape" fill="#010202"></path>
                <path d="M16.3,31.4 L15.7,31.4 C15.2,31.4 14.8,31 14.8,30.5 C14.8,30 15.2,29.6 15.7,29.6 L16.3,29.6 C16.8,29.6 17.2,30 17.2,30.5 C17.2,31 16.8,31.4 16.3,31.4 Z" id="Shape" fill="#010202"></path>
                <path d="M11.8,4.5 L4.3,4.5 C3.2,4.5 2.4,3.6 2.4,2.6 C2.4,1.5 3.3,0.7 4.3,0.7 L11.8,0.7 C12.9,0.7 13.7,1.6 13.7,2.6 C13.7,3.6 12.9,4.5 11.8,4.5" id="Fill-36" fill="#FEFEFE"></path>
                <path d="M11.8,4.9 L4.3,4.9 C3,4.9 1.9,3.8 1.9,2.5 C1.9,1.2 3,0.1 4.3,0.1 L11.8,0.1 C13.1,0.1 14.2,1.2 14.2,2.5 C14.2,3.8 13.1,4.9 11.8,4.9 Z M4.3,1.1 C3.5,1.1 2.8,1.8 2.8,2.6 C2.8,3.4 3.5,4.1 4.3,4.1 L11.8,4.1 C12.6,4.1 13.3,3.4 13.3,2.6 C13.3,1.8 12.6,1.1 11.8,1.1 L4.3,1.1 Z" id="Shape" fill="#010202"></path>
                <path d="M10.8,2.1 L5.3,2.1 C5.1,2.1 4.9,2.3 4.9,2.5 C4.9,2.7 5.1,2.9 5.3,2.9 L10.8,2.9 C11,2.9 11.2,2.7 11.2,2.5 C11.2,2.3 11,2.1 10.8,2.1" id="Fill-38" fill="#FEFEFE"></path>
                <path d="M10.8,3.4 L5.3,3.4 C4.8,3.4 4.5,3 4.5,2.6 C4.5,2.1 4.9,1.8 5.3,1.8 L10.8,1.8 C11.3,1.8 11.6,2.2 11.6,2.6 C11.6,3 11.3,3.4 10.8,3.4 Z" id="Shape" fill="#010202"></path>
                <path d="M7.9,29.5 C5.9,29.5 4.4,28.8 4.4,27.9 C4.4,27 5.9,26.3 7.9,26.3 C9.9,26.3 11.4,27 11.4,27.9 C11.3,28.8 9.9,29.5 7.9,29.5 Z M7.9,26.7 C6.1,26.7 4.9,27.3 4.9,27.9 C4.9,28.5 6.1,29.1 7.9,29.1 C9.7,29.1 10.9,28.5 10.9,27.9 C10.9,27.3 9.7,26.7 7.9,26.7 Z" id="Shape" fill="#FEFEFE"></path>
                <path d="M7.9,35.1 C5.9,35.1 4.4,34.4 4.4,33.5 L4.8,33.5 C4.8,34.1 6,34.7 7.8,34.7 C9.6,34.7 10.8,34.1 10.8,33.5 L11.2,33.5 C11.4,34.4 9.9,35.1 7.9,35.1 Z" id="Shape" fill="#FEFEFE"></path>
                <rect id="Rectangle-path" fill="#FEFEFE" x="4.4" y="27.8" width="1" height="5.8"></rect>
                <rect id="Rectangle-path" fill="#FEFEFE" x="10.9" y="27.8" width="1" height="5.8"></rect>
                <path d="M6.5,32.1 C6.5,32.1 6.5,32 6.5,31.9 C6.5,31.7 6.4,31.7 6.3,31.7 L6.2,31.7 L6.2,31.4 L6.3,31.4 C6.5,31.4 6.5,31.3 6.5,31.2 C6.5,31.2 6.5,31.1 6.5,31 C6.5,30.8 6.6,30.6 7,30.6 L7.1,30.8 C6.9,30.9 6.8,30.9 6.8,31.1 C6.8,31.1 6.8,31.2 6.8,31.3 C6.8,31.5 6.7,31.6 6.6,31.6 C6.8,31.6 6.8,31.7 6.8,31.9 C6.8,31.9 6.8,32 6.8,32.1 C6.8,32.2 6.8,32.3 7.1,32.4 L7,32.6 C6.6,32.5 6.5,32.4 6.5,32.1" id="Fill-111" fill="#FEFEFE"></path>
                <polygon id="Fill-112" fill="#FEFEFE" points="7.2 32.3 7.5 32.3 7.5 31.9 7.2 31.9"></polygon>
                <polygon id="Fill-113" fill="#FEFEFE" points="7.7 32.3 8.1 32.3 8.1 31.9 7.7 31.9"></polygon>
                <polygon id="Fill-114" fill="#FEFEFE" points="8.2 32.3 8.6 32.3 8.6 31.9 8.2 31.9"></polygon>
                <path d="M8.7,32.4 C8.9,32.3 9,32.3 9,32.1 C9,32.1 9,32 9,31.9 C9,31.7 9.1,31.6 9.2,31.6 C9,31.6 9,31.5 9,31.3 C9,31.3 9,31.2 9,31.1 C9,31 9,30.9 8.7,30.8 L8.8,30.6 C9.2,30.7 9.3,30.8 9.3,31 C9.3,31 9.3,31.1 9.3,31.2 C9.3,31.4 9.4,31.4 9.5,31.4 L9.6,31.4 L9.6,31.7 L9.5,31.7 C9.3,31.7 9.3,31.8 9.3,31.9 C9.3,31.9 9.3,32 9.3,32.1 C9.3,32.3 9.2,32.5 8.8,32.5 L8.7,32.4 Z" id="Fill-115" fill="#FEFEFE"></path>
            </g>
            <path d="M293.9,206.8 C287.5,206.8 282.4,204.7 282.1,201.8 L282.1,201.7 L282.1,182.1 L282.1,182 C282.2,179 287.2,176.8 293.9,176.8 C300.6,176.8 305.7,179.1 305.7,182.1 C305.7,182.2 305.7,182.2 305.7,182.3 L305.7,201.8 C305.4,204.6 300.3,206.8 293.9,206.8 Z" id="Shape" fill="#FFFFFF" fill-rule="nonzero"></path>
            <g id="Group" transform="translate(278.000000, 170.000000)" fill-rule="nonzero">
                <path d="M2,11.6 L2,33.8 C2,36.3 7.7,39 15.9,39 C23.9,39 29.5,36.4 29.8,34 L29.8,11.6 C27,13.7 22,15.1 15.9,15.1 C9.9,15.1 4.8,13.7 2,11.6 Z" id="Shape" fill="url(#linearGradient-5)"></path>
                <path d="M15.9,40.7 C7.3,40.7 0.5,37.8 0.1,34 L0.1,33.8 L0.1,7.6 L0.1,7.5 C0.2,3.5 7,0.6 15.9,0.6 C24.9,0.6 31.7,3.6 31.7,7.6 C31.7,7.7 31.7,7.8 31.7,7.9 L31.7,34 C31.3,37.9 24.5,40.7 15.9,40.7 Z M15.9,2.1 C8.1,2.1 1.6,4.7 1.6,7.7 C1.6,10.7 8.2,13.3 15.9,13.3 C23.4,13.3 29.8,10.9 30.2,8 L30.2,7.6 C30.1,4.9 24.5,2.1 15.9,2.1 Z" id="Shape" fill="url(#linearGradient-6)" opacity="0.8"></path>
                <path d="M15.9,2.1 C8.1,2.1 1.6,4.7 1.6,7.7 C1.6,10.7 8.2,13.3 15.9,13.3 C23.4,13.3 29.8,10.9 30.2,8 L30.2,7.6 C30.1,4.9 24.5,2.1 15.9,2.1 Z" id="Shape" fill="url(#linearGradient-7)"></path>
            </g>
            <path d="M289.5,199 L289.7,198.1 C288.7,197.8 288.6,197.6 288.6,197 C288.6,196.8 288.6,196.5 288.6,196.3 C288.6,195.6 288.3,195.3 287.6,195.1 C288.2,194.9 288.6,194.5 288.6,193.9 C288.6,193.7 288.6,193.4 288.6,193.2 C288.6,192.6 288.7,192.4 289.7,192.1 L289.5,191.2 C287.8,191.5 287.3,192.1 287.3,193 C287.3,193.1 287.3,193.5 287.3,193.6 C287.3,194.3 287,194.5 286.3,194.5 L286.1,194.5 L286.1,195.6 L286.3,195.6 C287,195.6 287.3,195.8 287.3,196.5 C287.3,196.7 287.3,197 287.3,197.1 C287.4,198.1 287.8,198.7 289.5,199 Z M290.8,197.7 L292.3,197.7 L292.3,196.2 L290.8,196.2 L290.8,197.7 Z M293.4,197.7 L294.9,197.7 L294.9,196.2 L293.4,196.2 L293.4,197.7 Z M296.1,197.7 L297.6,197.7 L297.6,196.2 L296.1,196.2 L296.1,197.7 Z M298.8,199 C300.5,198.7 301,198.1 301,197.2 C301,197.1 301,196.7 301,196.6 C301,195.9 301.3,195.7 302,195.7 L302.2,195.7 L302.2,194.6 L302,194.6 C301.3,194.6 301,194.4 301,193.7 C301,193.5 301,193.2 301,193.1 C301,192.2 300.5,191.6 298.8,191.3 L298.6,192.2 C299.6,192.5 299.7,192.7 299.7,193.3 C299.7,193.5 299.7,193.8 299.7,194 C299.7,194.7 300,195 300.7,195.2 C300.1,195.4 299.7,195.8 299.7,196.4 C299.7,196.6 299.7,196.9 299.7,197.1 C299.7,197.7 299.6,197.9 298.6,198.2 L298.8,199 Z" id="_x7B_..._x7D_" fill="#FFFFFF" fill-rule="nonzero"></path>
            <path d="M496.4,218.3 C483.2,218.3 472.8,213.9 472.2,208 L472.2,207.7 L472.2,167.4 L472.2,167.2 C472.4,161.1 482.8,156.5 496.5,156.5 C510.3,156.5 520.8,161.1 520.8,167.3 C520.8,167.5 520.8,167.6 520.8,167.8 L520.8,207.9 C520,213.9 509.6,218.3 496.4,218.3 Z" id="Shape" fill="#FFFFFF" fill-rule="nonzero"></path>
            <path d="M474.9,173.4 L474.9,207.5 C474.9,211.3 483.7,215.5 496.3,215.5 C508.5,215.5 517.2,211.6 517.7,207.9 L517.7,173.5 C513.4,176.8 505.6,178.9 496.3,178.9 C487,178.9 479.2,176.7 474.9,173.4 Z" id="Shape" fill="url(#linearGradient-8)" fill-rule="nonzero"></path>
            <path d="M496.4,158.9 C484.5,158.9 474.4,162.8 474.4,167.5 C474.4,172.1 484.5,176.1 496.4,176.1 C507.9,176.1 517.7,172.5 518.4,168 L518.4,167.4 C518.1,163.2 509.6,158.9 496.4,158.9 Z" id="Shape" fill="url(#linearGradient-9)" fill-rule="nonzero"></path>
            <path d="M496.4,218.3 C483.2,218.3 472.8,213.9 472.2,208 L472.2,207.7 L472.2,167.4 L472.2,167.2 C472.4,161.1 482.8,156.5 496.5,156.5 C510.3,156.5 520.8,161.1 520.8,167.3 C520.8,167.5 520.8,167.6 520.8,167.8 L520.8,207.9 C520,213.9 509.6,218.3 496.4,218.3 Z M496.4,158.9 C484.5,158.9 474.4,162.8 474.4,167.5 C474.4,172.1 484.5,176.1 496.4,176.1 C507.9,176.1 517.7,172.5 518.4,168 L518.4,167.4 C518.1,163.2 509.6,158.9 496.4,158.9 Z" id="Shape" fill="url(#linearGradient-10)" fill-rule="nonzero" opacity="0.8"></path>
            <path d="M489.1,201.4 L489.5,199.9 C487.9,199.5 487.7,199 487.7,198.1 C487.7,197.8 487.7,197.3 487.7,197 C487.7,195.9 487.1,195.3 486.1,195 C487.1,194.7 487.7,194.1 487.7,193 C487.7,192.7 487.7,192.2 487.7,191.9 C487.7,191 487.9,190.6 489.5,190.1 L489.1,188.6 C486.4,189.1 485.6,190 485.6,191.6 C485.6,191.8 485.6,192.4 485.6,192.6 C485.6,193.8 485.1,194.1 483.9,194.1 L483.5,194.1 L483.5,195.8 L483.9,195.8 C485.1,195.8 485.6,196.2 485.6,197.3 C485.6,197.6 485.6,198.1 485.6,198.3 C485.6,200 486.4,200.9 489.1,201.4 Z M491.2,199.3 L493.6,199.3 L493.6,196.9 L491.2,196.9 L491.2,199.3 Z M495.5,199.3 L497.9,199.3 L497.9,196.9 L495.5,196.9 L495.5,199.3 Z M499.8,199.3 L502.2,199.3 L502.2,196.9 L499.8,196.9 L499.8,199.3 Z M504.2,201.4 C506.9,200.9 507.7,200 507.7,198.4 C507.7,198.2 507.7,197.6 507.7,197.4 C507.7,196.2 508.2,195.9 509.4,195.9 L509.8,195.9 L509.8,194.2 L509.4,194.2 C508.2,194.2 507.7,193.8 507.7,192.7 C507.7,192.4 507.7,191.9 507.7,191.7 C507.7,190.2 506.9,189.2 504.2,188.7 L503.8,190.2 C505.4,190.6 505.6,191.1 505.6,192 C505.6,192.3 505.6,192.8 505.6,193.1 C505.6,194.2 506.2,194.8 507.2,195.1 C506.2,195.4 505.6,196 505.6,197.1 C505.6,197.4 505.6,197.9 505.6,198.2 C505.6,199.1 505.4,199.5 503.8,200 L504.2,201.4 Z" id="_x7B_..._x7D__2_" fill="#FFFFFF" fill-rule="nonzero"></path>
            <path d="M2.2,114.4 L2.2,10.5 C2.2,4.7 7,0 12.8,0 L567.7,0 C573.5,0 578.2,4.7 578.2,10.5 L578.2,114.4 C578.2,120.2 573.5,124.9 567.7,124.9 L12.8,124.9 C7,124.9 2.2,120.2 2.2,114.4 Z" id="Shape" stroke="url(#linearGradient-11)" stroke-width="3" fill-rule="nonzero"></path>
            <path d="M171.6,49.7 C171.6,68.9 156.2,84.4 137.3,84.4 C118.3,84.4 103,68.8 103,49.7 C103,30.6 118.3,15 137.3,15 C156.3,15 171.6,30.5 171.6,49.7 Z" id="Stroke-130" fill="#EB4971" fill-rule="nonzero"></path>
            <path d="M327.7,49.7 C327.7,68.9 312.3,84.4 293.4,84.4 C274.4,84.4 259.1,68.8 259.1,49.7 C259.1,30.6 274.4,15 293.4,15 C312.3,15 327.7,30.5 327.7,49.7 Z" id="Stroke-130_1_" fill="#00ACE0" fill-rule="nonzero"></path>
            <path d="M483.3,49.7 C483.3,68.9 467.9,84.4 449,84.4 C430,84.4 414.7,68.8 414.7,49.7 C414.7,30.6 430,15 449,15 C467.9,15 483.3,30.5 483.3,49.7 Z" id="Stroke-130_2_" fill="#FC9C0C" fill-rule="nonzero"></path>
            <path d="M87.676236,109.749992 C84.168296,109.749992 81.720896,107.090484 81.720896,103.876232 L81.720896,103.8436 C81.720896,100.629348 84.200928,97.937208 87.708868,97.937208 C91.216808,97.937208 93.664208,100.596716 93.664208,103.810968 L93.664208,103.8436 C93.664208,107.057852 91.184176,109.749992 87.676236,109.749992 Z M87.708868,107.889968 C89.976792,107.889968 91.559444,106.095208 91.559444,103.876232 L91.559444,103.8436 C91.559444,101.624624 89.94416,99.797232 87.676236,99.797232 C85.408312,99.797232 83.82566,101.591992 83.82566,103.810968 L83.82566,103.8436 C83.82566,106.062576 85.440944,107.889968 87.708868,107.889968 Z M95.850552,109.5542 L95.850552,100.939352 L97.841104,100.939352 L97.841104,102.260948 C98.395848,101.461464 99.195332,100.759876 100.533244,100.759876 C102.474848,100.759876 103.600652,102.065156 103.600652,104.055708 L103.600652,109.5542 L101.626416,109.5542 L101.626416,104.6594 C101.626416,103.321488 100.95746,102.554636 99.782708,102.554636 C98.640588,102.554636 97.841104,103.35412 97.841104,104.692032 L97.841104,109.5542 L95.850552,109.5542 Z M109.93126,109.749992 C107.434912,109.749992 105.509624,107.938916 105.509624,105.279408 L105.509624,105.246776 C105.509624,102.78306 107.255436,100.759876 109.719152,100.759876 C112.46024,100.759876 113.8471,102.913588 113.8471,105.39362 C113.8471,105.573096 113.830784,105.752572 113.814468,105.948364 L107.48386,105.948364 C107.695968,107.35154 108.691244,108.134708 109.963892,108.134708 C110.926536,108.134708 111.611808,107.775756 112.29708,107.1068 L113.455516,108.134708 C112.639716,109.113668 111.513912,109.749992 109.93126,109.749992 Z M107.467544,104.643084 L111.88918,104.643084 C111.758652,103.370436 111.008116,102.37516 109.702836,102.37516 C108.495452,102.37516 107.64702,103.305172 107.467544,104.643084 Z M120.960876,109.5542 L120.960876,98.133 L125.464092,98.133 C128.139916,98.133 129.804148,99.650388 129.804148,101.950944 L129.804148,101.983576 C129.804148,104.545188 127.748332,105.8831 125.235668,105.8831 L122.967744,105.8831 L122.967744,109.5542 L120.960876,109.5542 Z M122.967744,104.072024 L125.300932,104.072024 C126.81832,104.072024 127.764648,103.223592 127.764648,102.032524 L127.764648,101.999892 C127.764648,100.66198 126.802004,99.960392 125.300932,99.960392 L122.967744,99.960392 L122.967744,104.072024 Z M131.729436,109.5542 L131.729436,97.64352 L133.719988,97.64352 L133.719988,109.5542 L131.729436,109.5542 Z M138.777948,109.733676 C137.162664,109.733676 135.71054,108.803664 135.71054,107.074168 L135.71054,107.041536 C135.71054,105.181512 137.17898,104.267816 139.283744,104.267816 C140.246388,104.267816 140.93166,104.41466 141.600616,104.626768 L141.600616,104.41466 C141.600616,103.19096 140.85008,102.53832 139.46322,102.53832 C138.500576,102.53832 137.782672,102.750428 136.999504,103.076748 L136.461076,101.526728 C137.42372,101.102512 138.353732,100.82514 139.724276,100.82514 C141.01324,100.82514 141.975884,101.167776 142.579576,101.787784 C143.2159,102.407792 143.509588,103.321488 143.509588,104.447292 L143.509588,109.5542 L141.5843,109.5542 L141.5843,108.477344 C140.996924,109.178932 140.099544,109.733676 138.777948,109.733676 Z M139.332692,108.297868 C140.637972,108.297868 141.633248,107.547332 141.633248,106.45416 L141.633248,105.866784 C141.127452,105.670992 140.458496,105.524148 139.675328,105.524148 C138.40268,105.524148 137.652144,106.062576 137.652144,106.959956 L137.652144,106.992588 C137.652144,107.824704 138.386364,108.297868 139.332692,108.297868 Z M148.68176,109.701044 C147.229636,109.701044 146.201728,109.06472 146.201728,107.172064 L146.201728,102.636216 L145.108556,102.636216 L145.108556,100.939352 L146.201728,100.939352 L146.201728,98.573532 L148.175964,98.573532 L148.175964,100.939352 L150.492836,100.939352 L150.492836,102.636216 L148.175964,102.636216 L148.175964,106.86206 C148.175964,107.628912 148.567548,107.938916 149.236504,107.938916 C149.677036,107.938916 150.06862,107.84102 150.460204,107.645228 L150.460204,109.260512 C149.970724,109.537884 149.432296,109.701044 148.68176,109.701044 Z M152.940236,109.5542 L152.940236,102.636216 L151.847064,102.636216 L151.847064,100.9883 L152.940236,100.9883 L152.940236,100.351976 C152.940236,99.405648 153.184976,98.687744 153.641824,98.230896 C154.098672,97.774048 154.734996,97.545624 155.567112,97.545624 C156.2687,97.545624 156.741864,97.64352 157.182396,97.774048 L157.182396,99.43828 C156.790812,99.307752 156.448176,99.226172 156.02396,99.226172 C155.273424,99.226172 154.88184,99.650388 154.88184,100.531452 L154.88184,101.004616 L157.16608,101.004616 L157.16608,102.636216 L154.914472,102.636216 L154.914472,109.5542 L152.940236,109.5542 Z M162.566676,109.749992 C159.9398,109.749992 157.998196,107.743124 157.998196,105.295724 L157.998196,105.263092 C157.998196,102.799376 159.956116,100.759876 162.599308,100.759876 C165.2425,100.759876 167.184104,102.766744 167.184104,105.23046 L167.184104,105.263092 C167.184104,107.710492 165.226184,109.749992 162.566676,109.749992 Z M162.599308,108.020496 C164.198276,108.020496 165.209868,106.78048 165.209868,105.295724 L165.209868,105.263092 C165.209868,103.745704 164.116696,102.489372 162.566676,102.489372 C160.984024,102.489372 159.972432,103.729388 159.972432,105.23046 L159.972432,105.263092 C159.972432,106.764164 161.065604,108.020496 162.599308,108.020496 Z M169.174656,109.5542 L169.174656,100.939352 L171.165208,100.939352 L171.165208,102.880956 C171.703636,101.591992 172.698912,100.710928 174.2163,100.776192 L174.2163,102.86464 L174.102088,102.86464 C172.372592,102.86464 171.165208,103.990444 171.165208,106.274684 L171.165208,109.5542 L169.174656,109.5542 Z M175.913164,109.5542 L175.913164,100.939352 L177.903716,100.939352 L177.903716,102.244632 C178.45846,101.47778 179.208996,100.759876 180.530592,100.759876 C181.770608,100.759876 182.651672,101.363568 183.10852,102.277264 C183.793792,101.363568 184.707488,100.759876 186.012768,100.759876 C187.889108,100.759876 189.031228,101.950944 189.031228,104.055708 L189.031228,109.5542 L187.056992,109.5542 L187.056992,104.6594 C187.056992,103.288856 186.420668,102.554636 185.31118,102.554636 C184.234324,102.554636 183.467472,103.305172 183.467472,104.692032 L183.467472,109.5542 L181.493236,109.5542 L181.493236,104.643084 C181.493236,103.305172 180.840596,102.554636 179.747424,102.554636 C178.654252,102.554636 177.903716,103.370436 177.903716,104.692032 L177.903716,109.5542 L175.913164,109.5542 Z" id="One-Platform" fill="#FFFFFF"></path>
            <path d="M260.960472,109.749492 C257.615692,109.749492 255.151976,107.155248 255.151976,103.875732 L255.151976,103.8431 C255.151976,100.596216 257.58306,97.936708 261.025736,97.936708 C263.146816,97.936708 264.419464,98.670928 265.512636,99.715152 L264.223672,101.199908 C263.29366,100.351476 262.331016,99.796732 261.00942,99.796732 C258.855708,99.796732 257.25674,101.575176 257.25674,103.810468 L257.25674,103.8431 C257.25674,106.078392 258.839392,107.889468 261.025736,107.889468 C262.428912,107.889468 263.326292,107.334724 264.305252,106.421028 L265.594216,107.726308 C264.403148,108.966324 263.097868,109.749492 260.960472,109.749492 Z M271.419028,109.749492 C268.792152,109.749492 266.850548,107.742624 266.850548,105.295224 L266.850548,105.262592 C266.850548,102.798876 268.808468,100.759376 271.45166,100.759376 C274.094852,100.759376 276.036456,102.766244 276.036456,105.22996 L276.036456,105.262592 C276.036456,107.709992 274.078536,109.749492 271.419028,109.749492 Z M271.45166,108.019996 C273.050628,108.019996 274.06222,106.77998 274.06222,105.295224 L274.06222,105.262592 C274.06222,103.745204 272.969048,102.488872 271.419028,102.488872 C269.836376,102.488872 268.824784,103.728888 268.824784,105.22996 L268.824784,105.262592 C268.824784,106.763664 269.917956,108.019996 271.45166,108.019996 Z M278.027008,109.5537 L278.027008,100.938852 L280.01756,100.938852 L280.01756,102.244132 C280.572304,101.47728 281.32284,100.759376 282.644436,100.759376 C283.884452,100.759376 284.765516,101.363068 285.222364,102.276764 C285.907636,101.363068 286.821332,100.759376 288.126612,100.759376 C290.002952,100.759376 291.145072,101.950444 291.145072,104.055208 L291.145072,109.5537 L289.170836,109.5537 L289.170836,104.6589 C289.170836,103.288356 288.534512,102.554136 287.425024,102.554136 C286.348168,102.554136 285.581316,103.304672 285.581316,104.691532 L285.581316,109.5537 L283.60708,109.5537 L283.60708,104.642584 C283.60708,103.304672 282.95444,102.554136 281.861268,102.554136 C280.768096,102.554136 280.01756,103.369936 280.01756,104.691532 L280.01756,109.5537 L278.027008,109.5537 Z M293.510892,112.16426 L293.510892,100.938852 L295.501444,100.938852 L295.501444,102.37466 C296.137768,101.47728 297.035148,100.759376 298.438324,100.759376 C300.461508,100.759376 302.435744,102.358344 302.435744,105.22996 L302.435744,105.262592 C302.435744,108.117892 300.477824,109.733176 298.438324,109.733176 C297.002516,109.733176 296.105136,109.015272 295.501444,108.215788 L295.501444,112.16426 L293.510892,112.16426 Z M297.96516,108.019996 C299.319388,108.019996 300.428876,106.959456 300.428876,105.262592 L300.428876,105.22996 C300.428876,103.565728 299.286756,102.472556 297.96516,102.472556 C296.627248,102.472556 295.452496,103.582044 295.452496,105.22996 L295.452496,105.262592 C295.452496,106.910508 296.627248,108.019996 297.96516,108.019996 Z M304.57314,109.5537 L304.57314,97.64302 L306.563692,97.64302 L306.563692,109.5537 L304.57314,109.5537 Z M313.090092,109.749492 C310.593744,109.749492 308.668456,107.938416 308.668456,105.278908 L308.668456,105.246276 C308.668456,102.78256 310.414268,100.759376 312.877984,100.759376 C315.619072,100.759376 317.005932,102.913088 317.005932,105.39312 C317.005932,105.572596 316.989616,105.752072 316.9733,105.947864 L310.642692,105.947864 C310.8548,107.35104 311.850076,108.134208 313.122724,108.134208 C314.085368,108.134208 314.77064,107.775256 315.455912,107.1063 L316.614348,108.134208 C315.798548,109.113168 314.672744,109.749492 313.090092,109.749492 Z M310.626376,104.642584 L315.048012,104.642584 C314.917484,103.369936 314.166948,102.37466 312.861668,102.37466 C311.654284,102.37466 310.805852,103.304672 310.626376,104.642584 Z M321.884416,109.700544 C320.432292,109.700544 319.404384,109.06422 319.404384,107.171564 L319.404384,102.635716 L318.311212,102.635716 L318.311212,100.938852 L319.404384,100.938852 L319.404384,98.573032 L321.37862,98.573032 L321.37862,100.938852 L323.695492,100.938852 L323.695492,102.635716 L321.37862,102.635716 L321.37862,106.86156 C321.37862,107.628412 321.770204,107.938416 322.43916,107.938416 C322.879692,107.938416 323.271276,107.84052 323.66286,107.644728 L323.66286,109.260012 C323.17338,109.537384 322.634952,109.700544 321.884416,109.700544 Z M329.406092,109.749492 C326.909744,109.749492 324.984456,107.938416 324.984456,105.278908 L324.984456,105.246276 C324.984456,102.78256 326.730268,100.759376 329.193984,100.759376 C331.935072,100.759376 333.321932,102.913088 333.321932,105.39312 C333.321932,105.572596 333.305616,105.752072 333.2893,105.947864 L326.958692,105.947864 C327.1708,107.35104 328.166076,108.134208 329.438724,108.134208 C330.401368,108.134208 331.08664,107.775256 331.771912,107.1063 L332.930348,108.134208 C332.114548,109.113168 330.988744,109.749492 329.406092,109.749492 Z M326.942376,104.642584 L331.364012,104.642584 C331.233484,103.369936 330.482948,102.37466 329.177668,102.37466 C327.970284,102.37466 327.121852,103.304672 326.942376,104.642584 Z" id="Complete" fill="#FFFFFF"></path>
            <path d="M429.200646,109.71636 C427.454834,109.71636 425.806918,109.112668 424.436374,107.888968 L425.643758,106.45316 C426.73693,107.399488 427.846418,107.937916 429.249594,107.937916 C430.48961,107.937916 431.272778,107.35054 431.272778,106.502108 L431.272778,106.469476 C431.272778,105.653676 430.81593,105.213144 428.69485,104.723664 C426.263766,104.136288 424.893222,103.418384 424.893222,101.31362 L424.893222,101.280988 C424.893222,99.323068 426.524822,97.96884 428.792746,97.96884 C430.456978,97.96884 431.778574,98.474636 432.93701,99.404648 L431.860154,100.922036 C430.832246,100.155184 429.804338,99.747284 428.760114,99.747284 C427.585362,99.747284 426.90009,100.350976 426.90009,101.101512 L426.90009,101.134144 C426.90009,102.015208 427.422202,102.406792 429.624862,102.928904 C432.03963,103.51628 433.279646,104.381028 433.279646,106.273684 L433.279646,106.306316 C433.279646,108.443712 431.599098,109.71636 429.200646,109.71636 Z M439.365514,109.748992 C436.869166,109.748992 434.943878,107.937916 434.943878,105.278408 L434.943878,105.245776 C434.943878,102.78206 436.68969,100.758876 439.153406,100.758876 C441.894494,100.758876 443.281354,102.912588 443.281354,105.39262 C443.281354,105.572096 443.265038,105.751572 443.248722,105.947364 L436.918114,105.947364 C437.130222,107.35054 438.125498,108.133708 439.398146,108.133708 C440.36079,108.133708 441.046062,107.774756 441.731334,107.1058 L442.88977,108.133708 C442.07397,109.112668 440.948166,109.748992 439.365514,109.748992 Z M436.901798,104.642084 L441.323434,104.642084 C441.192906,103.369436 440.44237,102.37416 439.13709,102.37416 C437.929706,102.37416 437.081274,103.304172 436.901798,104.642084 Z M449.25301,109.748992 C446.691398,109.748992 444.798742,107.742124 444.798742,105.294724 L444.798742,105.262092 C444.798742,102.814692 446.691398,100.758876 449.285642,100.758876 C450.900926,100.758876 451.912518,101.362568 452.728318,102.243632 L451.488302,103.565228 C450.88461,102.94522 450.248286,102.488372 449.269326,102.488372 C447.833518,102.488372 446.772978,103.728388 446.772978,105.22946 L446.772978,105.262092 C446.772978,106.795796 447.833518,108.019496 449.350906,108.019496 C450.280918,108.019496 450.949874,107.59528 451.586198,106.958956 L452.777266,108.133708 C451.928834,109.080036 450.933558,109.748992 449.25301,109.748992 Z M457.541538,109.732676 C455.599934,109.732676 454.47413,108.427396 454.47413,106.420528 L454.47413,100.938352 L456.448366,100.938352 L456.448366,105.833152 C456.448366,107.171064 457.117322,107.9216 458.292074,107.9216 C459.434194,107.9216 460.233678,107.138432 460.233678,105.80052 L460.233678,100.938352 L462.22423,100.938352 L462.22423,109.5532 L460.233678,109.5532 L460.233678,108.215288 C459.678934,109.031088 458.87945,109.732676 457.541538,109.732676 Z M464.67163,109.5532 L464.67163,100.938352 L466.662182,100.938352 L466.662182,102.879956 C467.20061,101.590992 468.195886,100.709928 469.713274,100.775192 L469.713274,102.86364 L469.599062,102.86364 C467.869566,102.86364 466.662182,103.989444 466.662182,106.273684 L466.662182,109.5532 L464.67163,109.5532 Z M475.081238,109.748992 C472.58489,109.748992 470.659602,107.937916 470.659602,105.278408 L470.659602,105.245776 C470.659602,102.78206 472.405414,100.758876 474.86913,100.758876 C477.610218,100.758876 478.997078,102.912588 478.997078,105.39262 C478.997078,105.572096 478.980762,105.751572 478.964446,105.947364 L472.633838,105.947364 C472.845946,107.35054 473.841222,108.133708 475.11387,108.133708 C476.076514,108.133708 476.761786,107.774756 477.447058,107.1058 L478.605494,108.133708 C477.789694,109.112668 476.66389,109.748992 475.081238,109.748992 Z M472.617522,104.642084 L477.039158,104.642084 C476.90863,103.369436 476.158094,102.37416 474.852814,102.37416 C473.64543,102.37416 472.796998,103.304172 472.617522,104.642084 Z" id="Secure" fill="#FFFFFF"></path>
            <polygon id="1" fill="#FFFFFF" points="135.78962 66.7885 135.78962 40.875144 130.160166 42.438881 128.998533 37.971061 137.442713 35.290369 141.24036 35.290369 141.24036 66.7885"></polygon>
            <path d="M456.4,55 L463.7,55 L463.7,52.9 L456.4,52.9 L456.4,55 Z M456.4,59.7 L463.7,59.7 L463.7,57.6 L456.4,57.6 L456.4,59.7 Z M456.4,50.2 L463.7,50.2 L463.7,48.1 L456.4,48.1 L456.4,50.2 Z M455.4,43.6 L442.3,43.6 L442.3,40.7 C442.3,37.1 445,34.2 448.4,34.2 L449.3,34.2 C452.7,34.2 455.4,37.1 455.4,40.7 L455.4,43.6 Z M450.3,55.4 L450.5,60.2 L447.3,60.2 L447.5,55.4 C446.9,55 446.5,54.2 446.5,53.4 C446.5,52 447.6,51 448.9,51 C450.2,51 451.3,52.1 451.3,53.4 C451.3,54.2 450.9,55 450.3,55.4 Z M455.8,57.1 L463.2,57.1 L463.2,55.6 L455.8,55.6 L455.8,52.3 L463.2,52.3 L463.2,50.8 L455.8,50.8 L455.8,47.5 L463.2,47.5 L463.2,45.4 C463.2,44.4 462.4,43.6 461.4,43.6 L459.9,43.6 L459.9,40.7 C459.9,34.6 455.1,29.7 449.3,29.7 L448.4,29.7 C442.5,29.7 437.8,34.6 437.8,40.7 L437.8,43.6 L436.3,43.6 C435.3,43.6 434.5,44.4 434.5,45.4 L434.5,65.7 C434.5,66.7 435.3,67.5 436.3,67.5 L461.4,67.5 C462.4,67.5 463.2,66.7 463.2,65.7 L463.2,60.3 L455.8,60.3 L455.8,57.1 Z" id="Fill-110" fill="#FEFEFE" fill-rule="nonzero"></path>
            <path d="M277.6,48.1 C279.2,50 284,56.9 286.5,64.5 C287.3,67 291,67.6 292.1,65.1 C302,42.4 309.8,39.2 312.7,36.4 C313,36.1 312.8,35.5 312.4,35.5 C309.5,35.2 305.5,36.3 303,38.4 C295.6,44.8 290.2,55.8 290.2,55.8 C290.2,55.8 286.8,47.8 284.1,46.9 C282.2,46.3 279.5,46.7 278.1,47 C277.5,47.2 277.3,47.8 277.6,48.1 Z" id="Shape" fill="#FFFFFF" fill-rule="nonzero"></path>
        </g>
    </g>
</svg>