<svg id="Layer_1" data-name="Layer 1" xmlns="http://www.w3.org/2000/svg" xmlns:xlink="http://www.w3.org/1999/xlink" viewBox="0 0 241 110"><defs><style>.cls-1{fill:none;}.cls-2{clip-path:url(#clip-path);}.cls-3{isolation:isolate;}.cls-4{fill:#fff;}</style><clipPath id="clip-path"><rect class="cls-1" x="11.72" y="5.35" width="217.55" height="99.3"/></clipPath></defs><title>Retail and eCommerce</title><g class="cls-2"><g id="Retail_and_ecommerce_3" data-name="Retail and ecommerce 3"><g id="Retail_and_E-commerce" data-name="Retail and E-commerce" class="cls-3"><g class="cls-3"><path class="cls-4" d="M40.78,13.92h9.51a8.73,8.73,0,0,1,6.29,2.22,6.11,6.11,0,0,1,1.7,4.36v.06c0,3.66-2.52,5.81-6,6.45l6.79,9H56L49.6,27.45H43.28V36h-2.5Zm9.29,11.29c3.32,0,5.69-1.71,5.69-4.56v-.06c0-2.72-2.09-4.36-5.66-4.36H43.28v9Z"/><path class="cls-4" d="M61.89,27.92v-.06c0-4.71,3.31-8.5,7.83-8.5,4.84,0,7.62,3.85,7.62,8.63a6.78,6.78,0,0,1,0,.79h-13a5.71,5.71,0,0,0,5.75,5.53A6.77,6.77,0,0,0,75.25,32l1.52,1.36A8.46,8.46,0,0,1,70,36.42,8.11,8.11,0,0,1,61.89,27.92Zm13-1c-.25-3-2-5.56-5.21-5.56-2.85,0-5,2.37-5.31,5.56Z"/><path class="cls-4" d="M82.45,31.71V21.86H80.18V19.71h2.27V14.78h2.44v4.93h5.18v2.15H84.89V31.4a2.42,2.42,0,0,0,2.75,2.72A5.15,5.15,0,0,0,90,33.55v2.08a6.17,6.17,0,0,1-2.94.7C84.44,36.33,82.45,35,82.45,31.71Z"/><path class="cls-4" d="M93.13,31.3v-.06c0-3.44,2.85-5.28,7-5.28a17.36,17.36,0,0,1,5,.7v-.57c0-2.94-1.8-4.46-4.87-4.46a11.48,11.48,0,0,0-5,1.2l-.72-2a13.5,13.5,0,0,1,5.94-1.35,7.16,7.16,0,0,1,5.27,1.8,6.41,6.41,0,0,1,1.68,4.77V36h-2.34V33.58a7.17,7.17,0,0,1-5.91,2.81C96.2,36.39,93.13,34.65,93.13,31.3Zm12-1.26V28.46a16.91,16.91,0,0,0-4.8-.7c-3.07,0-4.77,1.33-4.77,3.39v.06c0,2,1.89,3.25,4.1,3.25C102.71,34.46,105.17,32.63,105.17,30Z"/><path class="cls-4" d="M112.72,13.45h2.78v2.69h-2.78Zm.16,6.26h2.43V36h-2.43Z"/><path class="cls-4" d="M121.19,13h2.43V36h-2.43Z"/><path class="cls-4" d="M137.52,31.3v-.06c0-3.44,2.85-5.28,7-5.28a17.36,17.36,0,0,1,5,.7v-.57c0-2.94-1.8-4.46-4.87-4.46a11.48,11.48,0,0,0-5,1.2l-.73-2a13.58,13.58,0,0,1,5.95-1.35,7.16,7.16,0,0,1,5.27,1.8,6.41,6.41,0,0,1,1.68,4.77V36h-2.34V33.58a7.17,7.17,0,0,1-5.91,2.81C140.59,36.39,137.52,34.65,137.52,31.3Zm12-1.26V28.46a16.91,16.91,0,0,0-4.8-.7c-3.07,0-4.77,1.33-4.77,3.39v.06c0,2,1.89,3.25,4.1,3.25C147.1,34.46,149.56,32.63,149.56,30Z"/><path class="cls-4" d="M157.05,19.71h2.43v2.84a6.18,6.18,0,0,1,5.59-3.19c4,0,6.26,2.65,6.26,6.54V36H168.9V26.5c0-3-1.65-4.93-4.52-4.93a4.81,4.81,0,0,0-4.9,5.12V36h-2.43Z"/><path class="cls-4" d="M175.56,27.92v-.06c0-5.34,3.89-8.5,7.81-8.5a7.36,7.36,0,0,1,6.25,3.47V13h2.44V36h-2.44V32.76a7.32,7.32,0,0,1-6.25,3.63C179.45,36.39,175.56,33.29,175.56,27.92Zm14.16,0v-.06a6.08,6.08,0,0,0-5.91-6.29c-3.16,0-5.75,2.34-5.75,6.29v.06c0,3.86,2.65,6.32,5.75,6.32A6.1,6.1,0,0,0,189.72,27.89Z"/></g><g class="cls-3"><path class="cls-4" d="M24.57,51.84h16v2.27H27.07v7.56H39.14v2.27H27.07v7.74H40.72V74H24.57Z"/><path class="cls-4" d="M44.67,63.18h8.78v2.56H44.67Z"/><path class="cls-4" d="M57.21,65.87V65.8a8.5,8.5,0,0,1,14.91-5.62l-1.61,1.71a6.59,6.59,0,0,0-5-2.47,6,6,0,0,0-5.85,6.32v.06a6.12,6.12,0,0,0,6,6.36,6.76,6.76,0,0,0,5-2.44l1.55,1.46a8.45,8.45,0,0,1-15-5.31Z"/><path class="cls-4" d="M74.78,65.87V65.8a8.52,8.52,0,0,1,17-.06v.06a8.49,8.49,0,0,1-8.57,8.54A8.37,8.37,0,0,1,74.78,65.87Zm14.53,0V65.8a6.18,6.18,0,0,0-6.07-6.38,6,6,0,0,0-6,6.32v.06a6.13,6.13,0,0,0,6,6.36A6,6,0,0,0,89.31,65.87Z"/><path class="cls-4" d="M96.2,57.62h2.43v2.75a6,6,0,0,1,5.28-3.1,5.53,5.53,0,0,1,5.24,3.26,6.52,6.52,0,0,1,5.75-3.26c3.76,0,6.07,2.53,6.07,6.58V74h-2.43V64.41c0-3.16-1.58-4.92-4.24-4.92-2.46,0-4.52,1.83-4.52,5.05V74h-2.4V64.35c0-3.06-1.61-4.86-4.2-4.86s-4.55,2.14-4.55,5.15V74H96.2Z"/><path class="cls-4" d="M126.15,57.62h2.43v2.75a6,6,0,0,1,5.28-3.1,5.53,5.53,0,0,1,5.24,3.26,6.52,6.52,0,0,1,5.75-3.26c3.77,0,6.07,2.53,6.07,6.58V74h-2.43V64.41c0-3.16-1.58-4.92-4.24-4.92-2.46,0-4.51,1.83-4.51,5.05V74h-2.41V64.35c0-3.06-1.61-4.86-4.2-4.86s-4.55,2.14-4.55,5.15V74h-2.43Z"/><path class="cls-4" d="M155.09,65.84v-.07c0-4.7,3.32-8.5,7.84-8.5,4.83,0,7.61,3.86,7.61,8.63a6.7,6.7,0,0,1,0,.79h-13a5.71,5.71,0,0,0,5.75,5.53,6.78,6.78,0,0,0,5.16-2.31L170,71.27a8.43,8.43,0,0,1-6.73,3.07A8.13,8.13,0,0,1,155.09,65.84Zm13-1c-.26-3-2-5.56-5.22-5.56-2.84,0-5,2.37-5.31,5.56Z"/><path class="cls-4" d="M174.8,57.62h2.44v4.27a7,7,0,0,1,6.67-4.55V60h-.19c-3.58,0-6.48,2.56-6.48,7.49V74H174.8Z"/><path class="cls-4" d="M185.89,65.87V65.8a8.51,8.51,0,0,1,14.92-5.62l-1.61,1.71a6.61,6.61,0,0,0-5-2.47,6,6,0,0,0-5.85,6.32v.06a6.11,6.11,0,0,0,6,6.36,6.76,6.76,0,0,0,5-2.44l1.55,1.46a8.46,8.46,0,0,1-15.05-5.31Z"/><path class="cls-4" d="M203.46,65.84v-.07c0-4.7,3.32-8.5,7.84-8.5,4.83,0,7.61,3.86,7.61,8.63a6.7,6.7,0,0,1,0,.79H205.93a5.7,5.7,0,0,0,5.75,5.53,6.77,6.77,0,0,0,5.15-2.31l1.51,1.36a8.43,8.43,0,0,1-6.73,3.07A8.13,8.13,0,0,1,203.46,65.84Zm13-1c-.25-3-2-5.56-5.21-5.56-2.85,0-5,2.37-5.31,5.56Z"/></g></g></g></g></svg>