<svg id="Layer_1" data-name="Layer 1" xmlns="http://www.w3.org/2000/svg" xmlns:xlink="http://www.w3.org/1999/xlink" viewBox="0 0 241 110"><defs><style>.cls-1{fill:none;}.cls-2{clip-path:url(#clip-path);}.cls-3{isolation:isolate;}.cls-4{fill:#fff;}</style><clipPath id="clip-path"><rect class="cls-1" x="11.72" y="5.35" width="217.55" height="99.3"/></clipPath></defs><title>Travel and Hospitality</title><g class="cls-2"><g id="Travel_and_Hospitality_3" data-name="Travel and Hospitality 3"><g id="Travel_and_Hospitality" data-name="Travel and Hospitality" class="cls-3"><g class="cls-3"><path class="cls-4" d="M49.82,16.23H42.36V13.92H59.77v2.31H52.31V36H49.82Z"/><path class="cls-4" d="M61.19,19.71h2.43V24a7,7,0,0,1,6.67-4.55V22H70.1c-3.57,0-6.48,2.56-6.48,7.49V36H61.19Z"/><path class="cls-4" d="M72,31.3v-.06C72,27.8,74.81,26,79,26a17.34,17.34,0,0,1,5,.7v-.57c0-2.94-1.8-4.46-4.87-4.46a11.48,11.48,0,0,0-5,1.2l-.72-2a13.5,13.5,0,0,1,5.94-1.35,7.16,7.16,0,0,1,5.27,1.8,6.41,6.41,0,0,1,1.68,4.77V36H84V33.58a7.17,7.17,0,0,1-5.91,2.81C75,36.39,72,34.65,72,31.3ZM84,30V28.46a16.91,16.91,0,0,0-4.8-.7c-3.07,0-4.77,1.33-4.77,3.39v.06c0,2,1.89,3.25,4.11,3.25C81.54,34.46,84,32.63,84,30Z"/><path class="cls-4" d="M89.25,19.71h2.68l5.5,13.55L103,19.71h2.62L98.47,36.17H96.32Z"/><path class="cls-4" d="M107.44,27.92v-.06c0-4.71,3.32-8.5,7.84-8.5,4.83,0,7.62,3.85,7.62,8.63a5.1,5.1,0,0,1,0,.79h-13a5.71,5.71,0,0,0,5.75,5.53A6.77,6.77,0,0,0,120.81,32l1.52,1.36a8.46,8.46,0,0,1-6.73,3.06A8.12,8.12,0,0,1,107.44,27.92Zm13-1c-.25-3-2-5.56-5.21-5.56-2.85,0-5,2.37-5.31,5.56Z"/><path class="cls-4" d="M127.38,13h2.43V36h-2.43Z"/><path class="cls-4" d="M143.71,31.3v-.06c0-3.44,2.85-5.28,7-5.28a17.34,17.34,0,0,1,5,.7v-.57c0-2.94-1.8-4.46-4.86-4.46a11.49,11.49,0,0,0-5,1.2l-.72-2a13.5,13.5,0,0,1,5.94-1.35,7.16,7.16,0,0,1,5.27,1.8,6.41,6.41,0,0,1,1.68,4.77V36h-2.34V33.58a7.17,7.17,0,0,1-5.91,2.81C146.78,36.39,143.71,34.65,143.71,31.3Zm12-1.26V28.46a16.91,16.91,0,0,0-4.8-.7c-3.07,0-4.77,1.33-4.77,3.39v.06c0,2,1.89,3.25,4.11,3.25C153.29,34.46,155.75,32.63,155.75,30Z"/><path class="cls-4" d="M163.24,19.71h2.43v2.84a6.19,6.19,0,0,1,5.6-3.19c3.95,0,6.25,2.65,6.25,6.54V36h-2.43V26.5c0-3-1.64-4.93-4.52-4.93a4.81,4.81,0,0,0-4.9,5.12V36h-2.43Z"/><path class="cls-4" d="M181.75,27.92v-.06c0-5.34,3.89-8.5,7.81-8.5a7.36,7.36,0,0,1,6.25,3.47V13h2.44V36h-2.44V32.76a7.32,7.32,0,0,1-6.25,3.63C185.64,36.39,181.75,33.29,181.75,27.92Zm14.16,0v-.06A6.08,6.08,0,0,0,190,21.54c-3.16,0-5.75,2.34-5.75,6.29v.06c0,3.86,2.66,6.32,5.75,6.32A6.1,6.1,0,0,0,195.91,27.89Z"/></g><g class="cls-3"><path class="cls-4" d="M39.8,51.84h2.5v9.83H55.06V51.84h2.5V74h-2.5V64H42.3V74H39.8Z"/><path class="cls-4" d="M62.39,65.87V65.8a8.52,8.52,0,0,1,17-.06v.06a8.48,8.48,0,0,1-8.56,8.54A8.37,8.37,0,0,1,62.39,65.87Zm14.54,0V65.8a6.19,6.19,0,0,0-6.07-6.38,6,6,0,0,0-6,6.32v.06a6.13,6.13,0,0,0,6,6.36A6,6,0,0,0,76.93,65.87Z"/><path class="cls-4" d="M82.45,71.87l1.24-1.74a9.49,9.49,0,0,0,5.65,2.09c2,0,3.38-1,3.38-2.59v-.06c0-1.65-1.92-2.28-4.07-2.88-2.56-.73-5.41-1.61-5.41-4.61V62c0-2.81,2.34-4.67,5.56-4.67a11.1,11.1,0,0,1,5.88,1.8L93.58,61a9.26,9.26,0,0,0-4.84-1.58c-1.93,0-3.16,1-3.16,2.37v.06c0,1.55,2,2.15,4.2,2.82,2.53.75,5.25,1.73,5.25,4.67v.07c0,3.09-2.56,4.89-5.81,4.89A11.24,11.24,0,0,1,82.45,71.87Z"/><path class="cls-4" d="M99.55,57.62H102v3.29a7.34,7.34,0,0,1,6.25-3.64c3.92,0,7.81,3.1,7.81,8.47v.06c0,5.34-3.85,8.5-7.81,8.5A7.36,7.36,0,0,1,102,70.83V79H99.55Zm14,8.22v-.07c0-3.85-2.65-6.32-5.75-6.32a6.1,6.1,0,0,0-5.91,6.29v.06a6.08,6.08,0,0,0,5.91,6.32C111,72.12,113.54,69.79,113.54,65.84Z"/><path class="cls-4" d="M120.59,51.36h2.78v2.69h-2.78Zm.16,6.26h2.43V74h-2.43Z"/><path class="cls-4" d="M129.69,69.63V59.77h-2.28V57.62h2.28V52.69h2.43v4.93h5.18v2.15h-5.18v9.54A2.42,2.42,0,0,0,134.87,72a5.15,5.15,0,0,0,2.37-.57v2.09a6.17,6.17,0,0,1-2.94.69C131.68,74.24,129.69,73,129.69,69.63Z"/><path class="cls-4" d="M140.37,69.22v-.07c0-3.44,2.84-5.27,7-5.27a17.37,17.37,0,0,1,5,.69V64c0-2.93-1.8-4.45-4.86-4.45a11.27,11.27,0,0,0-5,1.2l-.73-2a13.51,13.51,0,0,1,5.94-1.36A7.19,7.19,0,0,1,153,59.2,6.48,6.48,0,0,1,154.71,64V74h-2.34V71.49a7.14,7.14,0,0,1-5.91,2.81C143.43,74.3,140.37,72.57,140.37,69.22Zm12-1.27V66.37a17.32,17.32,0,0,0-4.8-.69c-3.06,0-4.77,1.33-4.77,3.38v.06c0,2.06,1.9,3.26,4.11,3.26C149.94,72.38,152.4,70.54,152.4,68Z"/><path class="cls-4" d="M160.11,50.89h2.44V74h-2.44Z"/><path class="cls-4" d="M168.26,51.36H171v2.69h-2.78Zm.16,6.26h2.43V74h-2.43Z"/><path class="cls-4" d="M177.36,69.63V59.77h-2.27V57.62h2.27V52.69h2.44v4.93H185v2.15H179.8v9.54A2.41,2.41,0,0,0,182.54,72a5.1,5.1,0,0,0,2.37-.57v2.09a6.13,6.13,0,0,1-2.93.69C179.35,74.24,177.36,73,177.36,69.63Z"/><path class="cls-4" d="M201.5,57.62h2.59l-6.85,16.87c-1.4,3.39-3,4.62-5.44,4.62a7.54,7.54,0,0,1-3.48-.82l.83-1.93a5.1,5.1,0,0,0,2.56.6c1.45,0,2.37-.76,3.35-3.07l-7.43-16.27h2.69l5.94,13.62Z"/></g></g></g></g></svg>