<?xml version="1.0" encoding="UTF-8" standalone="no"?>
<svg xmlns="http://www.w3.org/2000/svg" height="194px" width="150px" version="1.1" xmlns:xlink="http://www.w3.org/1999/xlink" viewBox="0 0 150 194"><!-- Generator: Sketch 44.1 (41455) - http://www.bohemiancoding.com/sketch -->
 <title>Get Started Updated</title>
 <desc>Created with Sketch.</desc>
 <g id="Page-1" fill-rule="evenodd" fill="none">
  <g id="Get-Started-Updated">
   <g id="Group-6" transform="translate(9)">
    <rect id="Rectangle" height="175" width="135" y="0" x="0" fill="#0174E0"/>
    <g id="Group-5" transform="translate(9 27.062)">
     <g id="Group-4" transform="translate(9.9)">
      <path id="GET-STARTED" fill-rule="nonzero" fill="#fff" d="m5.1804 10.09c1.8019 0 3.1955-0.6965 4.2091-1.5467v-4.2368h-4.2795v1.8536h2.182v1.3937c-0.549 0.3902-1.2529 0.5854-2.0412 0.5854-1.7456 0-2.9844-1.3101-2.9844-3.094v-0.0279c0-1.6585 1.2529-3.0383 2.8295-3.0383 1.1403 0 1.816 0.3624 2.5762 0.9896l1.3654-1.6307c-1.0276-0.86404-2.0975-1.3379-3.8712-1.3379-2.9843 0-5.1663 2.2717-5.1663 5.0452v0.0278c0 2.885 2.1116 5.017 5.1804 5.017zm5.9406-0.1669h7.503v-1.9094h-5.349v-2.0487h4.645v-1.9094h-4.645v-1.979h5.279v-1.9094l-7.433 0.00004v9.7559zm11.374 0h2.168v-7.7768h2.999v-1.9791l-8.165 0.00004v1.9791h2.998v7.7768zm13.852 0.1389c2.126 0 3.618-1.0866 3.618-3.0239v-0.0278c0-1.7003-1.126-2.4111-3.125-2.9268-1.703-0.432-2.126-0.6411-2.126-1.2822v-0.0279c0-0.4738 0.437-0.8501 1.267-0.8501 0.831 0 1.689 0.3624 2.562 0.9616l1.126-1.6166c-0.999-0.79444-2.224-1.2404-3.66-1.2404-2.013-0.000026-3.449 1.1707-3.449 2.9407v0.0278c0 1.9373 1.282 2.4808 3.266 2.9825 1.647 0.4181 1.985 0.6969 1.985 1.2404v0.0279c0 0.5714-0.535 0.9198-1.422 0.9198-1.126 0-2.055-0.4599-2.942-1.1846l-1.281 1.5191c1.183 1.0453 2.689 1.5605 4.181 1.5605zm7.236-0.1389v-7.7768h-2.999v-1.9791l8.165 0.00004v1.9791h-2.998v7.7768h-2.168zm4.364 0l4.223-9.8255 1.999-0.000042 4.223 9.8255h-2.266l-0.901-2.1881h-4.167l-0.901 2.1881h-2.21zm3.885-4.0835h2.618l-1.309-3.1637-1.309 3.1637zm7.728 4.0835v-9.7559l4.505 0.00004c1.253 0 2.224 0.34843 2.872 0.98956 0.549 0.5435 0.845 1.31 0.845 2.2299v0.0278c0 1.5749-0.859 2.5644-2.112 3.0244l2.407 3.4842h-2.534l-2.111-3.1219h-1.704v3.1219h-2.168zm2.168-5.0173h2.196c1.056 0 1.662-0.5575 1.662-1.3798v-0.0278c0-0.9199-0.648-1.3937-1.704-1.3937h-2.154v2.8013zm9.953 5.0173h2.168v-7.7768h2.998v-1.9791l-8.165 0.00004v1.9791h2.999v7.7768zm6.475 0h7.504v-1.9094h-5.35v-2.0487h4.646v-1.9094h-4.646v-1.979h5.279v-1.9094l-7.433 0.00004v9.7559zm9.08 0v-9.7559l3.843 0.00004c3.097 0 5.237 2.1045 5.237 4.8501v0.0279c0 2.7455-2.14 4.8779-5.237 4.8779h-3.843zm3.843-7.8186h-1.675v5.8814h1.675c1.774 0 2.971-1.1847 2.971-2.9129v-0.0278c0-1.7282-1.197-2.9407-2.971-2.9407z"/>
      <path id="Line" stroke="#fff" stroke-width=".70130" stroke-linecap="square" d="m33.785 19.86h28.155"/>
     </g>
     <g id="Group-4" fill="#fff" transform="translate(0 39.691)">
      <g id="Group">
       <path id="Combined-Shape" fill-rule="nonzero" d="m7.0975 14.248c-3.9198 0-7.0975-3.189-7.0975-7.1238 0-3.9346 3.1777-7.1242 7.0975-7.1242 3.9195 0 7.0975 3.1896 7.0975 7.1242 0 3.9348-3.178 7.1238-7.0975 7.1238zm-0.2825-4.9865h0.9709v-4.5203h-0.6707l-1.2839 0.3847 0.2044 0.8078 0.7793-0.1923v3.5201z"/>
       <path id="Download-now" d="m20.698 10.432v-6.9661h2.583c2.177 0 3.682 1.5026 3.682 3.4629v0.0199c0 1.9603-1.505 3.4833-3.682 3.4833h-2.583zm2.583-5.8516h-1.366v4.7366h1.366c1.455 0 2.405-0.9851 2.405-2.3484v-0.0199c0-1.3633-0.95-2.3683-2.405-2.3683zm7.502 5.9706c-1.593 0-2.771-1.224-2.771-2.7167v-0.0199c0-1.5025 1.188-2.7464 2.791-2.7464s2.781 1.224 2.781 2.7265v0.0199c0 1.4927-1.188 2.7366-2.801 2.7366zm0.02-1.0548c0.97 0 1.584-0.7563 1.584-1.6619v-0.0199c0-0.9254-0.664-1.6916-1.604-1.6916-0.96 0-1.573 0.7563-1.573 1.6717v0.0199c0 0.9155 0.663 1.6818 1.593 1.6818zm5.008 0.9748h1.069l1.178-3.5919 1.167 3.5919h1.079l1.712-5.2935h-1.207l-1.069 3.6022-1.158-3.6221h-1.029l-1.158 3.6221-1.049-3.6022h-1.237l1.702 5.2935zm7.255-0.039h1.207v-2.9658c0-0.816 0.485-1.3036 1.178-1.3036 0.712 0 1.118 0.4677 1.118 1.2837v2.9857h1.198v-3.3539c0-1.214-0.683-2.0101-1.861-2.0101-0.812 0-1.296 0.4279-1.633 0.9155v-0.806h-1.207v5.2545zm6.205 0h1.208v-7.2646h-1.208v7.2646zm5.255 0.119c-1.593 0-2.771-1.224-2.771-2.7167v-0.0199c0-1.5025 1.188-2.7464 2.791-2.7464 1.604 0 2.781 1.224 2.781 2.7265v0.0199c0 1.4927-1.187 2.7366-2.801 2.7366zm0.02-1.0548c0.97 0 1.584-0.7563 1.584-1.6619v-0.0199c0-0.9254-0.663-1.6916-1.604-1.6916-0.96 0-1.573 0.7563-1.573 1.6717v0.0199c0 0.9155 0.663 1.6818 1.593 1.6818zm5.503 1.0448c-0.98 0-1.861-0.5672-1.861-1.622v-0.0199c0-1.1344 0.891-1.6917 2.168-1.6917 0.584 0 1 0.0896 1.405 0.219v-0.1294c0-0.7463-0.455-1.1444-1.296-1.1444-0.584 0-1.02 0.1294-1.495 0.3284l-0.326-0.9453c0.584-0.2587 1.148-0.4279 1.979-0.4279 0.782 0 1.366 0.209 1.732 0.5871 0.386 0.3781 0.564 0.9354 0.564 1.622v3.1151h-1.168v-0.6572c-0.356 0.4282-0.9 0.7662-1.702 0.7662zm0.337-0.8757c0.791 0 1.395-0.4577 1.395-1.1244v-0.3583c-0.307-0.1194-0.713-0.2089-1.188-0.2089-0.772 0-1.227 0.3283-1.227 0.8756v0.0199c0 0.5075 0.446 0.7961 1.02 0.7961zm6.126 0.8757c-1.227 0-2.425-0.9851-2.425-2.7266v-0.0199c0-1.7414 1.178-2.7265 2.425-2.7265 0.861 0 1.405 0.4279 1.781 0.9254v-2.826h1.198v7.2646h-1.198v-0.8761c-0.386 0.5471-0.93 0.9851-1.781 0.9851zm0.287-1.0448c0.802 0 1.514-0.6767 1.514-1.6818v-0.0199c0-1.0149-0.712-1.6817-1.514-1.6817-0.822 0-1.504 0.6469-1.504 1.6817v0.0199c0 1.015 0.692 1.6818 1.504 1.6818zm7.156 0.9358h1.207v-2.9658c0-0.816 0.485-1.3036 1.178-1.3036 0.712 0 1.118 0.4677 1.118 1.2837v2.9857h1.198v-3.3539c0-1.214-0.683-2.0101-1.861-2.0101-0.811 0-1.296 0.4279-1.633 0.9155v-0.806h-1.207v5.2545zm8.63 0.119c-1.594 0-2.771-1.224-2.771-2.7167v-0.0199c0-1.5025 1.187-2.7464 2.791-2.7464 1.603 0 2.781 1.224 2.781 2.7265v0.0199c0 1.4927-1.188 2.7366-2.801 2.7366zm0.02-1.0548c0.97 0 1.583-0.7563 1.583-1.6619v-0.0199c0-0.9254-0.663-1.6916-1.603-1.6916-0.96 0-1.574 0.7563-1.574 1.6717v0.0199c0 0.9155 0.663 1.6818 1.594 1.6818zm5.008 0.9748h1.069l1.177-3.5919 1.168 3.5919h1.079l1.712-5.2935h-1.207l-1.069 3.6022-1.158-3.6221h-1.029l-1.158 3.6221-1.049-3.6022h-1.238l1.703 5.2935z"/>
      </g>
      <g id="Group-2" transform="translate(0 32.104)">
       <path id="Combined-Shape" fill-rule="nonzero" d="m7.0975 14.248c-3.9198 0-7.0975-3.189-7.0975-7.1238 0-3.9346 3.1777-7.1242 7.0975-7.1242 3.9195 0 7.0975 3.1896 7.0975 7.1242 0 3.9348-3.178 7.1238-7.0975 7.1238zm-1.8163-4.9865h3.3089v-0.8528h-1.9483l0.7282-0.5642c0.7921-0.6156 1.1754-0.9875 1.1754-1.7376v-0.0129c0-0.8399-0.6133-1.3849-1.5395-1.3849-0.7984 0-1.2264 0.327-1.6672 0.9297l0.6899 0.5578c0.3322-0.4103 0.5685-0.6027 0.9135-0.6027 0.3513 0 0.6004 0.2052 0.6004 0.5835 0 0.3719-0.2172 0.6155-0.7729 1.0772l-1.4884 1.2246v0.7823z"/>
       <path id="Run-sample-queries" d="m20.986 10.946v-6.966h3.088c0.871 0 1.554 0.2587 1.999 0.6965 0.367 0.3782 0.575 0.8956 0.575 1.5026v0.0199c0 1.1444-0.683 1.831-1.643 2.1096l1.87 2.6374h-1.445l-1.702-2.4284h-1.524v2.4284h-1.218zm1.218-3.5131h1.781c0.871 0 1.425-0.4577 1.425-1.1642v-0.0199c0-0.7464-0.534-1.1543-1.435-1.1543h-1.771v2.3384zm7.601 3.6221c0.811 0 1.296-0.428 1.633-0.925v0.816h1.207v-5.2545h-1.207v2.9654c0 0.816-0.485 1.2936-1.178 1.2936-0.713 0-1.118-0.4577-1.118-1.2737v-2.9853h-1.198v3.3435c0 1.224 0.683 2.02 1.861 2.02zm4.325-0.109h1.207v-2.9658c0-0.816 0.485-1.3035 1.178-1.3035 0.713 0 1.118 0.4676 1.118 1.2836v2.9857h1.198v-3.3539c0-1.214-0.683-2.01-1.861-2.01-0.811 0-1.296 0.4278-1.633 0.9154v-0.806h-1.207v5.2545zm10.906 0.099c1.089 0 1.94-0.547 1.94-1.6517v-0.02c0-0.9453-0.861-1.2936-1.623-1.5324-0.613-0.199-1.178-0.3582-1.178-0.7463v-0.0199c0-0.2886 0.268-0.5175 0.733-0.5175 0.435 0 0.97 0.1891 1.474 0.4976l0.476-0.8558c-0.555-0.3682-1.267-0.597-1.921-0.597-1.039 0-1.86 0.607-1.86 1.612v0.0199c0 0.9951 0.861 1.3135 1.633 1.5324 0.613 0.1891 1.168 0.3284 1.168 0.7364v0.0199c0 0.3483-0.297 0.5674-0.812 0.5674-0.534 0-1.138-0.2191-1.712-0.647l-0.535 0.816c0.654 0.527 1.475 0.786 2.217 0.786zm4.672 0.01c-0.98 0-1.861-0.567-1.861-1.6219v-0.0199c0-1.1345 0.891-1.6917 2.168-1.6917 0.584 0 0.999 0.0896 1.405 0.2189v-0.1293c0-0.7464-0.455-1.1444-1.296-1.1444-0.584 0-1.02 0.1294-1.495 0.3284l-0.326-0.9454c0.583-0.2587 1.148-0.4278 1.979-0.4278 0.782 0 1.366 0.2089 1.732 0.5871 0.386 0.3781 0.564 0.9353 0.564 1.622v3.115h-1.168v-0.657c-0.356 0.428-0.9 0.766-1.702 0.766zm0.336-0.876c0.792 0 1.396-0.4574 1.396-1.1241v-0.3582c-0.307-0.1194-0.713-0.209-1.188-0.209-0.772 0-1.227 0.3284-1.227 0.8757v0.0199c0 0.5075 0.445 0.7957 1.019 0.7957zm3.959 0.767h1.208v-2.9658c0-0.806 0.455-1.3035 1.118-1.3035s1.059 0.4577 1.059 1.2737v2.9956h1.198v-2.9658c0-0.8458 0.465-1.3035 1.118-1.3035 0.673 0 1.059 0.4477 1.059 1.2836v2.9857h1.198v-3.3539c0-1.2836-0.693-2.01-1.831-2.01-0.792 0-1.346 0.3681-1.762 0.9254-0.277-0.5573-0.812-0.9254-1.564-0.9254-0.801 0-1.257 0.4378-1.593 0.9055v-0.7961h-1.208v5.2545zm9.393 1.592v-6.8465h1.207v0.8757c0.386-0.5473 0.93-0.9851 1.782-0.9851 1.227 0 2.424 0.9751 2.424 2.7265v0.0199c0 1.7415-1.187 2.7265-2.424 2.7265-0.871 0-1.416-0.438-1.782-0.925v2.408h-1.207zm2.702-2.528c0.821 0 1.494-0.6466 1.494-1.6815v-0.0199c0-1.015-0.693-1.6817-1.494-1.6817-0.812 0-1.525 0.6767-1.525 1.6817v0.0199c0 1.005 0.713 1.6815 1.525 1.6815zm4.008 0.936h1.207v-7.2646h-1.207v7.2646zm5.166 0.119c-1.514 0-2.682-1.1045-2.682-2.7265v-0.0199c0-1.5026 1.059-2.7365 2.554-2.7365 1.662 0 2.504 1.3135 2.504 2.826 0 0.1095-0.01 0.2189-0.02 0.3383h-3.84c0.128 0.8558 0.732 1.3336 1.504 1.3336 0.584 0 1-0.2191 1.415-0.627l0.703 0.627c-0.495 0.597-1.178 0.985-2.138 0.985zm-1.494-3.1146h2.682c-0.079-0.7762-0.534-1.3832-1.326-1.3832-0.733 0-1.247 0.5672-1.356 1.3832zm11.985 4.5876v-2.468c-0.386 0.547-0.93 0.985-1.781 0.985-1.227 0-2.425-0.985-2.425-2.7265v-0.0199c0-1.7414 1.178-2.7265 2.425-2.7265 0.861 0 1.405 0.4278 1.781 0.9254v-0.816h1.198v6.8465h-1.198zm-1.494-2.528c0.802 0 1.514-0.6765 1.514-1.6815v-0.0199c0-1.015-0.712-1.6817-1.514-1.6817-0.822 0-1.505 0.6468-1.505 1.6817v0.0199c0 1.015 0.693 1.6815 1.505 1.6815zm5.998 1.045c0.811 0 1.296-0.428 1.633-0.925v0.816h1.207v-5.2545h-1.207v2.9654c0 0.816-0.485 1.2936-1.178 1.2936-0.713 0-1.119-0.4577-1.119-1.2737v-2.9853h-1.197v3.3435c0 1.224 0.683 2.02 1.861 2.02zm6.73 0.01c-1.515 0-2.683-1.1045-2.683-2.7265v-0.0199c0-1.5026 1.059-2.7365 2.554-2.7365 1.663 0 2.504 1.3135 2.504 2.826 0 0.1095-0.01 0.2189-0.02 0.3383h-3.84c0.129 0.8558 0.732 1.3336 1.504 1.3336 0.584 0 1-0.2191 1.416-0.627l0.702 0.627c-0.494 0.597-1.177 0.985-2.137 0.985zm-1.495-3.1146h2.682c-0.079-0.7762-0.534-1.3832-1.326-1.3832-0.732 0-1.247 0.5672-1.356 1.3832zm5.068 2.9956h1.21v-2.0005c0-1.3932 0.73-2.0798 1.78-2.0798h0.07v-1.2737c-0.92-0.0398-1.53 0.4975-1.85 1.2837v-1.1842h-1.21v5.2545zm4.12-6.0605h1.28v-1.1444h-1.28v1.1444zm0.04 6.0605h1.2v-5.2545h-1.2v5.2545zm5.16 0.119c-1.51 0-2.68-1.1045-2.68-2.7265v-0.0199c0-1.5026 1.06-2.7365 2.55-2.7365 1.67 0 2.51 1.3135 2.51 2.826 0 0.1095-0.01 0.2189-0.02 0.3383h-3.84c0.13 0.8558 0.73 1.3336 1.5 1.3336 0.59 0 1-0.2191 1.42-0.627l0.7 0.627c-0.49 0.597-1.18 0.985-2.14 0.985zm-1.49-3.1146h2.68c-0.08-0.7762-0.53-1.3832-1.33-1.3832-0.73 0-1.24 0.5672-1.35 1.3832zm6.87 3.0946c1.09 0 1.94-0.547 1.94-1.6517v-0.02c0-0.9453-0.86-1.2936-1.63-1.5324-0.61-0.199-1.17-0.3582-1.17-0.7463v-0.0199c0-0.2886 0.26-0.5175 0.73-0.5175 0.43 0 0.97 0.1891 1.47 0.4976l0.48-0.8558c-0.56-0.3682-1.27-0.597-1.92-0.597-1.04 0-1.86 0.607-1.86 1.612v0.0199c0 0.9951 0.86 1.3135 1.63 1.5324 0.61 0.1891 1.17 0.3284 1.17 0.7364v0.0199c0 0.3483-0.3 0.5674-0.81 0.5674-0.54 0-1.14-0.2191-1.72-0.647l-0.53 0.816c0.65 0.527 1.47 0.786 2.22 0.786z"/>
      </g>
      <g id="Group-3" transform="translate(0 64.208)">
       <path id="Combined-Shape" fill-rule="nonzero" d="m7.0975 14.248c-3.9198 0-7.0975-3.189-7.0975-7.1238 0-3.9346 3.1777-7.1242 7.0975-7.1242 3.9195 0 7.0975 3.1896 7.0975 7.1242 0 3.9348-3.178 7.1238-7.0975 7.1238zm-0.1427-4.9096c0.9965 0 1.6097-0.6219 1.6097-1.4683v-0.0128c0-0.8335-0.594-1.1541-1.2009-1.2567l1.1307-1.0836v-0.7438h-3.0214v0.8464h1.7566l-1.0668 1.0772 0.1534 0.6283h0.4088c0.5493 0 0.8751 0.2052 0.8751 0.5707v0.0128c0 0.3334-0.2619 0.545-0.6324 0.545-0.4535 0-0.7729-0.1924-1.0795-0.5386l-0.6771 0.6476c0.3832 0.4552 0.939 0.7758 1.7438 0.7758z"/>
       <path id="See-code-samples" d="m23.411 11.045c1.455 0 2.474-0.776 2.474-2.0796v-0.0199c0-1.1543-0.752-1.6817-2.217-2.04-1.336-0.3184-1.652-0.5572-1.652-1.0946v-0.0199c0-0.4577 0.415-0.8259 1.128-0.8259 0.633 0 1.257 0.2488 1.88 0.7165l0.654-0.9255c-0.703-0.5672-1.505-0.8757-2.514-0.8757-1.376 0-2.366 0.826-2.366 2.0201v0.0199c0 1.2837 0.832 1.7215 2.306 2.0797 1.287 0.2986 1.564 0.5672 1.564 1.0648v0.0199c0 0.5174-0.475 0.8757-1.227 0.8757-0.851 0-1.524-0.3284-2.187-0.9056l-0.733 0.8757c0.832 0.7464 1.831 1.1144 2.89 1.1144zm6.166 0.02c-1.514 0-2.682-1.1045-2.682-2.7265v-0.0199c0-1.5026 1.059-2.7365 2.553-2.7365 1.663 0 2.504 1.3135 2.504 2.826 0 0.1095-0.009 0.2189-0.019 0.3383h-3.84c0.128 0.8558 0.732 1.3336 1.504 1.3336 0.584 0 0.999-0.2191 1.415-0.627l0.703 0.627c-0.495 0.597-1.178 0.985-2.138 0.985zm-1.494-3.1146h2.682c-0.079-0.7762-0.535-1.3832-1.326-1.3832-0.733 0-1.248 0.5672-1.356 1.3832zm7.472 3.1146c-1.514 0-2.682-1.1045-2.682-2.7265v-0.0199c0-1.5026 1.059-2.7365 2.553-2.7365 1.663 0 2.504 1.3135 2.504 2.826 0 0.1095-0.01 0.2189-0.02 0.3383h-3.84c0.129 0.8558 0.733 1.3336 1.505 1.3336 0.584 0 0.999-0.2191 1.415-0.627l0.703 0.627c-0.495 0.597-1.178 0.985-2.138 0.985zm-1.495-3.1146h2.683c-0.08-0.7762-0.535-1.3832-1.327-1.3832-0.732 0-1.247 0.5672-1.356 1.3832zm10.462 3.1146c1.019 0 1.623-0.408 2.138-0.985l-0.723-0.7166c-0.386 0.3881-0.792 0.6466-1.356 0.6466-0.92 0-1.564-0.7461-1.564-1.6815v-0.0199c0-0.9155 0.644-1.6718 1.515-1.6718 0.594 0 0.98 0.2787 1.346 0.6568l0.752-0.806c-0.495-0.5374-1.109-0.9055-2.088-0.9055-1.574 0-2.722 1.2538-2.722 2.7464v0.0199c0 1.4926 1.148 2.7166 2.702 2.7166zm5.572 0c-1.594 0-2.771-1.224-2.771-2.7166v-0.0199c0-1.5026 1.187-2.7464 2.791-2.7464 1.603 0 2.781 1.2239 2.781 2.7265v0.0199c0 1.4926-1.188 2.7365-2.801 2.7365zm0.02-1.055c0.97 0 1.583-0.7561 1.583-1.6616v-0.0199c0-0.9254-0.663-1.6917-1.603-1.6917-0.96 0-1.574 0.7563-1.574 1.6718v0.0199c0 0.9155 0.663 1.6815 1.594 1.6815zm6.156 1.045c-1.228 0-2.425-0.985-2.425-2.7265v-0.0199c0-1.7414 1.178-2.7265 2.425-2.7265 0.861 0 1.405 0.4278 1.781 0.9254v-2.8261h1.198v7.2646h-1.198v-0.876c-0.386 0.547-0.93 0.985-1.781 0.985zm0.287-1.045c0.801 0 1.514-0.6765 1.514-1.6815v-0.0199c0-1.015-0.713-1.6817-1.514-1.6817-0.822 0-1.505 0.6468-1.505 1.6817v0.0199c0 1.015 0.693 1.6815 1.505 1.6815zm6.591 1.055c-1.514 0-2.682-1.1045-2.682-2.7265v-0.0199c0-1.5026 1.059-2.7365 2.554-2.7365 1.662 0 2.504 1.3135 2.504 2.826 0 0.1095-0.01 0.2189-0.02 0.3383h-3.84c0.128 0.8558 0.732 1.3336 1.504 1.3336 0.584 0 1-0.2191 1.415-0.627l0.703 0.627c-0.495 0.597-1.178 0.985-2.138 0.985zm-1.494-3.1146h2.682c-0.079-0.7762-0.535-1.3832-1.326-1.3832-0.733 0-1.247 0.5672-1.356 1.3832zm9.838 3.0946c1.088 0 1.939-0.547 1.939-1.6517v-0.02c0-0.9453-0.861-1.2936-1.623-1.5324-0.613-0.199-1.177-0.3582-1.177-0.7463v-0.0199c0-0.2886 0.267-0.5175 0.732-0.5175 0.435 0 0.97 0.1891 1.475 0.4976l0.475-0.8558c-0.555-0.3682-1.267-0.597-1.92-0.597-1.04 0-1.861 0.607-1.861 1.612v0.0199c0 0.9951 0.861 1.3135 1.633 1.5324 0.614 0.1891 1.168 0.3284 1.168 0.7364v0.0199c0 0.3483-0.297 0.5674-0.812 0.5674-0.534 0-1.138-0.2191-1.712-0.647l-0.534 0.816c0.653 0.527 1.474 0.786 2.217 0.786zm4.671 0.01c-0.98 0-1.861-0.567-1.861-1.6219v-0.0199c0-1.1345 0.891-1.6917 2.168-1.6917 0.584 0 0.999 0.0896 1.405 0.2189v-0.1293c0-0.7464-0.455-1.1444-1.296-1.1444-0.584 0-1.02 0.1294-1.495 0.3284l-0.326-0.9454c0.584-0.2587 1.148-0.4278 1.979-0.4278 0.782 0 1.366 0.2089 1.732 0.5871 0.386 0.3781 0.564 0.9353 0.564 1.622v3.115h-1.168v-0.657c-0.356 0.428-0.9 0.766-1.702 0.766zm0.337-0.876c0.791 0 1.395-0.4574 1.395-1.1241v-0.3582c-0.307-0.1194-0.713-0.209-1.188-0.209-0.772 0-1.227 0.3284-1.227 0.8757v0.0199c0 0.5075 0.446 0.7957 1.02 0.7957zm3.958 0.767h1.208v-2.9658c0-0.806 0.455-1.3035 1.118-1.3035s1.059 0.4577 1.059 1.2737v2.9956h1.198v-2.9658c0-0.8458 0.465-1.3035 1.118-1.3035 0.673 0 1.059 0.4477 1.059 1.2836v2.9857h1.198v-3.3539c0-1.2836-0.693-2.01-1.831-2.01-0.792 0-1.346 0.3681-1.762 0.9254-0.277-0.5573-0.811-0.9254-1.564-0.9254-0.801 0-1.257 0.4378-1.593 0.9055v-0.7961h-1.208v5.2545zm9.393 1.592v-6.8465h1.207v0.8757c0.386-0.5473 0.931-0.9851 1.782-0.9851 1.227 0 2.425 0.9751 2.425 2.7265v0.0199c0 1.7415-1.188 2.7265-2.425 2.7265-0.871 0-1.416-0.438-1.782-0.925v2.408h-1.207zm2.702-2.528c0.821 0 1.494-0.6466 1.494-1.6815v-0.0199c0-1.015-0.693-1.6817-1.494-1.6817-0.812 0-1.524 0.6767-1.524 1.6817v0.0199c0 1.005 0.712 1.6815 1.524 1.6815zm4.008 0.936h1.208v-7.2646h-1.208v7.2646zm5.169 0.119c-1.52 0-2.685-1.1045-2.685-2.7265v-0.0199c0-1.5026 1.055-2.7365 2.555-2.7365 1.66 0 2.5 1.3135 2.5 2.826 0 0.1095-0.01 0.2189-0.02 0.3383h-3.84c0.13 0.8558 0.74 1.3336 1.51 1.3336 0.58 0 1-0.2191 1.41-0.627l0.71 0.627c-0.5 0.597-1.18 0.985-2.14 0.985zm-1.5-3.1146h2.69c-0.08-0.7762-0.54-1.3832-1.33-1.3832-0.73 0-1.25 0.5672-1.36 1.3832zm6.87 3.0946c1.09 0 1.94-0.547 1.94-1.6517v-0.02c0-0.9453-0.86-1.2936-1.62-1.5324-0.62-0.199-1.18-0.3582-1.18-0.7463v-0.0199c0-0.2886 0.27-0.5175 0.73-0.5175 0.44 0 0.97 0.1891 1.48 0.4976l0.47-0.8558c-0.55-0.3682-1.26-0.597-1.92-0.597-1.04 0-1.86 0.607-1.86 1.612v0.0199c0 0.9951 0.86 1.3135 1.63 1.5324 0.62 0.1891 1.17 0.3284 1.17 0.7364v0.0199c0 0.3483-0.29 0.5674-0.81 0.5674-0.53 0-1.14-0.2191-1.71-0.647l-0.54 0.816c0.66 0.527 1.48 0.786 2.22 0.786z"/>
      </g>
     </g>
    </g>
   </g>
  </g>
 </g>
</svg>
