<?xml version="1.0" encoding="utf-8"?>
<!-- Generator: Adobe Illustrator 22.1.0, SVG Export Plug-In . SVG Version: 6.00 Build 0)  -->
<svg version="1.1" id="Layer_1" xmlns="http://www.w3.org/2000/svg" xmlns:xlink="http://www.w3.org/1999/xlink" x="0px" y="0px"
	 viewBox="0 0 263.7 172.2" style="enable-background:new 0 0 263.7 172.2;" xml:space="preserve">
<style type="text/css">
	.st0{fill:#0093D1;}
	.st1{fill:#00539B;}
</style>
<g>
	<title>DIRECTV Full Color</title>
	<path class="st0" d="M139.1,60.1C139.1,27,96.7,6.7,6.9,0l0,0C3.5-0.1,0.6,2.1,0.4,5.1v111.3c0.2,3,3.1,5.2,6.5,5.1h5.9
		c53.6-6,91.4-18.1,111-33.4C133.4,81.2,139.1,71,139.1,60.1z"/>
	<path class="st1" d="M241.4,0h-52c10.3,3.1,19.8,8,28,14.3c7.1,5,12.3,11.8,14.9,19.5c4,13-1.8,26.7-16.1,37.2
		c-19,14.2-48.6,26-87.9,35c-22.5,5.1-48,11.4-76,15.6h189.2c3.4,0.2,6.3-2.1,6.5-5.1V5.1C247.7,2.1,244.8-0.1,241.4,0z"/>
	<path class="st1" d="M18.8,146.3c-1.6-1.5-3.9-2.3-6.2-2.2H5.7v23.4h6.8c2.3,0.1,4.6-0.7,6.2-2.2c1.9-3,2.5-6.4,2-9.8
		C20.7,151.2,20.7,148.1,18.8,146.3z M22.7,168.9c-2.6,2.1-6.1,3.2-9.6,3.1H0v-32.2h13.1c3.5-0.2,6.9,0.9,9.5,3
		c4,3.5,3.7,8.2,3.7,12.8S26.6,165.4,22.7,168.9z"/>
	<rect x="41.8" y="139.7" class="st1" width="5.6" height="32.2"/>
	<path class="st1" d="M77.8,144.1h-8.3v10.1h8.3c3.2,0.3,6.1-1.6,6.5-4.4c0.4-2.8-1.9-5.3-5.1-5.7C78.7,144.1,78.3,144.1,77.8,144.1
		z M84.3,172l-7.8-13.6h-7V172h-5.6v-32.2h14.3c5.8-0.4,10.9,3.3,11.5,8.4c0,0.3,0,0.7,0,1c0.2,4-2.9,7.6-7.3,8.5l8.5,14.3H84.3z"/>
	<polygon class="st1" points="105.1,171.9 105.1,139.7 128.6,139.7 128.6,144.1 110.6,144.1 110.6,153.5 126,153.5 126,157.8 
		110.6,157.8 110.6,167.5 128.6,167.5 128.6,171.9 	"/>
	<path class="st1" d="M154.8,172.2c-3.6,0.1-7.1-1.2-9.7-3.4c-3.6-3.2-3.6-6.7-3.6-12.9s0-9.8,3.6-12.9c2.6-2.2,6.1-3.5,9.7-3.4
		c6.7-0.2,12.4,4.1,13.1,9.9h-5.7c-0.6-3.6-4.5-6.1-8.7-5.6c-1.7,0.2-3.2,0.9-4.4,2c-1.8,1.7-2.2,3.6-2.2,10s0.4,8.3,2.2,10
		c1.4,1.3,3.4,2,5.5,1.9c3.9,0.3,7.3-2.2,7.9-5.5h5.6C167.4,168.1,161.6,172.5,154.8,172.2z"/>
	<polygon class="st1" points="198.8,146.8 198.8,171.9 189.8,171.9 189.8,146.8 180.7,146.8 180.7,139.7 207.9,139.7 207.9,146.8 	
		"/>
	<polygon class="st1" points="237.6,171.9 230.9,171.9 218.7,139.7 228.1,139.7 234.3,157.7 240.4,139.7 249.9,139.7 	"/>
	<path class="st1" d="M258.2,143.1h0.7c0.7,0,1.4,0,1.4-0.6c0-0.6-0.6-0.6-1.2-0.6h-0.8V143.1L258.2,143.1z M257.3,141h2.1
		c1.2,0,1.8,0.4,1.8,1.4c0.1,0.7-0.4,1.3-1.2,1.4c-0.1,0-0.1,0-0.2,0l1.5,1.9h-1l-1.5-1.9h-0.5v1.9h-0.9L257.3,141L257.3,141z
		 M259.1,146.7c2.1,0,3.8-1.4,3.8-3.2c0-1.8-1.6-3.3-3.6-3.3c-2.1,0-3.8,1.4-3.8,3.2c0,0,0,0.1,0,0.1c-0.1,1.7,1.4,3.2,3.4,3.2
		C258.9,146.7,259,146.7,259.1,146.7L259.1,146.7z M259.1,139.5c2.6,0,4.6,1.8,4.6,4s-2.1,4-4.6,4c-2.6,0-4.6-1.8-4.6-4l0,0
		C254.4,141.3,256.5,139.5,259.1,139.5C259,139.4,259.1,139.4,259.1,139.5L259.1,139.5z"/>
</g>
</svg>
