<?xml version="1.0" encoding="utf-8"?>
<!-- Generator: Adobe Illustrator 22.1.0, SVG Export Plug-In . SVG Version: 6.00 Build 0)  -->
<svg version="1.1"
	 id="svg8" inkscape:version="0.92.0 r15299" sodipodi:docname="experian.svg" xmlns:cc="http://creativecommons.org/ns#" xmlns:dc="http://purl.org/dc/elements/1.1/" xmlns:inkscape="http://www.inkscape.org/namespaces/inkscape" xmlns:rdf="http://www.w3.org/1999/02/22-rdf-syntax-ns#" xmlns:sodipodi="http://sodipodi.sourceforge.net/DTD/sodipodi-0.dtd" xmlns:svg="http://www.w3.org/2000/svg"
	 xmlns="http://www.w3.org/2000/svg" xmlns:xlink="http://www.w3.org/1999/xlink" x="0px" y="0px" viewBox="0 0 1122.8 416"
	 style="enable-background:new 0 0 1122.8 416;" xml:space="preserve">
<style type="text/css">
	.st0{fill:#406EB3;}
	.st1{fill:#632678;}
	.st2{fill:#982881;}
	.st3{fill:#BA2F7D;}
	.st4{fill:#26478D;}
</style>
<sodipodi:namedview  bordercolor="#666666" borderopacity="1.0" fit-margin-bottom="0" fit-margin-left="0" fit-margin-right="0" fit-margin-top="0" id="base" inkscape:current-layer="layer1" inkscape:cx="149.00001" inkscape:cy="48.199994" inkscape:document-units="mm" inkscape:pageopacity="0.0" inkscape:pageshadow="2" inkscape:window-height="744" inkscape:window-maximized="1" inkscape:window-width="1280" inkscape:window-x="-4" inkscape:window-y="-4" inkscape:zoom="3.010067" pagecolor="#ffffff" showgrid="false" units="mm">
	</sodipodi:namedview>
<g id="layer1" transform="translate(122.91408,-181.93624)" inkscape:groupmode="layer" inkscape:label="Layer 1">
	<g id="g135" transform="translate(0.50000173,-0.49999809)">
		<path id="path12" inkscape:connector-curvature="0" class="st0" d="M54.1,280.4H13c-12.4,0-22.2-11.2-22.2-25.5v-47
			c0-13.8,9.8-25.5,22.2-25.5h41.1c12.1,0,22.2,11.2,22.2,25.5v47C76.3,269.2,66.5,280.4,54.1,280.4"/>
		<path id="path14" inkscape:connector-curvature="0" class="st1" d="M-52.6,386.1h-46c-13.9,0-24.9-12.9-24.9-28.5v-53.1
			c0-15.5,11.3-28.5,24.9-28.5h46.3c13.9,0,24.9,12.9,24.9,28.5v53.1C-27.3,373.6-38.6,386.1-52.6,386.1"/>
		<path id="path16" inkscape:connector-curvature="0" class="st2" d="M-56.7,496.2H-85c-8.3,0-15.1-7.8-15.1-17.3v-32.4
			c0-9.5,6.8-17.3,15.1-17.3h28.3c8.3,0,15.1,7.8,15.1,17.3v32.4C-41.7,488.4-48.4,496.2-56.7,496.2"/>
		<path id="path18" inkscape:connector-curvature="0" class="st3" d="M19,598.4h-33.5c-9.8,0-18.1-9.1-18.1-20.7v-38.4
			c0-11.2,7.9-20.7,18.1-20.7H19c9.8,0,18.1,9.1,18.1,20.7v38.4C37.1,589.4,29.2,598.4,19,598.4"/>
		<path id="path20" inkscape:connector-curvature="0" class="st3" d="M141.5,299.8h-23c-6.8,0-12.4-6.5-12.4-14.2v-26.3
			c0-7.8,5.7-14.2,12.4-14.2h23c6.8,0,12.4,6.5,12.4,14.2v26.3C154.3,293.3,148.6,299.8,141.5,299.8"/>
		<path id="path22" inkscape:connector-curvature="0" class="st4" d="M648.6,317.5c7.5,0,13.2-6.9,13.2-15.1c0-8.6-6-15.1-13.2-15.1
			c-7.5,0-13.6,6.9-13.6,15.1S641.1,317.5,648.6,317.5z"/>
		<path id="path24" inkscape:connector-curvature="0" class="st4" d="M161.4,480.6c-1.9,3.5-5.3,5.2-9,5.2c-1.9,0-4.5-0.4-6-1.7
			c-3-2.2-4.9-6.5-4.9-10.8c0-2.2,0.4-4.3,1.5-6l30.9-55.7L143,355.9c-1.1-1.7-1.5-4.3-1.5-6c0-4.3,1.9-8.6,5.3-10.8
			c1.9-1.3,3.8-1.7,5.7-1.7c3.8,0,7.2,1.7,9.4,5.2l25.2,45.7l25.6-45.7c1.9-3.5,5.7-5.2,9.4-5.2c1.9,0,3.8,0.4,5.7,1.7
			c3.4,2.2,5.3,6.5,5.3,10.8c0,2.2-0.4,4.3-1.5,6l-30.9,55.7l30.9,55.7c1.1,1.7,1.5,3.9,1.5,6c0,4.3-1.9,9.1-4.9,10.8
			c-1.9,1.3-4.1,1.7-6,1.7c-3.8,0-6.8-1.7-9-5.2l-25.6-45.3L161.4,480.6z"/>
		<path id="path26" inkscape:connector-curvature="0" class="st4" d="M271.8,354.2c11.7-12.1,27.5-19.4,44.5-19.4
			c37.3,0,66.7,34.1,66.7,76.4c0,41.9-29.8,76-66.7,76c-17,0-32.8-7.3-44.5-19.4v65.2c0,6.5-5.3,12.1-10.9,12.1
			c-5.3,0-10.9-5.6-10.9-12.1V348.1c0-6.5,5.3-12.1,10.9-12.1c6,0,10.9,5.6,10.9,12.1V354.2z M315.9,360.2
			c-24.9,0-44.5,22.4-44.5,50.9c0,28.5,19.6,50.9,44.5,50.9c24.9,0,44.5-22.4,44.5-50.9C360.8,382.7,341.2,360.2,315.9,360.2z"/>
		<path id="path28" inkscape:connector-curvature="0" class="st4" d="M571.8,397.3v76.4c0,6.5-5.3,12.1-10.9,12.1
			c-6,0-10.9-5.6-10.9-12.1V348.1c0-6.5,5.3-12.1,10.9-12.1c5.3,0,10.6,5.2,10.9,11.7c9-7.8,20.7-12.5,33.2-12.5
			c6.8,0,12.1,6,12.1,12.5c0,6.9-5.3,12.9-12.1,12.9C588,361.1,571.8,368,571.8,397.3z"/>
		<path id="path30" inkscape:connector-curvature="0" class="st4" d="M648.6,336.1c-6,0-10.9,5.6-10.9,12.1v126
			c0,6.5,5.3,12.1,10.9,12.1c5.3,0,10.9-5.6,10.9-12.1v-126C659.6,341.7,654.3,336.1,648.6,336.1L648.6,336.1z"/>
		<path id="path32" inkscape:connector-curvature="0" class="st4" d="M788.8,348.1c0-6.5,5.3-12.1,10.9-12.1
			c5.3,0,10.9,5.6,10.9,12.1v126c0,6.5-5.3,12.1-10.9,12.1c-6,0-10.9-5.6-10.9-12.1v-6c-12.1,12.1-27.5,19.4-44.5,19.4
			c-37.3,0-66.7-34.1-66.7-76.4c0-41.9,29.8-76,66.7-76c17,0,32.4,7.3,44.5,19.4V348.1z M744.3,462.1c24.9,0,44.5-22.4,44.5-50.9
			c0-28.5-19.6-50.9-44.5-50.9c-24.9,0-44.5,22.4-44.5,50.9C699.9,439.6,719.5,462.1,744.3,462.1L744.3,462.1z"/>
		<path id="path34" inkscape:connector-curvature="0" class="st4" d="M922.6,399.1c0-21.1-15.8-39.3-34.3-39.3
			c-17.7,0-34.3,8.2-34.3,38v76.4c0,6.5-5.3,12.1-10.9,12.1c-6,0-10.9-5.6-10.9-12.1v-126c0-6.5,5.3-12.1,10.9-12.1
			c5.3,0,10.6,5.2,10.9,11.7c9.4-8.2,21.1-12.5,33.9-12.5c29.8,0,56.5,26.8,56.5,60.4v78.5c0,6.5-5.3,12.1-10.9,12.1
			c-6,0-10.9-5.6-10.9-12.1V399.1z"/>
		<path id="path36" inkscape:connector-curvature="0" class="st4" d="M135.1,406.8c-0.4-38.8-30.5-71.6-66.3-71.6
			c-37.3,0-66.7,34.1-66.7,76c0,42.7,29.8,76.4,66.7,76.4c17.7,0,34.3-7.8,46.3-21.6c2.3-2.2,3.8-6,3.8-9.5
			c0-6.9-5.3-12.5-10.9-12.5c-3.4,0-6.4,2.2-8.7,5.2c-7.5,9.1-18.5,13.4-30.1,13.4c-22.2,0-40.3-17.3-44.1-41.4h99.5c0,0,0,0,0.4,0
			h0.4h0.4c0.4,0,0.8,0,1.1-0.4C131.3,418.5,135.1,413.3,135.1,406.8L135.1,406.8z M68.7,360.2c20,0,36.5,14.7,42.2,35.4H26.2
			C31.8,374.9,48.4,360.2,68.7,360.2z"/>
		<path id="path38" inkscape:connector-curvature="0" class="st4" d="M531.4,406.8c-0.4-38.8-30.9-71.6-66.3-71.6
			c-37.3,0-66.7,34.1-66.7,76c0,42.7,29.8,76.4,66.7,76.4c17.7,0,34.3-7.8,46.3-21.6c2.3-2.2,3.8-6,3.8-9.5
			c0-6.9-5.3-12.5-10.9-12.5c-3.4,0-6.4,2.2-8.7,5.2c-7.5,9.1-18.5,13.4-30.1,13.4c-22.2,0-40.3-17.3-44.1-41.4h99.5c0,0,0,0,0.4,0
			h0.4c0.4,0,0.8,0,0.8,0h0.4C527.3,418.9,531.4,413.3,531.4,406.8L531.4,406.8z M465.1,360.2c20,0,36.5,14.7,42.2,35.4h-84.8
			C428.2,374.9,444.8,360.2,465.1,360.2z"/>
		<path id="path40" inkscape:connector-curvature="0" class="st4" d="M967.8,486.2c-1.1,0-1.9-0.9-1.9-2.2v-21.1h-4.1
			c-1.1,0-1.9-0.9-1.9-2.2c0-1.3,0.8-2.2,1.9-2.2h12.1c1.1,0,1.9,0.9,1.9,2.2c0,1.3-0.8,2.2-1.9,2.2h-4.1v21.1
			C969.7,485.4,968.9,486.2,967.8,486.2z"/>
		<path id="path42" inkscape:connector-curvature="0" class="st4" d="M989.2,486.2c-1.1,0-1.5-0.9-1.9-1.7l-5.3-17.3v16.8
			c0,1.3-0.8,2.2-1.9,2.2c-1.1,0-1.9-0.9-1.9-2.2v-22.4c0-1.7,1.1-3,2.6-3c1.1,0,2.3,0.9,2.6,2.2l5.3,17.7l5.3-17.7
			c0.4-1.3,1.5-2.2,2.6-2.2c1.5,0,2.6,1.3,2.6,3v22.4c0,1.3-0.8,2.2-1.9,2.2c-1.1,0-1.9-0.9-1.9-2.2v-16.8c-0.8,2.6-1.9,6.9-3,10.4
			c-1.9,6.9-2.3,6.9-2.3,6.9C990.8,485.8,990,486.2,989.2,486.2L989.2,486.2z"/>
	</g>
</g>
</svg>
