<?xml version="1.0" encoding="utf-8"?>
<!-- Generator: Adobe Illustrator 17.0.0, SVG Export Plug-In . SVG Version: 6.00 Build 0)  -->
<!DOCTYPE svg PUBLIC "-//W3C//DTD SVG 1.1//EN" "http://www.w3.org/Graphics/SVG/1.1/DTD/svg11.dtd">
<svg version="1.1" id="Layer_1" xmlns="http://www.w3.org/2000/svg" xmlns:xlink="http://www.w3.org/1999/xlink" x="0px" y="0px"
	 width="109.542px" height="40.149px" viewBox="0 0 109.542 40.149" enable-background="new 0 0 109.542 40.149"
	 xml:space="preserve">
<g>
	<g id="g11_1_" transform="matrix(1.25,0,0,-1.25,-45.003,928.885)">
		<g id="g3420_1_" transform="matrix(9.99985,0,0,9.99985,-324.0128,-6687.881)">
			<g id="g1019_1_" transform="translate(53.7994,737.1999)">
				<path id="path1021_1_" fill="#024060" d="M-15.593,5.147V5.79h-2.143V2.792h0.644v1.067h1.288v0.644h-1.288v0.644H-15.593z"/>
			</g>
			<path id="path1023_1_" fill="#024060" d="M39.052,739.992h-0.644v2.989h0.644V739.992z"/>
			<g id="g1025_1_">
				<g>
					<defs>
						<rect id="SVGID_1_" x="-28.905" y="702.183" width="138.499" height="80"/>
					</defs>
					<clipPath id="SVGID_2_">
						<use xlink:href="#SVGID_1_"  overflow="visible"/>
					</clipPath>
					<g id="g1027_1_" clip-path="url(#SVGID_2_)">
						<g id="g1033_1_" transform="translate(80.8147,724.712)">
							<path id="path1035_1_" fill="#024060" d="M-39.363,16.131c-0.164-0.156-0.386-0.252-0.631-0.252
								c-0.506,0-0.917,0.411-0.917,0.917c0,0.506,0.411,0.917,0.917,0.917c0.241,0,0.461-0.093,0.625-0.246
								c0.077,0.201,0.188,0.386,0.325,0.546c-0.262,0.205-0.592,0.327-0.95,0.327c-0.853,0-1.545-0.692-1.545-1.545
								c0-0.853,0.691-1.545,1.545-1.545c0.364,0,0.698,0.126,0.962,0.336C-39.172,15.748-39.284,15.931-39.363,16.131"/>
						</g>
						<g id="g1037_1_" transform="translate(95.1428,722.6007)">
							<path id="path1039_1_" fill="#024060" d="M-51.97,17.989c-0.507,0-0.917,0.411-0.917,0.917s0.411,0.917,0.917,0.917
								s0.917-0.411,0.917-0.917S-51.464,17.989-51.97,17.989 M-51.97,20.451c-0.853,0-1.545-0.692-1.545-1.545
								c0-0.853,0.691-1.545,1.545-1.545c0.853,0,1.545,0.692,1.545,1.545C-50.425,19.759-51.117,20.451-51.97,20.451"/>
						</g>
						<g id="g1041_1_" transform="translate(103.7093,719.3594)">
							<path id="path1043_1_" fill="#024060" d="M-59.507,20.844v0.048h0.211v-0.048h-0.077v-0.211h-0.058v0.211H-59.507z"/>
						</g>
						<g id="g1045_1_" transform="translate(106.3588,719.7549)">
							<path id="path1047_1_" fill="#024060" d="M-61.839,20.487l0.058-0.173h0.001l0.055,0.173h0.077v-0.25h-0.048v0.183h-0.001
								l-0.057-0.183h-0.036l-0.068,0.183h-0.001v-0.183h-0.058v0.25H-61.839z"/>
						</g>
					</g>
				</g>
			</g>
		</g>
	</g>
</g>
</svg>
