<?xml version="1.0" encoding="utf-8"?>
<!-- Generator: Adobe Illustrator 22.1.0, SVG Export Plug-In . SVG Version: 6.00 Build 0)  -->
<svg version="1.1" id="Layer_1" xmlns="http://www.w3.org/2000/svg" xmlns:xlink="http://www.w3.org/1999/xlink" x="0px" y="0px"
	 viewBox="0 0 928 253.9" style="enable-background:new 0 0 928 253.9;" xml:space="preserve">
<style type="text/css">
	.st0{fill:#231F20;}
	.st1{clip-path:url(#SVGID_2_);}
	.st2{fill:#007BB5;}
	.st3{fill:#FFFFFF;}
</style>
<title>Linkedin Full Color</title>
<g>
	<path class="st0" d="M915.5,205.1c2.2,0.1,4-1.9,4-4.4c0-0.1,0-0.3,0-0.4c0-3.4-1.8-5-5.5-5h-5.9v17.7h2.3v-7.7h2.9l4.3,7.6h2.4
		l-4.6-8.3l0,0 M912.8,203h-2.6v-5.3h3.3c1.7,0,3.7,0,3.7,2.8c0,2.8-1.8,2.9-4.2,2.9L912.8,203z"/>
	<path class="st0" d="M913.2,187.6c-8.1,0-14.7,7.4-14.7,16.6s6.6,16.6,14.7,16.6s14.7-7.4,14.7-16.6S921.3,187.6,913.2,187.6
		 M913.2,218.8c-7.1,0.2-13.1-6.2-13.2-14.3c-0.2-8.1,5.5-14.7,12.6-14.9c7.1-0.2,13.1,6.2,13.2,14.3c0,0.1,0,0.3,0,0.4
		c0.1,7.9-5.4,14.4-12.4,14.5C913.3,218.8,913.2,218.8,913.2,218.8z"/>
	<polyline class="st0" points="0,37.6 34.7,37.6 34.7,180.4 99.1,180.4 99.1,216.7 0,216.7 0,37.6 	"/>
	<path class="st0" d="M114.4,95.3h33.4v121.3h-33.4V95.3z M131.1,35c10.7,0.1,19.3,10,19.2,22.1c-0.1,12.1-8.9,21.8-19.6,21.6
		c-10.7-0.1-19.2-10-19.2-22.1c0-12.1,8.7-21.9,19.4-21.9"/>
	<polyline class="st0" points="287.4,37.6 320.7,37.6 320.7,144.6 358.5,95.2 399.5,95.2 355.7,151.4 398.6,216.7 356.6,216.7 
		321.2,156.6 320.7,156.6 320.7,216.7 287.4,216.7 287.4,37.6 	"/>
	<path class="st0" d="M166.3,95.3h32v16.6h0.4c6.5-12.6,18.7-20.1,31.6-19.6c33.9,0,40.1,24.9,40.1,58v66.3h-33.3v-59
		c0-14.1,0-32.2-17.3-32.2s-20.1,15.3-20.1,30.8v60h-33.3V95.3"/>
	<path class="st0" d="M469.8,141.8c0.2-12.5-8.6-22.8-19.7-23.1c-0.3,0-0.5,0-0.8,0c-12.1-1-22.7,9.3-23.6,23c0,0,0,0.1,0,0.1
		L469.8,141.8 M498.1,195.6c-11.2,15.4-28,24.2-45.6,24.1c-33.4,0-60.1-24.9-60.1-64.1s26.7-64.1,60.1-64.1
		c31.2,0,50.7,24.9,50.7,64.1v11.8h-77.6c2,13.8,12.7,23.9,25.1,23.6c9.6-0.1,18.6-5.7,23.8-14.8L498.1,195.6z"/>
	<g>
		<defs>
			<rect id="SVGID_1_" width="928" height="253.9"/>
		</defs>
		<clipPath id="SVGID_2_">
			<use xlink:href="#SVGID_1_"  style="overflow:visible;"/>
		</clipPath>
		<g class="st1">
			<path class="st0" d="M572.7,124.6c-14-0.9-26,11.1-26.8,26.9c-0.1,1.3-0.1,2.7,0,4c0,16.7,12,30.2,26.7,30.2
				c14.8,0,26.7-13.5,26.7-30.2c0,0,0,0,0,0c1.2-15.7-9.1-29.5-23-30.9C575.2,124.6,573.9,124.5,572.7,124.6 M630.1,216.6h-30.8
				v-16.1h-0.4c-7.8,11.9-20.1,18.9-33.2,19.1c-32.1,0-53.2-26.1-53.2-63.1c0-33.9,18.7-65.1,49.4-65.1c13.1-1.3,25.9,4.7,34.3,16.1
				h0.4V37.6h33.4L630.1,216.6z"/>
			<path class="st2" d="M872.1,0H680.2c-9.1-0.1-16.5,8.1-16.6,18.3v217.6c0.1,10.2,7.5,18.4,16.6,18.3h192
				c9.1,0.1,16.5-8.1,16.7-18.3c0,0,0,0,0,0V18.3C888.7,8.1,881.3-0.1,872.1,0C872.2,0,872.2,0,872.1,0"/>
		</g>
	</g>
	<path class="st3" d="M697,95.3h33.4v121.4H697V95.3z M713.7,35c10.7,0,19.4,9.8,19.4,21.9c0,12.1-8.7,21.9-19.4,21.9
		c-10.7,0-19.4-9.8-19.4-21.9c0-0.1,0-0.1,0-0.2C694.4,44.7,703,35,713.7,35"/>
	<path class="st3" d="M751.3,95.3h32v16.6h0.4c6.5-12.6,18.7-20.1,31.6-19.6c33.8,0,40.1,24.9,40.1,58v66.3H822v-59
		c0-14.1,0-32.2-17.3-32.2c-17.3,0-20,15.3-20,31.2v60h-33.3L751.3,95.3"/>
</g>
</svg>
