<?xml version="1.0" encoding="utf-8"?>
<!-- Generator: Adobe Illustrator 22.1.0, SVG Export Plug-In . SVG Version: 6.00 Build 0)  -->
<svg version="1.1" id="Layer_1" xmlns="http://www.w3.org/2000/svg" xmlns:xlink="http://www.w3.org/1999/xlink" x="0px" y="0px"
	 viewBox="0 0 4099.3 1479.5" style="enable-background:new 0 0 4099.3 1479.5;" xml:space="preserve">
<style type="text/css">
	.st0{fill:#968B86;}
	.st1{fill:#968B87;}
	.st2{fill:#FEFEFE;}
</style>
<title>Marriott International Full Color</title>
<g>
	<path class="st0" d="M499,564.2l-18.7,38.9c-29.3,67.1-58.6,134.1-89.7,201.9c-23,49-52.2,93-89.4,131.8
		c-47.7,51.8-116.2,77.5-184.5,69.2c-39.4-3.1-76.3-13.4-111.4-28.7c-6.1-2.9-6.1-2.9-4.3-10.1C30.4,902.3,57.8,840.2,84.6,776
		c1.9-5.1,4.3-5,10.5-5c36.9,13.2,76.3,16.3,115.8,8.5c43.2-9.9,82.7-38.6,107.6-77.5c27.3-41.1,50.3-85,70.9-131.9
		c18.7-38.9,37.4-80,54.2-121.2c1.9-5.1,1.9-10.1,0.1-15.9L327.3,164.3c-10.4-21-18.3-44.2-28.6-65.2c-1.8-5.1,0-8,4.4-10.1
		L480.9,1.7c6.2-2.9,8-2.9,12.3,5.1C573,193.7,654.6,383.5,734.3,570.4l4.3,10.1l14.3-33.9l41.8-95.9c1.9-2.9,1.9-7.9,0.1-13
		L656,108.1c-6.1-13-6.1-13,6.3-20.9L833.9,2.8c6.2-2.9,8,0,10.4,5.1l245.4,570.8l149.2,350.6c1.8,8,1.8,8-4.4,7.9l-215-1.1
		c-4.3,0-10.5-2.9-10.4-8l-151-350.6l-4.3-10.1c-1.8,0-4.3,2.9-4.3,2.9l-56.7,124c-1.9,2.9-1.9,7.9-0.1,10.1l93.8,218
		c4.3,8,4.3,8-4.4,7.9l-219.3-1.1c-4.3,0-10.5-2.9-10.4-8L503.3,571.4L499,564.2z"/>
	<path class="st0" d="M1309.7,459.1c0.2-44.1,0.4-85.3,0.7-129.4c0-5.1,4.3-5,6.2-7.9c29-15.8,62.3-25.7,93.2-33.5
		c41.3-9.9,82.6-15.5,123.9-12.4c41.3,0.2,82.5,8.4,120,26.6c47.3,23.4,77.9,70.5,86.2,124.8c1.8,18.1,4.1,36.2,4.1,52.1
		c-0.7,147.4-1.5,297.8-2.2,445.2c0,8-0.1,10.1-10.5,10.1l-134.3-0.7c-10.5-0.1-10.5-0.1-12.3-10.2s-4.2-31.1-5.9-49.2
		c0-2.9,0-2.9,0-5.1c-10.5,10.1-18.6,20.9-29.1,30.9c-33.4,28-74.8,46.6-117.9,48.6c-86.9,9.7-163-55-174.8-148.3
		c-7.7-52.1,0.5-106.3,23.5-150.2c21.1-38.9,54-72,91.6-92.8c47.6-28,99.4-46.5,153-53.4c14.2-2.8,29-4.9,43.2-7.7
		c4.3,0,6.2-2.9,6.2-7.9c2.1-41.2-24.3-75.3-63.7-80.6c-45.5-10.3-93-5.5-134.4,12.3C1352.9,431.1,1330.1,444,1309.7,459.1z
		 M1572.9,672.9c0-8,0.1-15.9,0.1-26c0.1-10.1,4.4-18,0.1-23.1c-4.3-5.1-14.2-0.1-20.9-0.1c-27.1,2.8-53.6,9.8-78.4,22.7
		c-37.1,17.9-58.2,59-50.4,100.9c4.1,39.1,36.6,67.4,74.2,62.5c1.8,0,4.3,0,8-2.9c29-4.9,53.8-30.8,62.5-61.8
		C1572.6,725,1575.2,699,1572.9,672.9L1572.9,672.9z"/>
	<path class="st0" d="M3393.5,630.1c-0.1,23.1-0.3,54.2-0.4,85.3c-4.7,67.2-29.6,129.2-73,178.2c-31,30.9-70.5,51.7-111.8,58.7
		c-47.5,9.9-97.4,7.5-144.7-8.7c-64-21.3-113-70.7-135.5-138c-12.1-36.2-20.6-78.2-20.4-116.5c0.2-49.1,0.5-98.3,0.7-147.4
		c0.3-52,12.8-101.1,37.7-145.1c27.4-51.9,75-90,130.5-102.7c51.8-15.6,107.3-12.5,158.9,3.7c72,21.3,125.9,83.8,144,159
		c10.3,34,13.8,70.2,13.6,106.3C3393.8,580.9,3393.7,601.9,3393.5,630.1z M3224.1,622c0.2-34,0.3-67.2,0.5-101.2
		c0.1-23.1-4.1-44.1-10.1-65.1c-10.3-36.2-47.1-57.3-80.5-44.5c-21,7.8-37.1,25.8-43.4,46.8c-8.1,26-12.6,52-10.9,78
		c-0.3,57.1-0.6,111.3-0.8,168.4c-0.1,26,1.6,52.1,10.1,78.1c6.1,15.9,16.5,31.2,28.8,39.2c30.7,18.2,70.2,8.3,88.8-25.6
		c1.9-2.9,4.4-7.9,4.4-13c8.1-20.9,12.5-41.1,12.6-65C3223.8,689.2,3222.1,655.2,3224.1,622L3224.1,622z"/>
	<path class="st0" d="M4016,89.6l-0.7,140.2c-0.1,21-0.2,41.2-0.3,62.2c0,8-0.1,10.1,8,10.2c22.8,0.1,45.6,0.2,68.4,0.3
		c6.2,0,8,0,8,8c-0.2,31.1-0.3,65.1-0.5,96.1c0,5.1,0,8-8,7.9c-22.8-0.1-45.6-0.2-68.4-0.3c-8,0-10.5-0.1-10.5,10.1
		c-0.4,88.2-0.9,176.4-1.3,264.5c-0.4,88.2-0.8,165.5-1.3,248.6c0,8-0.1,10.1-8.1,10.1l-150.9-0.8c-8,0-8-2.9-8-10.2
		c0.9-171.3,1.7-341.9,2.6-513.2c0.1-13,0.1-10.1-10.4-10.2l-37-0.2c-4.3,0-6.2,0-6.1-8c0.2-34,0.3-65.1,0.5-98.3c0-8,1.9-7.9,8-7.9
		c12.3,0.1,27.1,0.1,39.4,0.2c6.2,0,8,0,8-7.9c0.2-39,0.4-78.1,0.6-114.2c0-5.1,0-8,4.4-10.1l161.8-79.4L4016,89.6z"/>
	<path class="st0" d="M3658.7,87.8l-0.3,52c-0.2,49.1-0.5,101.2-0.8,150.3c0,8,1.8,10.1,8,10.2l68.4,0.3c6.2,0,8,2.9,8,8
		c-0.2,31.1-0.3,65.1-0.5,96.1c0,5.1,0,8-8,7.9c-22.8-0.1-45.6-0.2-70.2-0.4c-8,0-8,2.9-8.1,10.1c-0.5,101.2-1,204.6-1.5,305.7
		c-0.4,70.1-0.7,140.2-1.1,209.6c0,8-0.1,10.1-8.1,10.1c-49.9-0.3-99.2-0.5-150.9-0.8c-8,0-10.5-2.9-10.4-10.2
		c0.9-171.3,1.7-341.9,2.6-513.2c0.1-13,0.1-10.1-10.4-10.2l-37-0.2c-4.3,0-6.2,0-6.1-5.1c0.2-34,0.3-67.2,0.5-101.2
		c0-5.1,1.9-5.1,6.2-5c12.3,0.1,24.6,0.1,39.4,0.2c12.3,0.1,10.5-2.8,10.5-10.1c0.2-39,0.4-75.2,0.6-111.3c0-5.1,1.9-7.9,6.2-10.1
		L3655,91.4L3658.7,87.8z"/>
	<path class="st1" d="M2411.7,361.3c6.2-10.1,12.4-20.9,21.1-28.1c37.2-46.8,99.5-64.6,153-43.3c4.3,0,6.1,5.1,6.1,8l0,0
		c-0.2,47-0.5,93.2-0.7,140.2c0,8-1.9,5.1-8,2.9c-22.7-13.1-47.3-18.3-72-18.4c-37-0.2-70.3,20.6-91.4,53.8c-4.3,2.9-4.4,7.9-4.4,13
		c-0.7,147.4-1.5,292.7-2.2,440.2c-0.1,13-0.1,13-10.5,13l-149.1-0.7c-8,0-8-2.9-8-10.2c1.1-209.6,2.1-419.9,3.2-626.7
		c0-8,0.1-10.1,8.1-10.1l138.6,0.7c6.2,0,8,0,8,8C2405.7,322.2,2407.5,340.3,2411.7,361.3z"/>
	<path class="st0" d="M2010.6,356.4c10.5-13,18.6-23,31-36c24.8-28.1,60-40.9,97.5-40.7c16.6,0.1,30.8,3,45.5,8.2
		c4.3,0,6.1,5.1,6.1,8l0,0c-0.2,47-0.5,93.2-0.7,140.2c0,8,0,8-8,5c-24.6-13.1-49.8-18.3-76.3-18.5c-35.1,2.7-68.5,20.6-87.1,51.6
		c-1.9,2.9-1.9,7.9-1.9,13c-0.7,147.4-1.5,292.7-2.2,440.2c-0.1,13-0.1,13-12.4,12.9l-149.1-0.7c-6.2,0-8,0-8-8
		c1.1-209.6,2.1-419.9,3.2-629.6c0-8,1.9-10.1,8.1-10.1l136.1,0.7c6.2,0,8,0,10.4,8C2004.7,320.2,2008.9,338.3,2010.6,356.4z"/>
	<path class="st0" d="M2821.3,619.9c-0.5,98.3-1,196.6-1.5,297.8c0,8-0.1,13-0.1,21c0,8,0,5.1-6.2,5l-157.1-0.8
		c-6.2,0-6.1-2.9-6.1-8c0.1-23.1,0.2-47,0.4-72.3c0.9-186.5,1.9-370.1,2.8-556.6c0.1-10.1,0.1-10.1,10.5-10.1l144.8,0.7
		c10.5,0.1,10.5,0.1,10.4,13.1C2822.3,412.5,2821.8,515.9,2821.3,619.9z"/>
	<path class="st1" d="M1970.8,1304.5l0.3-59.3c0.1-23.1,0.2-47,0.4-70.1c0-5.1,0-8,8-7.9s22.8,0.1,33.3,0.2c4.3,0,6.2,0,6.1,5.1
		c-0.4,72.3-0.7,142.4-1.1,214.7c0,5.1,0,5.1-6.2,5l-29-0.1c-4.3,0-6.1-2.9-8-5.1l-90.5-129.8l-8-8l-0.1,10.1
		c-0.2,41.2-0.4,83.1-0.6,121.4c0,8-1.9,7.9-8,7.9c-10.5-0.1-20.9-0.1-30.8-0.2c-6.2,0-6.1-2.9-6.1-8c0.3-65.1,0.7-129.4,1-194.4
		c0-8,0.1-13,0.1-21c0-8,0-5.1,6.2-5l30.8,0.2c4.3,0,6.1,2.9,8,5.1l90.5,127.7L1970.8,1304.5z"/>
	<path class="st1" d="M1003.6,1294.6l0.3-54.2c0.1-23.1,0.2-49.1,0.4-72.3c0-8,0.1-10.1,8-7.9c10.5,0.1,20.9,0.1,30.8,0.2
		c6.2,0,8,0,8,8c-0.2,47-0.5,96.1-0.7,142.4c-0.1,23.1-0.2,44.1-0.3,67.2c0,5.1,0,8-6.2,7.9c-10.5,2.8-21,2.8-30.8-0.2
		c-8-5.1-14.1-16-18.4-26.1L914.5,1245l0,0c-1.9,2.9,0,5.1,0,8c-0.2,41.2-0.4,83.1-0.6,124.3c0,5.1,0,8-8,7.9s-22.8-0.1-33.3-0.2
		c-4.3,0-6.2,0-6.1-5.1c0.4-70.1,0.7-142.4,1.1-214.7c0-5.1,0-8,6.2-7.9l0,0c12.3-2.8,24.7-2.8,37,0.2c10.4,5.1,14.1,18.1,22.7,28.3
		l71.6,101.6C1001.8,1291.7,1003.6,1294.6,1003.6,1294.6z"/>
	<path class="st1" d="M3104.9,1307.3c0-2.9,0-8,0.1-10.1c0.2-39,0.4-78.1,0.6-116.4c0-8,0-8,8-7.9c10.5,0.1,20.9,0.1,29,0.1
		c6.2,0,8,0,8,8c-0.2,47-0.5,93.2-0.7,140.2c-0.1,23.1-0.2,47-0.4,70.1c0,5.1,0,8-8,7.9c-10.5,2.8-21,2.8-30.8-0.2
		c-8-2.9-14.1-16-20.8-26.1l-82-116.8c-1.9,2.9,0,5.1,0,8c-0.2,41.2-0.4,83.1-0.6,124.3c0,8-1.9,10.1-8.1,10.1
		c-6.2,0-20.9-0.1-30.8-0.2c-9.9,0-6.2,0-6.1-8c0.4-70.1,0.7-142.4,1.1-212.5c0-5.1,0-8,6.2-7.9c6.2,0,18.5,0.1,29,0.1
		c6.2,0,10.5,2.9,12.3,8l88.1,121.9C3101.2,1302.2,3101.2,1305.1,3104.9,1307.3z"/>
	<path class="st1" d="M2775.4,1166.2c53.6-2.6,100.8,39.5,111,98.9c10.1,65.1-31.4,124.2-89.4,134l0,0c-37,7.8-74.5-5.4-100.9-34.5
		c-42.9-44.3-42.5-119.5,0.8-165.5c16.7-18,39.6-28,62.4-33.7C2760.6,1166.1,2766.8,1166.1,2775.4,1166.2z M2710.7,1282.2
		c-0.2,36.1,28.6,67.4,63.7,67.5c35.1,0.2,64.2-30.8,64.4-66.9c0.2-39-26.8-70.2-61.9-70.4c0,0,0,0-1.8,0
		c-35.1-0.2-62.4,30.8-62.6,66.9C2712.6,1279.3,2712.6,1279.3,2710.7,1282.2L2710.7,1282.2z"/>
	<path class="st1" d="M1757.2,1391.6l-49.9-0.3c-4.3,0-6.1-2.9-8-5.1l-36.7-59.5c-1.8-5.1-6.1-8-10.4-5.1c-8,0-14.2-0.1-22.8-0.1
		c-6.2,0-6.2,0-6.2,7.9c-0.1,18.1-0.2,39-0.3,57.1c0,8-1.9,7.9-8,7.9c-6.2,0-20.9-0.1-30.8-0.2c-10.5-0.1-10.5-2.9-10.4-10.2
		c0.2-39,0.4-78.1,0.6-116.4c0.2-31.1,0.3-62.2,0.5-93.2c0-5.1,0-8,8-7.9l94.9,0.5c12.3,0.1,24.6,3,36.9,8.1
		c35,21.1,47.1,65.3,28.4,101.3c-6.2,15.9-18.6,25.9-33.4,33.8c-6.2,2.9-1.9,5.1,0,8l42.8,67.4L1757.2,1391.6z M1621.8,1240.6
		c-0.1,10.1-0.1,18.1-0.1,28.2s0,5.1,4.3,5.1c16.6,0.1,30.8,0.2,47.4,0.2c16.6,0.1,29-12.9,29.1-28c1.9-15.9-7.9-31.1-22.6-34.1
		c-1.8,0-1.8,0-4.3,0c-16.6-0.1-33.3-0.2-49.9-0.3c-4.3,0-4.3,2.9-4.3,5C1621.9,1217.5,1621.8,1229.8,1621.8,1240.6z"/>
	<path class="st1" d="M1338.8,1275.3c0.2-34,0.4-70.1,0.5-103.4c0-8,0.1-10.1,8.1-10.1l142.3,0.7c6.2,0,8,2.9,8,8
		c0,8-0.1,18.1-0.1,26c0,8-1.9,10.1-8.1,10.1l-94.9-0.5c-6.2,0-8,0-8,7.9c-0.1,10.1-0.1,18.1-0.1,28.2c0,5.1,0,8,8,8l85,0.4
		c6.2,0,8,2.9,8,10.2s-0.1,18.1-0.1,28.2c-0.1,10.1,0,8-6.2,7.9c-29-0.1-56.1-0.3-85-0.4c-8,0-8,2.9-8.1,10.1
		c-0.1,10.1-0.1,18.1-0.1,28.2c0,8-0.1,10.1,8,10.2l97.3,0.5c6.2,0,8,0,8,8c0,8-0.1,18.1-0.1,28.2c-0.1,10.1,0,8-6.2,7.9l-150.9-0.8
		c-6.2,0-6.1-2.9-6.1-8C1338.5,1345.4,1338.7,1309.3,1338.8,1275.3z"/>
	<path class="st1" d="M2295,1394.3l-43.1-0.2c-4.3,0-4.3-2.9-6.1-5.1c-4.2-13-10.3-26.1-14-39.1c0-5.1-4.3-8-10.4-8l-76.4-0.4
		c-4.3,0-8,2.9-10.5,7.9c-4.4,13-10.6,26-14.4,39c0,2.9-1.9,5.1-6.2,5l-43.1-0.2l16.8-41.1c23.1-59.2,48-116.1,71.1-176
		c1.9-5.1,6.2-10.1,12.4-7.9c10.5,0.1,18.5,0.1,29,0.1c4.3,0,6.1,2.9,8,5.1l83.9,215.1C2295,1386.4,2295,1388.5,2295,1394.3z
		 M2183.7,1225.3l-27.5,70c0,5.1,0,5.1,4.3,5.1l45.6,0.2c4.3,0,6.2,0,4.3-5L2183.7,1225.3z"/>
	<path class="st1" d="M3404.4,1399.9c-6.2,0-16.6,2.8-20.9-0.1c-6.1-2.9-6.1-13-10.4-21c-1.8-8-6.1-15.9-7.9-23.2
		c-1.8-5.1-4.3-5.1-8-5.1l-74.5-0.4c-4.3,0-8,2.9-8,5c-4.4,13-10.6,26-14.4,39c-1.9,5.1-4.4,7.9-8,5l-30.8-0.2
		c-10.5-0.1-10.5-0.1-6.1-10.2l46.2-116.1c12.5-31,25-64.9,37.4-95.9c1.9-5.1,6.2-7.9,10.5-7.9c10.5,0.1,18.5,0.1,29,0.1
		c4.3,0,8,2.9,10.4,8c22.5,54.3,42.6,111.5,65.1,165.9c6.1,15.9,12.2,31.1,18.2,49.2c1.8,5.1,1.8,8-4.4,7.9
		C3421.1,1400,3410.6,1399.9,3404.4,1399.9z M3318.4,1231.1l-25,67.1c0,2.9,0,5.1,4.3,5.1l45.6,0.2c4.3,0,4.3,0,1.9-5.1
		L3318.4,1231.1z"/>
	<path class="st1" d="M2395.3,1166.4l78.2,0.4c6.2,0,8,0,8,8c-0.1,10.1-0.1,21-0.2,31.1c0,5.1,0,8-8,7.9l-49.9-0.3c-6.2,0-8,0-8,7.9
		c-0.3,54.2-0.5,109.1-0.8,163.4c0,8-0.1,10.1-8,7.9c-10.5-0.1-20.9-0.1-30.8-0.2c-6.2,0-8-2.9-8-8c0.3-54.2,0.5-109.1,0.8-160.5
		c0-8,0.1-10.1-10.4-10.2c-16.6-0.1-30.8-0.2-47.4-0.2c-4.3,0-8,0-6.1-8c0-8,0.1-21,0.2-31.1c0.1-10.1,0-8,8-7.9L2395.3,1166.4z"/>
	<path class="st1" d="M1194.6,1160.4l80.7,0.4c6.2,0,8,0,8,8s-0.1,21-0.2,31.1c-0.1,10.1,0,8-8,7.9c-16.6-0.1-33.3-0.2-47.4-0.2
		c-6.2,0-8,0-8,7.9c-0.3,54.2-0.5,109.1-0.8,163.4c0,8-0.1,10.1-8.1,10.1c-10.5-0.1-20.9-0.1-30.8-0.2c-6.2,0-8-2.9-8-8
		c0.3-54.2,0.5-109.1,0.8-163.4c0-8,0.1-10.1-8-10.2c-16.6-0.1-30.8-0.2-47.4-0.2c-6.2,0-8,0-8-8c0-8,0.1-21,0.2-31.1s0-8,6.2-7.9
		L1194.6,1160.4z"/>
	<path class="st1" d="M3483.2,1286.1c0.2-34,0.4-70.1,0.5-103.4c0-8,0-8,8-7.9c10.5,0.1,20.9,0.1,30.8,0.2c6.2,0,6.1,2.9,6.1,8
		c-0.3,54.2-0.5,109.1-0.8,160.5c0,8-0.1,10.1,10.4,10.2c29,0.1,57.9,0.3,88.7,0.4c6.2,0,8,0,8,8c0,8-0.1,21-0.2,31.1
		c-0.1,10.1,0,8-6.2,7.9l-140.5-0.7c-6.2,0-6.1-2.9-6.1-8C3482.9,1356.2,3483.1,1320.1,3483.2,1286.1z"/>
	<path class="st1" d="M2590.6,1281.6c-0.2,34-0.4,70.1-0.5,103.4c0,8,0,8-8,7.9s-20.9-0.1-30.8-0.2c-4.3,0-6.2,0-6.1-8
		c0.4-70.1,0.7-142.4,1.1-214.7c0-5.1,0-8,6.2-5c10.5,0.1,22.8,0.1,33.3,0.2c6.2,0,8,0,8,8C2591,1211.5,2590.8,1245.5,2590.6,1281.6
		z"/>
	<path class="st1" d="M727.1,1272.2c0.2-34,0.4-70.1,0.5-103.4c0-8,0-8,8-7.9c8,0,20.9,0.1,30.8,0.2c9.9,0,8,2.9,6.1,8
		c-0.3,57.1-0.6,114.2-0.9,171.3c-0.1,13-0.1,26-0.2,39c0,5.1,0,8-6.2,7.9c-10.5-0.1-22.8-0.1-33.3-0.2c-10.5-0.1-8-2.9-8-8
		C726.8,1342.3,726.9,1306.2,727.1,1272.2z"/>
</g>
<path class="st2" d="M2059.6,1478.6c0-0.2,0-0.5,0-0.7c0-0.2,0-0.1,0.1-0.1c0.5,0,0.9,0,1.4,0c0.4,0,0.8,0.3,0.8,0.8v0.1
	c0,0.4-0.4,0.8-0.8,0.8c-0.4,0-0.9,0-1.3,0c-0.1,0-0.1,0-0.1-0.1C2059.7,1479.3,2059.6,1478.8,2059.6,1478.6z"/>
</svg>
