<?xml version="1.0" encoding="utf-8"?>
<!-- Generator: Adobe Illustrator 22.1.0, SVG Export Plug-In . SVG Version: 6.00 Build 0)  -->
<svg version="1.1" id="Layer_1" xmlns="http://www.w3.org/2000/svg" xmlns:xlink="http://www.w3.org/1999/xlink" x="0px" y="0px"
	 viewBox="0 0 1024 221.9" style="enable-background:new 0 0 1024 221.9;" xml:space="preserve">
<style type="text/css">
	.st0{fill:#003399;}
</style>
<title>United Full Color</title>
<g>
	<path class="st0" d="M827,0h176.1c0,66.1,0,132.3,0,198.4c0,7.8,0,15.6,0,23.4h-37c2.1-7.3,3.8-14.8,5-22.3
		c2.4-15.4,2.9-31.2,1.4-46.8c-5-48-28.7-89.7-63.1-111.3c-25.6-15.7-54.8-19.1-82.2-9.5C826.9,21.3,827,10.6,827,0z"/>
	<path class="st0" d="M840.9,30.1c8-2.1,16.3-2.1,24.3,0c11.2,2.7,20.8,11.8,25.9,24.7c2.4,6.5,3.6,13.6,3.6,20.8
		c-0.4,16.7-4.4,33-11.6,47.2c-6.5,13.2-14.6,25.1-24,35.3c-8.6,9.6-18.2,17.7-28.6,24.1c-1.2,0.8-2.4,1.5-3.6,2c0-4,0-8,0-12
		c1,2.1,1.7,4.4,2.7,6.6c1.5-0.8,2.9-1.7,4.3-2.8c-2.2-5.9-4.6-11.6-6.9-17.5c-0.2-0.8-0.2-1.7,0-2.5c0-2.3,0-4.5,0-6.8
		c4.1-2.7,8-5.9,11.6-9.7c0.3-0.6,0.8,0,1,0.6c3.9,6.7,8,13.2,12,19.7l0.6,0.8c2-1.7,3.8-3.7,5.4-6c-4.3-6.6-8.9-13-13.6-19.1
		c0,0-0.8-0.7-0.6-1.2c3.1-2.9,5.9-6.3,8.4-10c0.7-1.1,1.4-2.1,2.2-3c5.8,5.5,11.1,11.1,16.5,16.8c1.8-2.8,3.5-5.6,5.2-8.4
		c-5.8-5.2-11.6-10.4-17.4-14.6c2.5-4.3,4.8-8.9,6.8-13.5c5.7,3.1,11.3,6.6,16.7,10.5c0.6,0.5,1.2,0.9,1.9,1.2
		c1.4-3.1,2.6-6.3,3.5-9.6c-6.1-4.1-12.4-7.7-18.9-10.7c1.3-3.4,2.2-7,2.8-10.6c6.5,1.6,13,3.8,19.3,6.6c0.7-3.8,1.2-7.7,1.3-11.6
		c-6.3-2-12.6-3.4-19-4.3c0.2-2.4,0.3-4.8,0.3-7.3c6.1,0.6,12.2,1.6,18.3,3.1c-0.2-3.5-0.9-6.9-1.9-10.2c-5.8-0.9-11.6-1.3-17.4-1.1
		c-0.4-1.9-0.9-3.7-1.5-5.5c5.3-0.6,10.6-0.7,16-0.4c-1.2-3-2.9-5.7-5-7.8c-4.7,0.1-9.3,0.7-13.9,1.7c-0.8-1.5-1.8-2.9-2.8-4.2
		c3.8-1.1,7.7-1.9,11.6-2.3c0-0.8-0.9-1.1-1.4-1.5c-1.9-1.4-3.8-2.6-5.8-3.7c-1-0.6-2,0-3,0.4c-2,0.5-4,1.5-5.8,2.1
		c-1.4-0.9-2.8-1.7-4.2-2.5c1.7-1,3.5-1.8,5.3-2.5c-4.1-0.9-8.3-1.2-12.5-0.8C846.4,31,843.6,30.9,840.9,30.1z"/>
	<path class="st0" d="M868.5,28.8c6.9,0.6,13.6,2.4,20.1,5.2c5.2,2.4,10,6,14.1,10.8c8.1,8.8,13.5,21.1,15,34.4
		c1.2,14.6-0.6,29.4-5.4,42.7c-4.9,14-11.4,27.1-19.3,38.7c-13.6,21.2-30.9,38.1-50.5,49.6c-5,2.8-10.2,5.2-15.5,7.3
		c0-10.3,0-20.7,0-31.1c1.6-0.8,3.2-1.8,4.7-2.6c2.9,7.8,5.8,15.4,9.4,22.8c1.7-0.9,3.4-1.9,5-3.1c-3-7.1-6.1-14.2-9.3-21.3
		c0-0.5-0.9-1.5,0-1.9c6.5-4.3,12.6-9.5,18.3-15.4l13,20.8c2.3-2,4.5-4.3,6.6-6.7c-3.8-6-7.8-11.8-11.6-17.5
		c-0.5-0.9-1.4-1.6-1.7-2.6c1.9-2.3,4.1-4.5,5.8-7.3c1.7-2.8,5-6.7,7.1-10.3c5.5,5.6,10.8,11.6,15.7,18c2.3-3,4.4-6.3,6.1-9.9
		c-4.2-4.9-8.5-9.4-12.9-13.5c-1.2-1.1-2.4-2.3-3.4-3.6c3.2-5.1,6-10.7,8.2-16.7c4.5,2.9,8.7,6.5,12.9,9.9c1.7,1.4,3.3,3.1,5.2,4.2
		c1.7-3.7,3.1-7.5,4.3-11.5c-5.7-4.5-11.7-8.7-17.7-12.4c-0.3,0-1-0.6-0.7-1.2c1.3-4.5,2.4-9.1,3.2-13.8c5.3,2.3,10.5,5,15.5,8.2
		c1.2,0.8,2.5,1.6,3.8,2.2c0.8-4.6,1.2-9.2,1.2-13.9c-6.2-3.5-12.6-6.3-19.1-8.6c0-2.9,0-5.8,0-8.7c5.9,1.5,11.7,3.6,17.4,6.2
		c0.3,0,1.1,0.7,1.3,0c-0.7-4.5-1.9-9-3.5-13.2c-5.5-1.8-11.1-3.1-16.8-4.1c-0.6-2.4-1.7-4.6-2.1-7.3c3.9,0.7,7.8,1,11.6,2
		c1,0.3,2,0.4,3,0.5c-2.1-3.8-4.6-7.1-7.5-10c-0.5-0.6-1.1-1-1.9-1.1c-3.4,0-6.7,0-10.1,0c-1.1-1.2-2-2.6-3.1-3.7
		c-1.1-1.1-0.9-0.7-0.9-1.4c2.4,0,4.7,0,7.2,0c-1-1-2.2-1.8-3.5-2.3c-4.1-2.1-8.3-3.6-12.7-4.2C872.4,30.5,870.4,29.9,868.5,28.8z"
		/>
	<path class="st0" d="M831,33.4c7.9-2,16-1.2,23.6,2.2c5.8,2.7,10.6,7.8,13.7,14.6c3.5,9.1,4.3,19.4,2.4,29.1
		c-2.7,13.6-7.8,26.3-15,37.1c-7.6,11.7-16.7,21.6-26.8,29.6c-0.5,0.4-1.1,0.8-1.7,1c0-9.1,0-18.2,0-27.3c3.3,4.7,6.1,9.9,9.3,14.6
		c1.5-1.1,3-2.4,4.2-4c-4.4-5.8-8.7-11.7-13.1-17.5c-0.5-0.4-0.7-1.3-0.3-1.9c0.1-0.2,0.2-0.3,0.3-0.4c2.3-2.4,4.4-5.1,6.4-7.9
		c5.8,4.7,11.6,9.8,17,15.2c1.1-1.6,2.2-3.2,3.2-4.9c0-0.4,0.8-1,0.3-1.4c-5.9-4.6-12-8.9-18.2-12.7c1.8-2.9,3.4-6,4.7-9.2
		c5.9,2.2,11.7,4.8,17.4,7.8c1,0.6,2,1.2,3.1,1.5c1-2.4,1.9-4.7,2.8-7.3c-6.9-3.2-14-5.6-21.2-7.3c0.8-2.2,1.4-4.5,1.8-6.8
		c7.5,0.5,14.9,1.7,22.2,3.8c0.6-2.8,1.1-5.7,1.3-8.6c-7.4-0.9-14.9-1.1-22.4-0.9c0-1.9,0-3.7,0.4-5.6c7.4-0.8,14.9-1,22.4-0.7
		c-0.1-2.5-0.4-4.9-1-7.3c-7.3,0.3-14.6,1.3-21.8,3.1c-0.2-1.4-0.5-2.9-0.9-4.3c6.9-2.2,13.9-3.7,21-4.5c-0.8-2-1.8-3.9-3-5.7
		c-6.5,1.6-13,3.8-19.3,6.5c-0.5-1.3-1.1-2.5-1.9-3.6c5.7-3.1,11.6-5.5,17.6-7.3c-1.5-1.7-3.3-3.1-5.2-4.1c-5.1,2-10.1,4.5-14.8,7.7
		c-0.7-0.8-1.4-1.4-2.2-2c0-0.6,0.5-0.7,0.9-1c3.6-2.7,7.3-4.9,11.2-6.8c-2.6-1-5.3-1.5-8-1.6c-2.9,1.9-5.7,4-8.3,6.6
		c-1-0.5-2.1-0.9-3.1-1.2c1.6-1.9,3.3-3.6,5.1-5c-2.8,0.1-5.5,0.6-8.2,1.2c0-0.4,0-1.1,0-1.5h-1.8C826.9,34,828.9,33.6,831,33.4z"/>
	<path class="st0" d="M898.4,38.1c1.7,0.4,3.3,0.9,4.9,1.7c6,2.3,11.5,6.3,16.1,11.6c4.2,5.1,7.7,11,10.4,17.5
		c6.1,14.7,8.2,31.5,5.8,47.8c-3,17.9-8.9,34.8-17.4,49.6C906,188.2,890.7,207,873,221.8h-18.3l-6.3-13.2c7.8-5.3,15.3-11.3,22.3-18
		c3.8,6,7.4,12.3,11.6,18.2c2.4-2.5,4.9-4.9,7.1-7.3c-3.6-6.3-7.5-12.3-11.6-18c5.6-6,10.7-12.6,15.5-19.7c4.5,5.3,8.6,11,12.8,16.5
		c2.6-3.2,4.9-6.7,6.9-10.5c-4.2-5.7-8.9-10.8-13.3-16.2c0.8-1.6,1.9-3,2.7-4.5c2.7-4.8,5.2-9.9,7.4-15.1c1.1,0.8,2.2,1.7,3.1,2.8
		c3.7,3.5,7.2,7.3,10.8,10.9c1.8-4.1,3.3-8.5,4.6-13c-4.4-4.7-9-9-13.9-12.9c1.9-5.5,3.3-11.2,4.2-17c4.9,3.1,9.6,6.8,14.1,10.8
		c0.8-5.4,1.2-11,1.2-16.5c-4.4-3.4-9-6.4-13.7-9.1c0-3.6-0.1-7.2-0.4-10.8c4.3,2.2,8.6,4.7,12.8,7.3c-0.6-5.1-1.9-10-3.7-14.6
		c-0.4-0.9-0.7-2.3-1.6-2.5c-3.5-1.5-7.1-3.1-10.6-4.4c-0.9-2.8-2-5.6-3.3-8.2c3.4,0.8,6.7,2.1,10,3.7c-3.5-5.9-7.9-10.9-13-14.6
		c-1.6-1.2-3.7-0.4-5.3-1.6C903.1,42,900.9,39.8,898.4,38.1z"/>
	<path class="st0" d="M827,42c6.6,0.8,12.4,5.7,15.7,13c2.6,8.2,2.6,17.3,0,25.5c-2.5,8.7-6.5,16.7-11.6,23.4
		c-1.2,1.7-2.6,3.4-4,4.9c0-3.8,0-7.3,0-11.4c1,0.9,2,1.7,3.1,2.3c0.8-0.9,1.5-2,2.2-3.1c-1.7-1.3-3.6-2.4-5.4-3.4
		c0-2.8,0-5.5,0-8.3c3.4,0.6,6.7,1.7,9.8,3.2c0.6-1.4,1.2-2.8,1.7-4.3c-3.8-1.1-7.7-1.8-11.6-2.1c0-1.6,0-3.1,0-4.7
		c4.5-0.2,9,0,13.5,0.5c0.4-1.6,0.8-3.2,1-4.9c-4.9,0.1-9.7,0.5-14.5,1.2c0-1.2,0-2.4,0-3.6c4.9-1.3,9.8-2.3,14.8-2.8
		c0-1.4,0-2.8,0-4.1c-5,1-9.9,2.6-14.6,4.8c0-1.2,0-2.3,0-3.5c4.5-2.3,9.1-4.2,13.8-5.6c-0.2-1.1-0.5-2.1-0.9-3.1
		c-4.5,1.8-8.8,4-13,6.7c0-1.3,0-2.5,0-3.9c3.5-2.2,7.1-4.4,10.8-6.3c-0.6-0.9-1.4-1.7-2.1-2.5c-2.9,2.1-5.8,4.1-8.6,6.4
		c0-1.3,0-2.5,0-3.8c1.6-1.2,3.1-2.5,4.7-3.6c0.3,0,1-0.5,1.1-1.1c-1-0.8-2.2-1.4-3.4-1.7c-0.9,0.4-1.6,1.4-2.5,1.8
		C826.9,45.4,826.9,43.5,827,42z"/>
	<path class="st0" d="M0,59.5h26.8c0,22,0,44,0,66c-0.2,7,1.9,13.8,5.8,18.7c5,4.8,11.1,7.2,17.4,6.8c5,0.3,10.1-0.7,14.8-3.1
		c3.3-2,6-5.4,7.5-9.6c1.6-4.6,2.3-9.6,2.1-14.6c0-21.3,0-42.7,0-64.1h26.8c0,20.7,0,41.4,0,62.2c0.2,6.2-0.2,12.5-1.3,18.6
		c-1.7,10.4-6.4,19.8-13.1,26.2c-8.6,7.2-18.6,11.3-28.9,11.6c-9.2,0.9-18.4,0-27.4-2.5c-8.5-2.4-16.2-8.2-21.9-16.6
		C3,150,0,138.7,0.1,127.2L0,59.5z"/>
	<path class="st0" d="M150.6,89.7c0-10.1,0-20.2,0-30.3c7.5,0,15,0,22.6,0c0.6,0,0.9,0.6,1.3,0.9c5.4,7.3,11,14.2,16.4,21.3
		c5.4,7.1,11.9,15.5,17.9,23.2s12,15.4,17.8,23.2c0-8.9,0-17.8,0-26.6c0-14.1,0-28.1,0-42.2h25.2c0,38.8,0,77.7,0,116.5h-20
		l-56-71.3c0,24,0,47.8,0,71.8c-8.3,0-16.7,0-25.1,0c0-10.6,0-21.2,0-31.7L150.6,89.7z"/>
	<path class="st0" d="M309.5,94c0-11.5,0-23,0-34.5c9.1,0,18.2,0,27.3,0c0,38.8,0,77.7,0,116.5c-9.1,0-18.2,0-27.3,0
		C309.1,148.8,309.5,121.4,309.5,94z"/>
	<path class="st0" d="M382.1,59.5c31.5,0,63,0,94.4,0c0,9.1,0,18.1,0,27.2h-34c0,29.8,0,59.8,0,89.6c-9,0-17.9,0-26.9,0
		c0-29.8,0-59.8,0-89.6h-33.3l0,0C382.1,77.5,382.1,68.4,382.1,59.5z"/>
	<path class="st0" d="M521.4,59.5h86.8c0,8.7,0,17.5,0,26.3c-19.9,0-39.9,0-59.8,0c0,6.5,0,13,0,19.5c16.9,0,33.9,0,50.7,0
		c0,8.2,0,16.4,0,24.5h-50.7c0,6.7,0,13.5,0,20.2c20.1,0,40.2,0,60.3,0c0,8.7,0,17.5,0,26.2h-87.4
		C521.5,137.3,521.5,98.4,521.4,59.5z"/>
	<path class="st0" d="M657.9,59.5h34.3c9-0.4,18,0,26.9,1.2c8.6,1.3,16.9,4.8,24.4,10.5c5.9,4.6,10.7,11.2,13.8,19
		c3.4,8.9,5,18.6,4.7,28.5c0.2,9.4-1.4,18.7-4.6,27.2c-2.5,6.5-6.2,12.1-10.8,16.5c-7.8,6.9-16.8,11.2-26.2,12.6
		c-9.3,1.4-18.7,1.9-28.1,1.5h-34.7C657.8,137.3,658,98.4,657.9,59.5z M684.9,86.4c0,21,0,41.9,0,62.8c3.2,0,6.4,0,9.6,0
		c5.2,0,10.4,0,15.6,0c6.6-0.2,13-3.4,18-9c3.9-5.7,6-13.2,5.8-20.7c0.2-5.6-0.6-11.2-2.2-16.5c-1.6-4.6-4.2-8.4-7.6-10.9
		c-5.5-3.7-11.7-5.6-17.9-5.5L684.9,86.4z"/>
	<path class="st0" d="M929,62.7c2,1.2,4.7,1.3,5.8,3.9c6.6,9.6,11.2,21.1,13.5,33.5c2.3,13.3,2.1,27.1-0.6,40.3
		c-4.9,22.1-13.7,42.4-25.7,59.6c-5.1,7.6-10.6,14.7-16.5,21.3c-1.3,0-2.7,0-4,0c-3.2-5.1-6.2-10.4-9.5-15.3
		c6-6.5,11.6-13.6,16.6-21.3c3.4,4.9,6.7,9.7,9.9,14.6c1.3-1.5,2.5-3.1,3.6-4.9c1.3-1.9,2.5-3.9,3.6-6c0-1.2-1-1.9-1.5-2.8
		c-2.8-4.1-5.8-8.1-8.6-11.9c2.9-4.7,5.4-9.7,7.9-14.6c1.1-2.3,2.1-4.6,3.1-7.3c1.4,1.2,2.7,2.5,3.9,4.1c2.3,2.9,4.6,5.8,6.8,8.7
		c2-4.4,3.6-8.9,4.9-13.7c-3.1-4.3-6.4-8.3-10-11.9c-0.5,0-0.4-0.9,0-1.5c2-5.8,3.4-11.9,4.2-18.1c1,0.5,1.8,1.2,2.6,2
		c2.6,2.5,5.1,5.2,7.5,8c0.8-6.2,1.1-12.5,0.8-18.8c-2.9-3.1-6-6-9.1-8.7c0-4.1,0-8.2-0.8-12.2c2.7,1.9,5.3,4.1,8,5.9
		c-1.4-6.5-3.5-12.7-6.1-18.5c-0.4-0.9-0.8-1.8-1.4-2.6c-1.4-1.1-3-1.7-4.4-2.6c-0.5,0-0.6-0.9-0.8-1.4
		C931.5,68.2,930.1,65.5,929,62.7z"/>
	<path class="st0" d="M942.1,75.9c1.5,0,2.3,2.1,3.3,3.3c7.3,10.2,12.2,22.9,14.1,36.4c2,14.5,1.5,29.4-1.6,43.7
		c-5,23.2-14.4,44.6-27.3,62.5h-22.5c1-1.6,2.4-2.8,3.5-4.3c2.6-3.3,5.1-6.7,7.5-10.2c0.8-1,1.4-2.4,2.4-3.1
		c2.8,4.4,5.4,8.9,8.1,13.3c2.7-3.6,4.9-7.3,7.3-11.5c-2.6-4.6-5.4-9-8.3-13.2c4.3-7.5,8.2-15.3,11.6-23.4c2.8,3.9,5.2,8.1,7.6,12.2
		c2.1-4.6,3.7-9.5,4.9-14.6c-2.1-4.1-4.3-8.1-6.7-11.9c2-6.6,3.4-13.5,4.3-20.5c2.6,2.9,5,6.1,7.2,9.5c0.7-7.3,0.7-14.6,0-21.8
		c-1.9-2.6-3.9-5.1-6.1-7.3c0-4.8-0.8-9.6-1.3-14.6c1.4,1.4,2.9,2.8,4.4,4.1c-2.5-9.6-6.5-18.6-11.6-26.4
		C942.8,77.7,942.1,77,942.1,75.9z"/>
	<path class="st0" d="M960.3,110.7c1.4,0.9,1.9,2.8,2.4,4.5c2.4,6.6,4,13.6,4.9,20.8c0.5,7.8,0.2,15.7-0.8,23.4
		c-1.6,12.6-4.5,24.8-8.7,36.4c-3.3,8.9-7.2,17.4-11.6,25.5h-2c-1.6-3.6-3.5-6.9-5-10.5c4.3-7.6,8.2-15.5,11.6-23.7h0.8
		c1.4,2.4,2.5,5,3.7,7.3c0.7-1.5,1.3-3,1.7-4.6c1.2-3.5,2.3-7.1,3.1-10.8c-1.2-2.5-2.4-5.1-3.5-7.7c1.9-7,3.4-14.2,4.5-21.5
		c0-0.9,0.6,0,0.8,0s1.7,2.8,2.6,4.1c1.1-7,1.5-14.2,1.2-21.4c-0.9-1.9-2-3.6-3.1-5.3c-0.5-0.7-0.4-1.6-0.5-2.4
		C961.8,119.9,961.2,115.3,960.3,110.7z"/>
	<path class="st0" d="M970,154.9c0-0.8,0-3.2,1-2.5c0.7,12.1-0.4,24.3-3.1,35.9c-2.4,11.6-5.9,22.9-10.3,33.6h-8.6
		c0.5-1.6,1.2-3.1,2-4.4c2.8-5.5,5.2-11.4,7.6-17.1c0.8,1.6,1.5,3.3,2.1,5c1.6-4.5,3-9.2,4.1-14c0.9-2.7-1.8-5.1-0.9-7.8
		c2-7.1,3.6-14.4,4.5-21.8c0.4,0.2,0.7,0.5,1,0.9C969.5,160.2,969.8,157.5,970,154.9z"/>
	<path class="st0" d="M970.8,180.3h0.6c-0.7,14-3.1,27.7-7.1,40.8h-5c1-2.8,2.1-5.5,3.1-8.2c0-0.4,0.6-1.2,0.7-0.4
		c0.1,0.9,0,1.5,0.6,1.2C966.6,203,969.1,191.9,970.8,180.3z"/>
	<path class="st0" d="M1011.2,204.9c3.1-3.2,7.6-3,10.5,0.5c1.4,1.8,2.2,4.2,2.3,6.7l0,0c-0.1,5.4-3.6,9.7-7.9,9.6
		c-2.2,0-4.3-1.3-5.8-3.4C1007.8,214.2,1008.1,208.3,1011.2,204.9z M1014.3,205.3c-3,1.3-4.6,5.5-3.6,9.3c0.1,0.5,0.3,0.9,0.5,1.4
		c1.6,3.5,5.2,4.6,7.9,2.5c0.3-0.2,0.6-0.5,0.8-0.7h-2c-0.7-1.5-1.5-3-2.3-4.5h-0.8c0,1.6,0,3.1,0,4.7h-1.9c0-3.6,0-7.3,0-10.8
		c1.9-0.2,3.9-0.2,5.8,0c1.2,0.6,1.9,2.4,1.4,4c0,1.2-1.3,1.6-2,2.3c1,1.1,1.3,3.3,2.5,3.9c1.3-1.8,1.8-4.2,1.4-6.6
		c-0.6-3.9-3.6-6.5-6.8-5.8C1015,205,1014.7,205.1,1014.3,205.3z M1015,208.9v1.7c0.9,0,1.7,0,2.6,0c0.9,0,0.6-0.9,0.7-1.4
		C1017.2,209,1016.1,208.9,1015,208.9z"/>
	<path class="st0" d="M827,219.6c5.4-2.1,10.7-4.7,15.9-7.6c1.4,3.3,3,6.6,4.3,9.9H827C826.9,221.1,826.9,220.4,827,219.6z"/>
	<path class="st0" d="M878,219.9c2.4-1.9,4.5-4.4,6.8-6.4c1.4,2.8,3,5.4,4.2,8.3h-13.1C876.6,221.1,877.3,220.5,878,219.9z"/>
</g>
</svg>
