<?xml version="1.0" encoding="utf-8"?>
<!-- Generator: Adobe Illustrator 22.1.0, SVG Export Plug-In . SVG Version: 6.00 Build 0)  -->
<svg version="1.1" id="Layer_1" xmlns="http://www.w3.org/2000/svg" xmlns:xlink="http://www.w3.org/1999/xlink" x="0px" y="0px"
	 viewBox="0 0 209.5 36.1" style="enable-background:new 0 0 209.5 36.1;" xml:space="preserve">
<style type="text/css">
	.st0{fill:#FFFFFF;}
</style>
<g id="Layer_1_1_">
</g>
<path class="st0" d="M13.5,11.8c-3.2,0-6.2,2-6.2,6.6c0,4.2,1.9,6.9,6.1,6.9c2.9,0,6.3-1.8,6.3-6.8C19.7,14.1,17.6,11.8,13.5,11.8
	 M13,29.9c-8.2,0-12.2-4.2-12.2-11.1C0.8,11.7,6.8,7.2,14,7.2c7,0,12.2,3.3,12.2,11C26.2,25.4,20.4,29.9,13,29.9z"/>
<path class="st0" d="M41.8,9.8c-0.9-0.2-1.7-0.3-2.4-0.3c-1.8,0-2.8,0.7-2.8,2.4v1.4h4.1v3.8h-4.1v8.7c1.2,0.1,2.4,0.2,3.4,0.4v3.2
	H27.2v-3.2c1-0.2,2.3-0.3,3.4-0.4v-8.7H27v-3.8h3.7V12c0-4.3,2.5-6.5,8.2-6.5c1,0,2.2,0.1,3.3,0.3L41.8,9.8"/>
<path class="st0" d="M57,9.8c-0.9-0.2-1.7-0.3-2.4-0.3c-1.8,0-2.8,0.7-2.8,2.4v1.4h4.1v3.8h-4.1v8.7c1.2,0.1,2.4,0.2,3.4,0.4v3.2
	H42.4v-3.2c1-0.2,2.2-0.3,3.4-0.4v-8.7h-3.7v-3.8h3.7V12c0-4.3,2.5-6.5,8.2-6.5c1,0,2.2,0.1,3.3,0.3L57,9.8"/>
<path class="st0" d="M63.7,11.7c-2,0-3.7-1.3-3.7-2.9c0-1.6,1.7-2.9,3.7-2.9c2,0,3.7,1.3,3.7,2.9C67.3,10.4,65.7,11.7,63.7,11.7
	 M57.3,29.5v-3.2c1-0.2,2.2-0.3,3.4-0.4v-8.8c-0.9-0.1-2.3-0.3-3.4-0.3v-3.2c2.8-0.3,6.1-0.4,9.4-0.3v12.5c1.1,0.1,2.3,0.2,3.2,0.4
	v3.2L57.3,29.5L57.3,29.5z"/>
<path class="st0" d="M79.4,29.8c-6.3,0-9.7-2.7-9.7-7.9c0-4.9,3.1-8.9,10.6-8.9c1.5,0,3.1,0.2,4.5,0.5v5.5h-3.9
	c-0.2-0.7-0.3-1.3-0.4-1.8c-0.3-0.1-0.7-0.1-1.1-0.1c-2.1,0-3.6,1.5-3.6,4.2c0,2.8,1.3,4.2,4.9,4.2c1.2,0,2.6-0.2,3.7-0.6l0.4,4.3
	C83.1,29.6,81.5,29.8,79.4,29.8"/>
<path class="st0" d="M95.3,16.6c-1.7,0-3,1.1-3.1,2.8h5.9C98.1,17.6,97,16.6,95.3,16.6 M103.8,22.7H92.1c0.1,2.2,1.6,3.4,4.8,3.4
	c1.9,0,3.9-0.3,5.8-1l0.5,3.7c-2.2,0.7-4.8,1.1-7.2,1.1c-6.4,0-10-2.6-10-8.3c0-5,3.4-8.6,9.4-8.6c5.9,0,8.5,3.3,8.5,7.5
	C103.9,21.2,103.9,21.9,103.8,22.7z"/>
<path class="st0" d="M124.1,17.3c-0.7,0-1,0-1.4,0.1v8.5c0.2,0,0.6,0.1,1.3,0.1c2.6,0,4.6-1.3,4.6-4.3
	C128.5,19.1,127.9,17.3,124.1,17.3 M123.5,29.7c-2.2,0-5.8-0.1-6.6-0.1h-2.7v-2.8c0.8-0.2,1.8-0.3,2.7-0.3v-9.7
	c-1,0-1.9-0.1-2.7-0.2v-2.9h2.6c1.7,0,4.6-0.1,7.6-0.1c6.1,0,10.4,1.9,10.4,7.7C134.7,26.7,130.2,29.7,123.5,29.7z"/>
<path class="st0" d="M134.6,29.6v-2.8c0.8-0.2,1.8-0.3,2.7-0.3v-9.7c-0.9,0-1.9-0.1-2.7-0.2v-2.9h15.3V18h-4.4
	c-0.1-0.4-0.1-0.6-0.2-0.9H143V20h1.9c0.1-0.3,0.1-0.4,0.2-0.7h3.8v4.3H145c-0.1-0.3-0.1-0.3-0.2-0.6H143v3.1h2.2
	c0.1-0.4,0.1-0.5,0.2-1h4.5v4.5L134.6,29.6"/>
<path class="st0" d="M160.5,17.1c-0.1,0-0.3,0-0.6,0v4.3c0.3,0.1,0.4,0.1,0.5,0.1c1.6,0,3-0.8,3-2.3
	C163.4,18.1,162.6,17.1,160.5,17.1 M160.8,24.7c-0.1,0-0.5,0-0.9,0v1.8c0.9,0,1.9,0.2,2.7,0.3v2.8h-11.1v-2.8
	c0.8-0.2,1.8-0.3,2.7-0.3v-9.7c-0.9,0-1.9-0.1-2.7-0.2v-2.9h2.6c1,0,4.1-0.1,6.3-0.1c5.6,0,8.6,1.8,8.6,5.3
	C169.1,22,166.4,24.7,160.8,24.7z"/>
<path class="st0" d="M180,17.4c-2,0-4,1.2-4,4.2c0,2.7,1.2,4.4,3.9,4.4c1.8,0,4.2-0.9,4.2-4.3C184.1,18.8,182.8,17.4,180,17.4
	 M179.6,29.9c-6.5,0-9.7-3-9.7-8c0-5.1,4.7-8.5,10.6-8.5c5.4,0,9.7,2.2,9.7,8C190.2,26.5,185.5,29.9,179.6,29.9z"/>
<path class="st0" d="M204.6,18.9c-0.1-0.5-0.2-1-0.3-1.6h-1.6v9.2c0.9,0,1.9,0.2,2.7,0.3v2.8h-11.1v-2.8c0.8-0.2,1.8-0.3,2.7-0.3
	v-9.2h-1.6c0,0.6-0.2,1.1-0.3,1.6h-4.4v-5.3H209v5.3H204.6"/>
<path class="st0" d="M207.3,28.2h0.1c0.2,0,0.3-0.1,0.3-0.2c0-0.1-0.1-0.2-0.3-0.2c-0.1,0-0.1,0-0.1,0V28.2 M207.3,28.9h-0.2v-1.3
	c0.1,0,0.2,0,0.4,0c0.2,0,0.3,0,0.4,0.1c0.1,0,0.1,0.1,0.1,0.3c0,0.2-0.1,0.3-0.2,0.3v0c0.1,0,0.2,0.1,0.2,0.3
	c0,0.2,0.1,0.3,0.1,0.3h-0.2c0,0,0-0.2-0.1-0.3c0-0.2-0.1-0.2-0.3-0.2h-0.1L207.3,28.9L207.3,28.9z M207.5,27.3
	c-0.5,0-0.9,0.4-0.9,1c0,0.5,0.4,1,0.9,1c0.5,0,0.9-0.5,0.9-1C208.4,27.7,208,27.3,207.5,27.3L207.5,27.3z M207.5,27.1
	c0.6,0,1.1,0.5,1.1,1.2c0,0.7-0.5,1.2-1.1,1.2c-0.6,0-1.1-0.5-1.1-1.2C206.4,27.6,206.9,27.1,207.5,27.1L207.5,27.1z"/>
</svg>
